<svg width="134" height="44" viewBox="0 0 134 44" fill="none" xmlns="http://www.w3.org/2000/svg">
<path d="M27.748 8.244C27.604 8.34 27.268 8.676 26.74 9.252C26.236 9.804 25.636 10.488 24.94 11.304C24.268 12.096 23.548 12.96 22.78 13.896C22.036 14.808 21.34 15.672 20.692 16.488C20.068 17.28 19.552 17.952 19.144 18.504C18.736 19.056 18.532 19.356 18.532 19.404C18.532 19.572 18.616 19.644 18.784 19.62C18.976 19.572 19.144 19.572 19.288 19.62L21.664 20.268C22.648 18.228 23.656 16.224 24.688 14.256C25.72 12.288 26.74 10.284 27.748 8.244ZM16.66 19.008C16.684 19.008 16.756 18.948 16.876 18.828C16.996 18.684 17.128 18.54 17.272 18.396C17.416 18.228 17.548 18.072 17.668 17.928C17.788 17.784 17.86 17.7 17.884 17.676C19.42 15.9 20.932 14.124 22.42 12.348C23.932 10.572 25.444 8.796 26.956 7.02C27.268 6.636 27.592 6.144 27.928 5.544C28.288 4.944 28.636 4.344 28.972 3.744C29.332 3.12 29.668 2.544 29.98 2.016C30.292 1.464 30.592 1.068 30.88 0.827998C31.024 0.707998 31.192 0.587998 31.384 0.467998C31.6 0.347998 31.804 0.287998 31.996 0.287998H34.264C34.528 0.335999 34.696 0.407999 34.768 0.503998C34.864 0.575998 34.912 0.743998 34.912 1.008C34.912 1.128 34.732 1.584 34.372 2.376C34.036 3.168 33.592 4.128 33.04 5.256C32.512 6.384 31.924 7.608 31.276 8.928C30.652 10.224 30.04 11.472 29.44 12.672C28.864 13.848 28.348 14.88 27.892 15.768C27.46 16.656 27.172 17.244 27.028 17.532C26.716 18.156 26.404 18.78 26.092 19.404C25.78 20.028 25.492 20.664 25.228 21.312C25.78 21.408 26.32 21.492 26.848 21.564C27.376 21.612 27.916 21.636 28.468 21.636C29.5 21.636 30.484 21.516 31.42 21.276C32.356 21.012 33.256 20.604 34.12 20.052C34.072 20.172 34.06 20.292 34.084 20.412C34.132 20.508 34.156 20.616 34.156 20.736C34.156 20.856 34.12 20.964 34.048 21.06C33.688 21.612 33.124 22.104 32.356 22.536C31.588 22.968 30.748 23.328 29.836 23.616C28.948 23.904 28.048 24.132 27.136 24.3C26.224 24.444 25.456 24.516 24.832 24.516C24.712 24.516 24.58 24.516 24.436 24.516C24.292 24.492 24.16 24.468 24.04 24.444L22.744 26.892H18.208C18.544 26.34 18.868 25.788 19.18 25.236C19.492 24.684 19.792 24.12 20.08 23.544C19.888 23.496 19.588 23.412 19.18 23.292C18.796 23.148 18.388 23.004 17.956 22.86C17.548 22.716 17.164 22.584 16.804 22.464C16.468 22.344 16.252 22.284 16.156 22.284C16.012 22.284 15.76 22.452 15.4 22.788C15.064 23.124 14.632 23.544 14.104 24.048C13.576 24.552 12.964 25.104 12.268 25.704C11.596 26.28 10.852 26.82 10.036 27.324C9.244 27.828 8.392 28.248 7.48 28.584C6.568 28.92 5.62 29.088 4.636 29.088C4.084 29.088 3.58 28.98 3.124 28.764C2.692 28.572 2.296 28.308 1.936 27.972C1.576 27.636 1.252 27.264 0.964 26.856C0.652 26.448 0.364 26.028 0.1 25.596C0.268 25.5 0.496 25.368 0.784 25.2C1.048 25.008 1.336 24.828 1.648 24.66C1.96 24.492 2.26 24.348 2.548 24.228C2.836 24.108 3.076 24.048 3.268 24.048C3.436 24.048 3.592 24.168 3.736 24.408C3.904 24.648 4.108 24.912 4.348 25.2C4.612 25.464 4.96 25.716 5.392 25.956C5.824 26.196 6.424 26.316 7.192 26.316C7.624 26.316 8.176 26.148 8.848 25.812C9.52 25.476 10.18 25.08 10.828 24.624C11.5 24.144 12.124 23.652 12.7 23.148C13.276 22.62 13.696 22.176 13.96 21.816C13.168 21.624 12.388 21.372 11.62 21.06C10.852 20.748 10.048 20.592 9.208 20.592C8.872 20.592 8.512 20.664 8.128 20.808C7.768 20.952 7.408 21.132 7.048 21.348C6.688 21.564 6.328 21.792 5.968 22.032C5.632 22.272 5.32 22.476 5.032 22.644C4.912 22.548 4.804 22.464 4.708 22.392C4.612 22.296 4.54 22.188 4.492 22.068C4.828 21.612 5.284 21.168 5.86 20.736C6.46 20.28 7.096 19.884 7.768 19.548C8.464 19.188 9.16 18.9 9.856 18.684C10.552 18.468 11.188 18.36 11.764 18.36C12.364 18.36 12.964 18.408 13.564 18.504C14.164 18.576 14.764 18.66 15.364 18.756C15.556 18.804 15.772 18.864 16.012 18.936C16.252 18.984 16.468 19.008 16.66 19.008ZM34.6634 24.48C34.9274 24.48 35.2754 24.36 35.7074 24.12C36.1394 23.88 36.5714 23.592 37.0034 23.256C37.4594 22.92 37.8674 22.584 38.2274 22.248C38.6114 21.888 38.8874 21.6 39.0554 21.384C39.2714 21.096 39.4634 20.76 39.6314 20.376C39.8234 19.992 40.0034 19.608 40.1714 19.224C40.3634 18.84 40.5554 18.48 40.7474 18.144C40.9394 17.784 41.1674 17.496 41.4314 17.28C41.5514 17.184 41.7554 17.136 42.0434 17.136C42.3314 17.136 42.5474 17.136 42.6914 17.136C42.8114 17.136 42.9794 17.136 43.1954 17.136C43.4114 17.112 43.6274 17.124 43.8434 17.172C44.0594 17.196 44.2394 17.256 44.3834 17.352C44.5514 17.424 44.6354 17.544 44.6354 17.712C44.6354 18 44.4914 18.432 44.2034 19.008C43.9154 19.56 43.5914 20.172 43.2314 20.844C42.8714 21.492 42.5474 22.14 42.2594 22.788C41.9714 23.412 41.8274 23.94 41.8274 24.372C41.8274 24.636 41.9354 24.768 42.1514 24.768C42.3914 24.768 42.6794 24.672 43.0154 24.48C43.3754 24.288 43.7234 24.084 44.0594 23.868C44.4194 23.652 44.7434 23.46 45.0314 23.292C45.3434 23.1 45.5594 23.004 45.6794 23.004V24.264C45.3674 24.504 44.9474 24.78 44.4194 25.092C43.8914 25.38 43.3274 25.668 42.7274 25.956C42.1274 26.22 41.5394 26.448 40.9634 26.64C40.4114 26.832 39.9434 26.928 39.5594 26.928C39.1514 26.928 38.7434 26.82 38.3354 26.604C37.9274 26.364 37.7234 26.004 37.7234 25.524C37.7234 25.26 37.7834 24.972 37.9034 24.66C38.0474 24.348 38.1794 24.072 38.2994 23.832C37.8674 24.12 37.4234 24.444 36.9674 24.804C36.5114 25.164 36.0434 25.512 35.5634 25.848C35.0834 26.16 34.5914 26.424 34.0874 26.64C33.5834 26.856 33.0554 26.964 32.5034 26.964C31.9514 26.964 31.5554 26.772 31.3154 26.388C31.0754 26.004 30.9554 25.572 30.9554 25.092C30.9554 24.756 30.9914 24.444 31.0634 24.156C31.0874 23.988 31.1834 23.712 31.3514 23.328C31.4954 22.92 31.6754 22.476 31.8914 21.996C32.1074 21.492 32.3474 20.976 32.6114 20.448C32.8754 19.896 33.1274 19.392 33.3674 18.936C33.6314 18.48 33.8594 18.096 34.0514 17.784C34.2674 17.448 34.4354 17.244 34.5554 17.172C35.0594 17.1 35.5874 17.064 36.1394 17.064C36.4274 17.064 36.7154 17.076 37.0034 17.1C37.3154 17.124 37.6274 17.16 37.9394 17.208C37.6754 17.688 37.3514 18.24 36.9674 18.864C36.6074 19.464 36.2594 20.1 35.9234 20.772C35.5874 21.42 35.2874 22.068 35.0234 22.716C34.7834 23.364 34.6634 23.952 34.6634 24.48ZM54.6392 17.784C55.3832 16.608 56.0192 15.3 56.5472 13.86C57.0992 12.396 57.5432 10.98 57.8792 9.612C57.9512 9.276 57.9872 8.916 57.9872 8.532C58.0112 8.148 58.1552 7.836 58.4192 7.596C58.5632 7.476 58.8152 7.344 59.1752 7.2C59.5352 7.056 59.8112 6.984 60.0032 6.984C60.4112 6.984 60.7832 7.056 61.1192 7.2C61.4552 7.344 61.6232 7.656 61.6232 8.136C61.6232 9.576 61.3712 10.98 60.8672 12.348C60.3872 13.692 59.8112 15.024 59.1392 16.344C58.4672 17.664 57.7952 18.984 57.1232 20.304C56.4512 21.624 55.9352 22.956 55.5752 24.3C55.5272 24.492 55.5032 24.636 55.5032 24.732C55.5032 25.14 55.7192 25.344 56.1512 25.344C56.4152 25.344 56.7152 25.284 57.0512 25.164C57.3872 25.044 57.7232 24.912 58.0592 24.768C58.3952 24.6 58.7192 24.432 59.0312 24.264C59.3672 24.096 59.6672 23.952 59.9312 23.832L60.2192 24.804C60.0032 25.044 59.6192 25.296 59.0672 25.56C58.5152 25.8 57.9152 26.028 57.2672 26.244C56.6432 26.46 56.0312 26.64 55.4312 26.784C54.8312 26.904 54.3632 26.964 54.0272 26.964C53.8112 26.964 53.5472 26.94 53.2352 26.892C52.9472 26.844 52.6712 26.772 52.4072 26.676C52.1432 26.556 51.9152 26.4 51.7232 26.208C51.5312 26.016 51.4352 25.776 51.4352 25.488V25.308C50.8112 25.836 50.1992 26.256 49.5992 26.568C48.9992 26.856 48.2792 27 47.4392 27C46.6472 27 45.9752 26.796 45.4232 26.388C44.8712 25.98 44.5952 25.344 44.5952 24.48C44.5952 23.472 44.8112 22.536 45.2432 21.672C45.6752 20.784 46.2512 20.028 46.9712 19.404C47.6912 18.78 48.5072 18.288 49.4192 17.928C50.3312 17.568 51.2792 17.388 52.2632 17.388C53.0552 17.388 53.8472 17.52 54.6392 17.784ZM52.6952 18.396C52.1432 18.396 51.6392 18.516 51.1832 18.756C50.7512 18.972 50.3672 19.26 50.0312 19.62C49.7192 19.98 49.4432 20.388 49.2032 20.844C48.9872 21.3 48.8072 21.768 48.6632 22.248C48.5912 22.512 48.5192 22.812 48.4472 23.148C48.3752 23.46 48.3392 23.76 48.3392 24.048C48.3392 24.312 48.3872 24.54 48.4832 24.732C48.5792 24.924 48.7712 25.02 49.0592 25.02C49.2272 25.02 49.4672 24.948 49.7792 24.804C50.1152 24.66 50.4512 24.492 50.7872 24.3C51.1232 24.108 51.4232 23.904 51.6872 23.688C51.9752 23.472 52.1792 23.292 52.2992 23.148C52.7072 22.596 53.0072 21.996 53.1992 21.348C53.4152 20.7 53.6792 20.076 53.9912 19.476C53.8712 19.188 53.7032 18.936 53.4872 18.72C53.2952 18.504 53.0312 18.396 52.6952 18.396ZM69.913 25.56C68.737 26.472 67.573 27.096 66.421 27.432C65.293 27.768 63.997 27.936 62.533 27.936C62.173 27.936 61.729 27.9 61.201 27.828C60.697 27.756 60.205 27.624 59.725 27.432C59.269 27.24 58.873 26.988 58.537 26.676C58.201 26.34 58.033 25.92 58.033 25.416C58.033 24.6 58.201 23.94 58.537 23.436C58.873 22.908 59.305 22.5 59.833 22.212C60.385 21.924 60.997 21.732 61.669 21.636C62.341 21.54 63.013 21.492 63.685 21.492C64.717 21.492 65.737 21.576 66.745 21.744C67.777 21.888 68.797 22.08 69.805 22.32C70.261 21.552 70.693 20.772 71.101 19.98C71.509 19.164 71.881 18.336 72.217 17.496C72.697 16.344 73.141 15.18 73.549 14.004C73.981 12.804 74.449 11.628 74.953 10.476C75.409 9.396 75.925 8.34 76.501 7.308C77.101 6.276 77.785 5.352 78.553 4.536C79.321 3.696 80.209 3.024 81.217 2.52C82.225 2.016 83.389 1.764 84.709 1.764C85.645 1.764 86.365 1.98 86.869 2.412C87.397 2.844 87.841 3.468 88.201 4.284C88.033 4.452 87.817 4.644 87.553 4.86C87.313 5.052 87.049 5.232 86.761 5.4C86.497 5.568 86.221 5.712 85.933 5.832C85.645 5.952 85.381 6.012 85.141 6.012H85.033C84.865 5.484 84.589 4.968 84.205 4.464C83.845 3.96 83.353 3.708 82.729 3.708C82.321 3.708 81.889 4.032 81.433 4.68C81.001 5.328 80.593 6.084 80.209 6.948C79.825 7.788 79.477 8.616 79.165 9.432C78.877 10.248 78.673 10.824 78.553 11.16C78.097 12.36 77.689 13.464 77.329 14.472C76.993 15.48 76.621 16.452 76.213 17.388C75.805 18.324 75.313 19.26 74.737 20.196C74.185 21.108 73.465 22.068 72.577 23.076C73.249 23.34 73.957 23.616 74.701 23.904C75.445 24.168 76.201 24.42 76.969 24.66C77.737 24.9 78.505 25.092 79.273 25.236C80.065 25.38 80.821 25.452 81.541 25.452C82.333 25.452 83.017 25.344 83.593 25.128C84.169 24.888 84.661 24.636 85.069 24.372C85.501 24.108 85.873 23.868 86.185 23.652C86.521 23.412 86.833 23.292 87.121 23.292C87.289 23.292 87.373 23.4 87.373 23.616C87.373 23.76 87.361 23.868 87.337 23.94C86.761 24.636 86.113 25.236 85.393 25.74C84.697 26.22 83.941 26.616 83.125 26.928C82.333 27.24 81.505 27.468 80.641 27.612C79.777 27.78 78.913 27.864 78.049 27.864C76.609 27.864 75.193 27.672 73.801 27.288C72.409 26.904 71.113 26.328 69.913 25.56ZM62.281 26.712C63.265 26.712 64.249 26.568 65.233 26.28C66.241 25.968 67.093 25.464 67.789 24.768C67.093 24.504 66.349 24.312 65.557 24.192C64.765 24.048 63.985 23.976 63.217 23.976C63.001 23.976 62.701 24.012 62.317 24.084C61.957 24.132 61.597 24.216 61.237 24.336C60.901 24.456 60.601 24.624 60.337 24.84C60.097 25.056 59.977 25.32 59.977 25.632C59.977 25.872 60.061 26.064 60.229 26.208C60.421 26.352 60.637 26.46 60.877 26.532C61.141 26.604 61.405 26.652 61.669 26.676C61.933 26.7 62.137 26.712 62.281 26.712ZM82.952 24.516C82.952 23.556 83.228 22.632 83.78 21.744C84.356 20.832 85.076 20.028 85.94 19.332C86.804 18.612 87.74 18.048 88.748 17.64C89.78 17.208 90.752 16.992 91.664 16.992C92 16.992 92.348 17.052 92.708 17.172C93.068 17.268 93.392 17.412 93.68 17.604C93.992 17.796 94.244 18.036 94.436 18.324C94.628 18.612 94.724 18.948 94.724 19.332C94.724 20.196 94.436 20.928 93.86 21.528C93.308 22.104 92.624 22.608 91.808 23.04C91.016 23.448 90.176 23.796 89.288 24.084C88.424 24.372 87.68 24.648 87.056 24.912C87.104 25.248 87.236 25.464 87.452 25.56C87.692 25.656 87.956 25.704 88.244 25.704C88.748 25.704 89.336 25.632 90.008 25.488C90.704 25.344 91.412 25.176 92.132 24.984C92.852 24.768 93.548 24.552 94.22 24.336C94.892 24.096 95.48 23.88 95.984 23.688C96.032 23.808 96.068 23.928 96.092 24.048C96.14 24.144 96.164 24.252 96.164 24.372C96.164 24.516 96.152 24.624 96.128 24.696C95.504 24.936 94.796 25.2 94.004 25.488C93.236 25.776 92.444 26.052 91.628 26.316C90.812 26.556 89.996 26.772 89.18 26.964C88.388 27.132 87.668 27.216 87.02 27.216C86.612 27.216 86.168 27.168 85.688 27.072C85.232 26.976 84.8 26.82 84.392 26.604C83.984 26.388 83.636 26.112 83.348 25.776C83.084 25.416 82.952 24.996 82.952 24.516ZM86.912 23.652C87.68 23.484 88.436 23.172 89.18 22.716C89.924 22.236 90.512 21.66 90.944 20.988C91.088 20.748 91.232 20.484 91.376 20.196C91.544 19.884 91.628 19.584 91.628 19.296C91.628 18.816 91.376 18.576 90.872 18.576C90.392 18.576 89.912 18.768 89.432 19.152C88.976 19.512 88.556 19.968 88.172 20.52C87.788 21.048 87.476 21.6 87.236 22.176C87.02 22.752 86.912 23.244 86.912 23.652ZM93.6485 24.372C93.6485 23.364 93.9485 22.416 94.5485 21.528C95.1485 20.616 95.8925 19.824 96.7805 19.152C97.6925 18.456 98.6765 17.916 99.7325 17.532C100.789 17.124 101.773 16.92 102.685 16.92C102.973 16.92 103.297 16.956 103.657 17.028C104.041 17.076 104.413 17.16 104.773 17.28C105.133 17.4 105.469 17.544 105.781 17.712C106.117 17.88 106.381 18.072 106.573 18.288C106.477 18.48 106.369 18.624 106.249 18.72C106.129 18.816 105.997 18.888 105.853 18.936C105.709 18.984 105.553 19.032 105.385 19.08C105.217 19.104 105.049 19.152 104.881 19.224C105.073 19.32 105.301 19.368 105.565 19.368C105.829 19.368 106.081 19.332 106.321 19.26C106.561 19.188 106.789 19.092 107.005 18.972C107.125 19.212 107.185 19.428 107.185 19.62C107.185 20.028 107.077 20.46 106.861 20.916C106.645 21.348 106.405 21.792 106.141 22.248C105.901 22.68 105.673 23.136 105.457 23.616C105.241 24.096 105.133 24.576 105.133 25.056H105.205C105.493 25.056 105.817 25.02 106.177 24.948C106.537 24.852 106.909 24.744 107.293 24.624C107.677 24.48 108.037 24.324 108.373 24.156C108.733 23.988 109.021 23.82 109.237 23.652C109.357 23.7 109.477 23.772 109.597 23.868C109.717 23.964 109.777 24.072 109.777 24.192C109.777 24.384 109.489 24.636 108.913 24.948C108.337 25.26 107.677 25.572 106.933 25.884C106.213 26.172 105.505 26.424 104.809 26.64C104.113 26.856 103.657 26.964 103.441 26.964C102.601 26.964 102.037 26.76 101.749 26.352C101.461 25.944 101.245 25.368 101.101 24.624C100.837 24.72 100.597 24.84 100.381 24.984C100.165 25.128 99.9605 25.296 99.7685 25.488C99.1205 26.016 98.5085 26.412 97.9325 26.676C97.3805 26.916 96.6725 27.036 95.8085 27.036C94.9685 27.036 94.3925 26.784 94.0805 26.28C93.7925 25.776 93.6485 25.14 93.6485 24.372ZM102.325 18.504C101.893 18.504 101.389 18.696 100.813 19.08C100.237 19.464 99.6725 19.932 99.1205 20.484C98.5925 21.012 98.1365 21.576 97.7525 22.176C97.3925 22.752 97.2125 23.256 97.2125 23.688C97.2125 23.976 97.3325 24.228 97.5725 24.444C97.8365 24.66 98.1125 24.768 98.4005 24.768C98.7125 24.768 99.1565 24.552 99.7325 24.12C100.309 23.688 100.885 23.184 101.461 22.608C102.037 22.032 102.529 21.456 102.937 20.88C103.369 20.28 103.585 19.836 103.585 19.548C103.585 19.236 103.441 18.984 103.153 18.792C102.889 18.6 102.613 18.504 102.325 18.504ZM111.107 17.64C111.515 17.52 111.911 17.424 112.295 17.352C112.679 17.28 113.075 17.244 113.483 17.244C113.555 17.244 113.663 17.244 113.807 17.244C113.975 17.244 114.131 17.256 114.275 17.28C114.419 17.304 114.551 17.352 114.671 17.424C114.791 17.472 114.851 17.556 114.851 17.676C114.851 17.724 114.815 17.82 114.743 17.964C114.671 18.108 114.587 18.276 114.491 18.468C114.395 18.66 114.299 18.852 114.203 19.044C114.107 19.212 114.047 19.344 114.023 19.44C114.311 19.44 114.611 19.332 114.923 19.116C115.235 18.876 115.547 18.612 115.859 18.324C116.171 18.036 116.483 17.784 116.795 17.568C117.131 17.328 117.479 17.208 117.839 17.208C118.175 17.208 118.439 17.232 118.631 17.28C118.847 17.328 119.075 17.496 119.315 17.784C119.411 18.048 119.459 18.348 119.459 18.684C119.459 19.284 119.315 19.824 119.027 20.304C118.763 20.784 118.403 21.204 117.947 21.564C117.515 21.9 117.023 22.164 116.471 22.356C115.919 22.524 115.367 22.608 114.815 22.608C114.743 22.608 114.623 22.572 114.455 22.5C114.311 22.428 114.239 22.344 114.239 22.248C114.239 22.032 114.371 21.792 114.635 21.528C114.899 21.24 115.031 20.928 115.031 20.592C114.695 20.76 114.335 21.012 113.951 21.348C113.567 21.684 113.207 22.068 112.871 22.5C112.535 22.932 112.259 23.376 112.043 23.832C111.827 24.288 111.719 24.708 111.719 25.092C111.719 25.356 111.863 25.524 112.151 25.596C112.439 25.644 112.679 25.668 112.871 25.668C113.615 25.668 114.371 25.584 115.139 25.416C115.907 25.224 116.639 25.032 117.335 24.84C117.599 24.768 117.875 24.684 118.163 24.588C118.475 24.492 118.763 24.432 119.027 24.408H119.207C119.303 24.408 119.447 24.432 119.639 24.48C119.855 24.504 119.963 24.588 119.963 24.732C119.963 24.924 119.843 25.08 119.603 25.2C119.363 25.296 119.183 25.368 119.063 25.416C117.431 25.944 115.811 26.388 114.203 26.748C112.619 27.108 110.963 27.288 109.235 27.288C108.827 27.288 108.491 27.228 108.227 27.108C107.963 26.988 107.831 26.688 107.831 26.208C107.831 26.136 107.843 26.064 107.867 25.992C107.867 25.92 107.867 25.848 107.867 25.776C107.891 25.608 107.975 25.32 108.119 24.912C108.239 24.48 108.407 24 108.623 23.472C108.839 22.92 109.067 22.344 109.307 21.744C109.547 21.12 109.787 20.532 110.027 19.98C110.267 19.428 110.483 18.948 110.675 18.54C110.867 18.108 111.011 17.808 111.107 17.64ZM116.88 26.136C116.88 25.992 116.988 25.68 117.204 25.2C117.396 24.696 117.636 24.12 117.924 23.472C118.236 22.824 118.572 22.14 118.932 21.42C119.316 20.7 119.676 20.04 120.012 19.44C120.348 18.816 120.648 18.3 120.912 17.892C121.2 17.484 121.392 17.268 121.488 17.244C121.68 17.196 121.884 17.172 122.1 17.172C122.316 17.148 122.52 17.136 122.712 17.136C123.312 17.136 123.924 17.172 124.548 17.244C124.356 18.108 124.056 18.936 123.648 19.728C123.24 20.496 122.868 21.288 122.532 22.104C122.94 21.744 123.432 21.288 124.008 20.736C124.608 20.16 125.232 19.608 125.88 19.08C126.528 18.552 127.176 18.108 127.824 17.748C128.496 17.364 129.12 17.172 129.696 17.172C130.104 17.172 130.452 17.316 130.74 17.604C131.052 17.868 131.208 18.204 131.208 18.612C131.208 19.116 131.088 19.644 130.848 20.196C130.608 20.724 130.344 21.252 130.056 21.78C129.768 22.308 129.504 22.824 129.264 23.328C129.024 23.832 128.904 24.3 128.904 24.732C128.904 24.852 128.94 24.924 129.012 24.948C129.084 24.972 129.156 24.984 129.228 24.984C129.444 24.984 129.732 24.924 130.092 24.804C130.476 24.66 130.872 24.492 131.28 24.3C131.688 24.108 132.072 23.928 132.432 23.76C132.816 23.568 133.116 23.412 133.332 23.292C133.452 23.532 133.512 23.748 133.512 23.94C133.512 24.108 133.464 24.24 133.368 24.336C132.792 24.648 132.204 24.96 131.604 25.272C131.028 25.584 130.428 25.86 129.804 26.1C129.204 26.34 128.58 26.544 127.932 26.712C127.308 26.856 126.66 26.928 125.988 26.928C125.652 26.928 125.376 26.772 125.16 26.46C124.944 26.124 124.836 25.812 124.836 25.524C124.836 25.26 124.92 24.912 125.088 24.48C125.28 24.048 125.496 23.592 125.736 23.112C125.976 22.608 126.204 22.116 126.42 21.636C126.66 21.156 126.816 20.736 126.888 20.376C126.792 20.376 126.528 20.532 126.096 20.844C125.664 21.156 125.184 21.504 124.656 21.888C124.152 22.272 123.672 22.644 123.216 23.004C122.76 23.364 122.46 23.604 122.316 23.724C122.052 23.94 121.824 24.204 121.632 24.516C121.44 24.828 121.26 25.14 121.092 25.452C120.924 25.74 120.756 26.016 120.588 26.28C120.42 26.544 120.24 26.748 120.048 26.892C119.88 26.94 119.712 26.964 119.544 26.964C119.4 26.964 119.244 26.964 119.076 26.964C119.004 26.964 118.872 26.964 118.68 26.964C118.512 26.964 118.32 26.964 118.104 26.964C117.912 26.964 117.732 26.964 117.564 26.964C117.396 26.94 117.288 26.916 117.24 26.892C117 26.7 116.88 26.448 116.88 26.136ZM4.498 40.56C4.13867 40.8387 3.783 41.0293 3.431 41.132C3.08633 41.2347 2.69033 41.286 2.243 41.286C2.133 41.286 1.99733 41.275 1.836 41.253C1.682 41.231 1.53167 41.1907 1.385 41.132C1.24567 41.0733 1.12467 40.9963 1.022 40.901C0.919333 40.7983 0.868 40.67 0.868 40.516C0.868 40.2667 0.919333 40.065 1.022 39.911C1.12467 39.7497 1.25667 39.625 1.418 39.537C1.58667 39.449 1.77367 39.3903 1.979 39.361C2.18433 39.3317 2.38967 39.317 2.595 39.317C2.91033 39.317 3.222 39.3427 3.53 39.394C3.84533 39.438 4.157 39.4967 4.465 39.57C4.60433 39.3353 4.73633 39.097 4.861 38.855C4.98567 38.6057 5.09933 38.3527 5.202 38.096C5.34867 37.744 5.48433 37.3883 5.609 37.029C5.741 36.6623 5.884 36.303 6.038 35.951C6.17733 35.621 6.335 35.2983 6.511 34.983C6.69433 34.6677 6.90333 34.3853 7.138 34.136C7.37267 33.8793 7.644 33.674 7.952 33.52C8.26 33.366 8.61567 33.289 9.019 33.289C9.305 33.289 9.525 33.355 9.679 33.487C9.84033 33.619 9.976 33.8097 10.086 34.059C10.0347 34.1103 9.96867 34.169 9.888 34.235C9.81467 34.2937 9.734 34.3487 9.646 34.4C9.56533 34.4513 9.481 34.4953 9.393 34.532C9.305 34.5687 9.22433 34.587 9.151 34.587H9.118C9.06667 34.4257 8.98233 34.268 8.865 34.114C8.755 33.96 8.60467 33.883 8.414 33.883C8.28933 33.883 8.15733 33.982 8.018 34.18C7.886 34.378 7.76133 34.609 7.644 34.873C7.52667 35.1297 7.42033 35.3827 7.325 35.632C7.237 35.8813 7.17467 36.0573 7.138 36.16C6.99867 36.5267 6.874 36.864 6.764 37.172C6.66133 37.48 6.54767 37.777 6.423 38.063C6.29833 38.349 6.148 38.635 5.972 38.921C5.80333 39.1997 5.58333 39.493 5.312 39.801C5.51733 39.8817 5.73367 39.966 5.961 40.054C6.18833 40.1347 6.41933 40.2117 6.654 40.285C6.88867 40.3583 7.12333 40.417 7.358 40.461C7.6 40.505 7.831 40.527 8.051 40.527C8.293 40.527 8.502 40.494 8.678 40.428C8.854 40.3547 9.00433 40.2777 9.129 40.197C9.261 40.1163 9.37467 40.043 9.47 39.977C9.57267 39.9037 9.668 39.867 9.756 39.867C9.80733 39.867 9.833 39.9 9.833 39.966C9.833 40.01 9.82933 40.043 9.822 40.065C9.646 40.2777 9.448 40.461 9.228 40.615C9.01533 40.7617 8.78433 40.8827 8.535 40.978C8.293 41.0733 8.04 41.143 7.776 41.187C7.512 41.2383 7.248 41.264 6.984 41.264C6.544 41.264 6.11133 41.2053 5.686 41.088C5.26067 40.9707 4.86467 40.7947 4.498 40.56ZM2.166 40.912C2.46667 40.912 2.76733 40.868 3.068 40.78C3.376 40.6847 3.63633 40.5307 3.849 40.318C3.63633 40.2373 3.409 40.1787 3.167 40.142C2.925 40.098 2.68667 40.076 2.452 40.076C2.386 40.076 2.29433 40.087 2.177 40.109C2.067 40.1237 1.957 40.1493 1.847 40.186C1.74433 40.2227 1.65267 40.274 1.572 40.34C1.49867 40.406 1.462 40.4867 1.462 40.582C1.462 40.6553 1.48767 40.714 1.539 40.758C1.59767 40.802 1.66367 40.835 1.737 40.857C1.81767 40.879 1.89833 40.8937 1.979 40.901C2.05967 40.9083 2.122 40.912 2.166 40.912ZM8.48215 40.241C8.48215 39.9477 8.56648 39.6653 8.73515 39.394C8.91115 39.1153 9.13115 38.8697 9.39515 38.657C9.65915 38.437 9.94515 38.2647 10.2531 38.14C10.5685 38.008 10.8655 37.942 11.1441 37.942C11.2468 37.942 11.3531 37.9603 11.4631 37.997C11.5731 38.0263 11.6721 38.0703 11.7601 38.129C11.8555 38.1877 11.9325 38.261 11.9911 38.349C12.0498 38.437 12.0791 38.5397 12.0791 38.657C12.0791 38.921 11.9911 39.1447 11.8151 39.328C11.6465 39.504 11.4375 39.658 11.1881 39.79C10.9461 39.9147 10.6895 40.021 10.4181 40.109C10.1541 40.197 9.92682 40.2813 9.73615 40.362C9.75082 40.4647 9.79115 40.5307 9.85715 40.56C9.93048 40.5893 10.0111 40.604 10.0991 40.604C10.2531 40.604 10.4328 40.582 10.6381 40.538C10.8508 40.494 11.0671 40.4427 11.2871 40.384C11.5071 40.318 11.7198 40.252 11.9251 40.186C12.1305 40.1127 12.3101 40.0467 12.4641 39.988C12.4788 40.0247 12.4898 40.0613 12.4971 40.098C12.5118 40.1273 12.5191 40.1603 12.5191 40.197C12.5191 40.241 12.5155 40.274 12.5081 40.296C12.3175 40.3693 12.1011 40.45 11.8591 40.538C11.6245 40.626 11.3825 40.7103 11.1331 40.791C10.8838 40.8643 10.6345 40.9303 10.3851 40.989C10.1431 41.0403 9.92315 41.066 9.72515 41.066C9.60048 41.066 9.46482 41.0513 9.31815 41.022C9.17882 40.9927 9.04682 40.945 8.92215 40.879C8.79748 40.813 8.69115 40.7287 8.60315 40.626C8.52248 40.516 8.48215 40.3877 8.48215 40.241ZM9.69215 39.977C9.92682 39.9257 10.1578 39.8303 10.3851 39.691C10.6125 39.5443 10.7921 39.3683 10.9241 39.163C10.9681 39.0897 11.0121 39.009 11.0561 38.921C11.1075 38.8257 11.1331 38.734 11.1331 38.646C11.1331 38.4993 11.0561 38.426 10.9021 38.426C10.7555 38.426 10.6088 38.4847 10.4621 38.602C10.3228 38.712 10.1945 38.8513 10.0771 39.02C9.95982 39.1813 9.86448 39.35 9.79115 39.526C9.72515 39.702 9.69215 39.8523 9.69215 39.977ZM11.7505 40.197C11.7505 39.889 11.8422 39.5993 12.0255 39.328C12.2089 39.0493 12.4362 38.8073 12.7075 38.602C12.9862 38.3893 13.2869 38.2243 13.6095 38.107C13.9322 37.9823 14.2329 37.92 14.5115 37.92C14.5995 37.92 14.6985 37.931 14.8085 37.953C14.9259 37.9677 15.0395 37.9933 15.1495 38.03C15.2595 38.0667 15.3622 38.1107 15.4575 38.162C15.5602 38.2133 15.6409 38.272 15.6995 38.338C15.6702 38.3967 15.6372 38.4407 15.6005 38.47C15.5639 38.4993 15.5235 38.5213 15.4795 38.536C15.4355 38.5507 15.3879 38.5653 15.3365 38.58C15.2852 38.5873 15.2339 38.602 15.1825 38.624C15.2412 38.6533 15.3109 38.668 15.3915 38.668C15.4722 38.668 15.5492 38.657 15.6225 38.635C15.6959 38.613 15.7655 38.5837 15.8315 38.547C15.8682 38.6203 15.8865 38.6863 15.8865 38.745C15.8865 38.8697 15.8535 39.0017 15.7875 39.141C15.7215 39.273 15.6482 39.4087 15.5675 39.548C15.4942 39.68 15.4245 39.8193 15.3585 39.966C15.2925 40.1127 15.2595 40.2593 15.2595 40.406H15.2815C15.3695 40.406 15.4685 40.395 15.5785 40.373C15.6885 40.3437 15.8022 40.3107 15.9195 40.274C16.0369 40.23 16.1469 40.1823 16.2495 40.131C16.3595 40.0797 16.4475 40.0283 16.5135 39.977C16.5502 39.9917 16.5869 40.0137 16.6235 40.043C16.6602 40.0723 16.6785 40.1053 16.6785 40.142C16.6785 40.2007 16.5905 40.2777 16.4145 40.373C16.2385 40.4683 16.0369 40.5637 15.8095 40.659C15.5895 40.747 15.3732 40.824 15.1605 40.89C14.9479 40.956 14.8085 40.989 14.7425 40.989C14.4859 40.989 14.3135 40.9267 14.2255 40.802C14.1375 40.6773 14.0715 40.5013 14.0275 40.274C13.9469 40.3033 13.8735 40.34 13.8075 40.384C13.7415 40.428 13.6792 40.4793 13.6205 40.538C13.4225 40.6993 13.2355 40.8203 13.0595 40.901C12.8909 40.9743 12.6745 41.011 12.4105 41.011C12.1539 41.011 11.9779 40.934 11.8825 40.78C11.7945 40.626 11.7505 40.4317 11.7505 40.197ZM14.4015 38.404C14.2695 38.404 14.1155 38.4627 13.9395 38.58C13.7635 38.6973 13.5912 38.8403 13.4225 39.009C13.2612 39.1703 13.1219 39.3427 13.0045 39.526C12.8945 39.702 12.8395 39.856 12.8395 39.988C12.8395 40.076 12.8762 40.153 12.9495 40.219C13.0302 40.285 13.1145 40.318 13.2025 40.318C13.2979 40.318 13.4335 40.252 13.6095 40.12C13.7855 39.988 13.9615 39.834 14.1375 39.658C14.3135 39.482 14.4639 39.306 14.5885 39.13C14.7205 38.9467 14.7865 38.811 14.7865 38.723C14.7865 38.6277 14.7425 38.5507 14.6545 38.492C14.5739 38.4333 14.4895 38.404 14.4015 38.404ZM17.0852 38.14C17.2098 38.1033 17.3308 38.074 17.4482 38.052C17.5655 38.03 17.6865 38.019 17.8112 38.019C17.8332 38.019 17.8662 38.019 17.9102 38.019C17.9615 38.019 18.0092 38.0227 18.0532 38.03C18.0972 38.0373 18.1375 38.052 18.1742 38.074C18.2108 38.0887 18.2292 38.1143 18.2292 38.151C18.2292 38.1657 18.2182 38.195 18.1962 38.239C18.1742 38.283 18.1485 38.3343 18.1192 38.393C18.0898 38.4517 18.0605 38.5103 18.0312 38.569C18.0018 38.6203 17.9835 38.6607 17.9762 38.69C18.0642 38.69 18.1558 38.657 18.2512 38.591C18.3465 38.5177 18.4418 38.437 18.5372 38.349C18.6325 38.261 18.7278 38.184 18.8232 38.118C18.9258 38.0447 19.0322 38.008 19.1422 38.008C19.2448 38.008 19.3255 38.0153 19.3842 38.03C19.4502 38.0447 19.5198 38.096 19.5932 38.184C19.6225 38.2647 19.6372 38.3563 19.6372 38.459C19.6372 38.6423 19.5932 38.8073 19.5052 38.954C19.4245 39.1007 19.3145 39.229 19.1752 39.339C19.0432 39.4417 18.8928 39.5223 18.7242 39.581C18.5555 39.6323 18.3868 39.658 18.2182 39.658C18.1962 39.658 18.1595 39.647 18.1082 39.625C18.0642 39.603 18.0422 39.5773 18.0422 39.548C18.0422 39.482 18.0825 39.4087 18.1632 39.328C18.2438 39.24 18.2842 39.1447 18.2842 39.042C18.1815 39.0933 18.0715 39.1703 17.9542 39.273C17.8368 39.3757 17.7268 39.493 17.6242 39.625C17.5215 39.757 17.4372 39.8927 17.3712 40.032C17.3052 40.1713 17.2722 40.2997 17.2722 40.417C17.2722 40.4977 17.3162 40.549 17.4042 40.571C17.4922 40.5857 17.5655 40.593 17.6242 40.593C17.8515 40.593 18.0825 40.5673 18.3172 40.516C18.5518 40.4573 18.7755 40.3987 18.9882 40.34C19.0688 40.318 19.1532 40.2923 19.2412 40.263C19.3365 40.2337 19.4245 40.2153 19.5052 40.208H19.5602C19.5895 40.208 19.6335 40.2153 19.6922 40.23C19.7582 40.2373 19.7912 40.263 19.7912 40.307C19.7912 40.3657 19.7545 40.4133 19.6812 40.45C19.6078 40.4793 19.5528 40.5013 19.5162 40.516C19.0175 40.6773 18.5225 40.813 18.0312 40.923C17.5472 41.033 17.0412 41.088 16.5132 41.088C16.3885 41.088 16.2858 41.0697 16.2052 41.033C16.1245 40.9963 16.0842 40.9047 16.0842 40.758C16.0842 40.736 16.0878 40.714 16.0952 40.692C16.0952 40.67 16.0952 40.648 16.0952 40.626C16.1025 40.5747 16.1282 40.4867 16.1722 40.362C16.2088 40.23 16.2602 40.0833 16.3262 39.922C16.3922 39.7533 16.4618 39.5773 16.5352 39.394C16.6085 39.2033 16.6818 39.0237 16.7552 38.855C16.8285 38.6863 16.8945 38.5397 16.9532 38.415C17.0118 38.283 17.0558 38.1913 17.0852 38.14ZM18.849 40.736C18.849 40.692 18.882 40.5967 18.948 40.45C19.0066 40.296 19.08 40.12 19.168 39.922C19.2633 39.724 19.366 39.515 19.476 39.295C19.5933 39.075 19.7033 38.8733 19.806 38.69C19.9086 38.4993 20.0003 38.3417 20.081 38.217C20.169 38.0923 20.2276 38.0263 20.257 38.019C20.3156 38.0043 20.378 37.997 20.444 37.997C20.51 37.9897 20.5723 37.986 20.631 37.986C20.8143 37.986 21.0013 37.997 21.192 38.019C21.1333 38.283 21.0416 38.536 20.917 38.778C20.7923 39.0127 20.6786 39.2547 20.576 39.504C20.7006 39.394 20.851 39.2547 21.027 39.086C21.2103 38.91 21.401 38.7413 21.599 38.58C21.797 38.4187 21.995 38.283 22.193 38.173C22.3983 38.0557 22.589 37.997 22.765 37.997C22.8896 37.997 22.996 38.041 23.084 38.129C23.1793 38.2097 23.227 38.3123 23.227 38.437C23.227 38.591 23.1903 38.7523 23.117 38.921C23.0436 39.0823 22.963 39.2437 22.875 39.405C22.787 39.5663 22.7063 39.724 22.633 39.878C22.5596 40.032 22.523 40.175 22.523 40.307C22.523 40.3437 22.534 40.3657 22.556 40.373C22.578 40.3803 22.6 40.384 22.622 40.384C22.688 40.384 22.776 40.3657 22.886 40.329C23.0033 40.285 23.1243 40.2337 23.249 40.175C23.3736 40.1163 23.491 40.0613 23.601 40.01C23.7183 39.9513 23.81 39.9037 23.876 39.867C23.9126 39.9403 23.931 40.0063 23.931 40.065C23.931 40.1163 23.9163 40.1567 23.887 40.186C23.711 40.2813 23.5313 40.3767 23.348 40.472C23.172 40.5673 22.9886 40.6517 22.798 40.725C22.6146 40.7983 22.424 40.8607 22.226 40.912C22.0353 40.956 21.8373 40.978 21.632 40.978C21.5293 40.978 21.445 40.9303 21.379 40.835C21.313 40.7323 21.28 40.637 21.28 40.549C21.28 40.4683 21.3056 40.362 21.357 40.23C21.4156 40.098 21.4816 39.9587 21.555 39.812C21.6283 39.658 21.698 39.5077 21.764 39.361C21.8373 39.2143 21.885 39.086 21.907 38.976C21.8776 38.976 21.797 39.0237 21.665 39.119C21.533 39.2143 21.3863 39.3207 21.225 39.438C21.071 39.5553 20.9243 39.669 20.785 39.779C20.6456 39.889 20.554 39.9623 20.51 39.999C20.4293 40.065 20.3596 40.1457 20.301 40.241C20.2423 40.3363 20.1873 40.4317 20.136 40.527C20.0846 40.615 20.0333 40.6993 19.982 40.78C19.9306 40.8607 19.8756 40.923 19.817 40.967C19.7656 40.9817 19.7143 40.989 19.663 40.989C19.619 40.989 19.5713 40.989 19.52 40.989C19.498 40.989 19.4576 40.989 19.399 40.989C19.3476 40.989 19.289 40.989 19.223 40.989C19.1643 40.989 19.1093 40.989 19.058 40.989C19.0066 40.9817 18.9736 40.9743 18.959 40.967C18.8856 40.9083 18.849 40.8313 18.849 40.736ZM23.4471 40.439C23.4471 40.351 23.4911 40.1897 23.5791 39.955C23.6671 39.713 23.7698 39.4637 23.8871 39.207C24.0118 38.943 24.1328 38.7047 24.2501 38.492C24.3748 38.2793 24.4738 38.1547 24.5471 38.118C24.6351 38.0813 24.7525 38.052 24.8991 38.03C25.0531 38.0007 25.1815 37.986 25.2841 37.986C25.3428 37.986 25.3978 37.9897 25.4491 37.997C25.5005 38.0043 25.5481 38.019 25.5921 38.041C25.5701 38.1437 25.5371 38.25 25.4931 38.36C25.4491 38.4627 25.4051 38.5653 25.3611 38.668C25.2805 38.8513 25.1961 39.0347 25.1081 39.218C25.0201 39.394 24.9321 39.5737 24.8441 39.757C24.7928 39.8597 24.7415 39.966 24.6901 40.076C24.6388 40.1787 24.5948 40.2813 24.5581 40.384L24.6681 40.45C24.7855 40.45 24.8991 40.428 25.0091 40.384C25.1265 40.34 25.2438 40.2923 25.3611 40.241C25.4785 40.1823 25.5921 40.131 25.7021 40.087C25.8195 40.0357 25.9405 40.01 26.0651 40.01C26.0871 40.0247 26.1128 40.0393 26.1421 40.054C26.1715 40.0687 26.1861 40.0943 26.1861 40.131C26.1861 40.153 26.1825 40.1713 26.1751 40.186C26.1605 40.2227 26.1018 40.2703 25.9991 40.329C25.8965 40.3803 25.7718 40.439 25.6251 40.505C25.4858 40.5637 25.3281 40.6223 25.1521 40.681C24.9835 40.7397 24.8221 40.7947 24.6681 40.846C24.5141 40.8973 24.3748 40.9377 24.2501 40.967C24.1255 40.9963 24.0411 41.011 23.9971 41.011C23.7845 41.011 23.6378 40.967 23.5571 40.879C23.4838 40.791 23.4471 40.6443 23.4471 40.439ZM25.0751 36.809C25.0751 36.7063 25.0971 36.589 25.1411 36.457C25.1851 36.325 25.2438 36.204 25.3171 36.094C25.3905 35.9767 25.4785 35.8813 25.5811 35.808C25.6838 35.7273 25.7975 35.687 25.9221 35.687C26.0688 35.687 26.1751 35.7457 26.2411 35.863C26.3071 35.9803 26.3401 36.1013 26.3401 36.226C26.3401 36.336 26.3181 36.457 26.2741 36.589C26.2301 36.7137 26.1678 36.831 26.0871 36.941C26.0138 37.051 25.9221 37.1427 25.8121 37.216C25.7095 37.2893 25.5995 37.326 25.4821 37.326C25.3355 37.326 25.2291 37.271 25.1631 37.161C25.1045 37.051 25.0751 36.9337 25.0751 36.809ZM25.5203 40.736C25.5203 40.692 25.5533 40.5967 25.6193 40.45C25.678 40.296 25.7513 40.12 25.8393 39.922C25.9346 39.724 26.0373 39.515 26.1473 39.295C26.2646 39.075 26.3746 38.8733 26.4773 38.69C26.58 38.4993 26.6716 38.3417 26.7523 38.217C26.8403 38.0923 26.899 38.0263 26.9283 38.019C26.987 38.0043 27.0493 37.997 27.1153 37.997C27.1813 37.9897 27.2436 37.986 27.3023 37.986C27.4856 37.986 27.6726 37.997 27.8633 38.019C27.8046 38.283 27.713 38.536 27.5883 38.778C27.4636 39.0127 27.35 39.2547 27.2473 39.504C27.372 39.394 27.5223 39.2547 27.6983 39.086C27.8816 38.91 28.0723 38.7413 28.2703 38.58C28.4683 38.4187 28.6663 38.283 28.8643 38.173C29.0696 38.0557 29.2603 37.997 29.4363 37.997C29.561 37.997 29.6673 38.041 29.7553 38.129C29.8506 38.2097 29.8983 38.3123 29.8983 38.437C29.8983 38.591 29.8616 38.7523 29.7883 38.921C29.715 39.0823 29.6343 39.2437 29.5463 39.405C29.4583 39.5663 29.3776 39.724 29.3043 39.878C29.231 40.032 29.1943 40.175 29.1943 40.307C29.1943 40.3437 29.2053 40.3657 29.2273 40.373C29.2493 40.3803 29.2713 40.384 29.2933 40.384C29.3593 40.384 29.4473 40.3657 29.5573 40.329C29.6746 40.285 29.7956 40.2337 29.9203 40.175C30.045 40.1163 30.1623 40.0613 30.2723 40.01C30.3896 39.9513 30.4813 39.9037 30.5473 39.867C30.584 39.9403 30.6023 40.0063 30.6023 40.065C30.6023 40.1163 30.5876 40.1567 30.5583 40.186C30.3823 40.2813 30.2026 40.3767 30.0193 40.472C29.8433 40.5673 29.66 40.6517 29.4693 40.725C29.286 40.7983 29.0953 40.8607 28.8973 40.912C28.7066 40.956 28.5086 40.978 28.3033 40.978C28.2006 40.978 28.1163 40.9303 28.0503 40.835C27.9843 40.7323 27.9513 40.637 27.9513 40.549C27.9513 40.4683 27.977 40.362 28.0283 40.23C28.087 40.098 28.153 39.9587 28.2263 39.812C28.2996 39.658 28.3693 39.5077 28.4353 39.361C28.5086 39.2143 28.5563 39.086 28.5783 38.976C28.549 38.976 28.4683 39.0237 28.3363 39.119C28.2043 39.2143 28.0576 39.3207 27.8963 39.438C27.7423 39.5553 27.5956 39.669 27.4563 39.779C27.317 39.889 27.2253 39.9623 27.1813 39.999C27.1006 40.065 27.031 40.1457 26.9723 40.241C26.9136 40.3363 26.8586 40.4317 26.8073 40.527C26.756 40.615 26.7046 40.6993 26.6533 40.78C26.602 40.8607 26.547 40.923 26.4883 40.967C26.437 40.9817 26.3856 40.989 26.3343 40.989C26.2903 40.989 26.2426 40.989 26.1913 40.989C26.1693 40.989 26.129 40.989 26.0703 40.989C26.019 40.989 25.9603 40.989 25.8943 40.989C25.8356 40.989 25.7806 40.989 25.7293 40.989C25.678 40.9817 25.645 40.9743 25.6303 40.967C25.557 40.9083 25.5203 40.8313 25.5203 40.736ZM30.0745 40.285C30.0745 40.2263 30.0781 40.1677 30.0855 40.109C30.0928 40.0503 30.1075 39.9917 30.1295 39.933C30.3641 39.2657 30.7455 38.7817 31.2735 38.481C31.8015 38.1803 32.4065 38.03 33.0885 38.03C33.2351 38.03 33.3965 38.0557 33.5725 38.107C33.7485 38.151 33.8951 38.2133 34.0125 38.294C34.0565 38.36 34.1005 38.4297 34.1445 38.503C34.1885 38.569 34.2361 38.635 34.2875 38.701C34.2875 38.7157 34.2875 38.7303 34.2875 38.745C34.2948 38.7523 34.2985 38.7633 34.2985 38.778C34.2985 38.844 34.2581 38.9577 34.1775 39.119C34.1041 39.2803 34.0235 39.4527 33.9355 39.636C33.8475 39.812 33.7631 39.977 33.6825 40.131C33.6091 40.285 33.5725 40.3877 33.5725 40.439C33.5725 40.4537 33.5761 40.461 33.5835 40.461C33.5981 40.461 33.6091 40.4647 33.6165 40.472C33.6311 40.4793 33.6458 40.483 33.6605 40.483C33.7338 40.483 33.8255 40.461 33.9355 40.417C34.0528 40.3657 34.1701 40.3107 34.2875 40.252C34.4048 40.186 34.5148 40.131 34.6175 40.087C34.7201 40.0357 34.7935 40.01 34.8375 40.01C34.8595 40.01 34.8888 40.0503 34.9255 40.131C34.9695 40.2043 34.9988 40.2483 35.0135 40.263C34.9548 40.307 34.8851 40.3437 34.8045 40.373C34.7238 40.4023 34.6505 40.4353 34.5845 40.472C34.3938 40.5527 34.2031 40.6297 34.0125 40.703C33.8218 40.7763 33.6311 40.8533 33.4405 40.934C33.4185 40.9413 33.3891 40.9817 33.3525 41.055C33.3158 41.1283 33.2755 41.209 33.2315 41.297C33.1875 41.385 33.1435 41.4693 33.0995 41.55C33.0628 41.638 33.0371 41.6967 33.0225 41.726C32.9125 41.9167 32.7805 42.0963 32.6265 42.265C32.4725 42.441 32.3001 42.595 32.1095 42.727C31.9261 42.859 31.7281 42.9617 31.5155 43.035C31.3028 43.1157 31.0828 43.156 30.8555 43.156C30.7455 43.156 30.6501 43.1523 30.5695 43.145C30.4961 43.145 30.4375 43.1267 30.3935 43.09C30.3495 43.0607 30.3165 43.013 30.2945 42.947C30.2725 42.881 30.2615 42.7857 30.2615 42.661C30.2615 42.4483 30.3055 42.2687 30.3935 42.122C30.4888 41.9753 30.6061 41.847 30.7455 41.737C30.8921 41.627 31.0498 41.5317 31.2185 41.451C31.3871 41.3703 31.5521 41.2933 31.7135 41.22C31.7941 41.1833 31.8785 41.143 31.9665 41.099C32.0618 41.055 32.1425 41.0037 32.2085 40.945C32.2305 40.9303 32.2525 40.8937 32.2745 40.835C32.3038 40.769 32.3295 40.6993 32.3515 40.626C32.3735 40.5527 32.3955 40.483 32.4175 40.417C32.4395 40.3437 32.4615 40.2887 32.4835 40.252C32.3808 40.3473 32.2635 40.4427 32.1315 40.538C31.9995 40.6333 31.8565 40.7177 31.7025 40.791C31.5558 40.8643 31.4018 40.9267 31.2405 40.978C31.0865 41.022 30.9398 41.044 30.8005 41.044C30.5731 41.044 30.3935 40.9743 30.2615 40.835C30.1368 40.6883 30.0745 40.505 30.0745 40.285ZM32.8465 38.437C32.6925 38.437 32.5238 38.4957 32.3405 38.613C32.1571 38.7303 31.9848 38.877 31.8235 39.053C31.6695 39.2217 31.5375 39.405 31.4275 39.603C31.3248 39.7937 31.2735 39.966 31.2735 40.12C31.2735 40.2007 31.2918 40.252 31.3285 40.274C31.3725 40.296 31.4311 40.307 31.5045 40.307C31.6878 40.307 31.8675 40.2557 32.0435 40.153C32.2195 40.043 32.3845 39.9073 32.5385 39.746C32.6925 39.5847 32.8318 39.416 32.9565 39.24C33.0811 39.0567 33.1801 38.8917 33.2535 38.745C33.2168 38.6863 33.1581 38.6203 33.0775 38.547C32.9968 38.4737 32.9198 38.437 32.8465 38.437ZM32.0215 41.33C31.9261 41.352 31.8235 41.3997 31.7135 41.473C31.6035 41.5537 31.5008 41.6453 31.4055 41.748C31.3175 41.858 31.2405 41.9717 31.1745 42.089C31.1158 42.2063 31.0865 42.3127 31.0865 42.408C31.0865 42.4447 31.0938 42.474 31.1085 42.496C31.1305 42.5253 31.1598 42.54 31.1965 42.54C31.2698 42.54 31.3505 42.4887 31.4385 42.386C31.5338 42.2907 31.6181 42.1733 31.6915 42.034C31.7721 41.902 31.8418 41.7663 31.9005 41.627C31.9591 41.495 31.9995 41.396 32.0215 41.33ZM37.4349 38.305C37.4349 38.239 37.4643 38.1803 37.5229 38.129C37.5889 38.0777 37.6623 38.0337 37.7429 37.997C37.8236 37.953 37.9079 37.92 37.9959 37.898C38.0839 37.876 38.1536 37.865 38.2049 37.865C38.2636 37.865 38.3369 37.876 38.4249 37.898C38.5129 37.92 38.5643 37.964 38.5789 38.03C38.6009 38.1033 38.6193 38.195 38.6339 38.305C38.6486 38.4077 38.6596 38.5177 38.6669 38.635C38.6816 38.745 38.6926 38.855 38.6999 38.965C38.7073 39.075 38.7109 39.1667 38.7109 39.24C38.7109 39.592 38.6559 39.933 38.5459 40.263C38.6193 40.2483 38.6816 40.219 38.7329 40.175C38.7843 40.1237 38.8356 40.0723 38.8869 40.021C39.0116 39.9037 39.1216 39.7863 39.2169 39.669C39.3196 39.5443 39.3709 39.3903 39.3709 39.207C39.3709 39.0383 39.3563 38.877 39.3269 38.723C39.3049 38.5617 39.2939 38.3967 39.2939 38.228C39.2939 38.1473 39.3086 38.0813 39.3379 38.03C39.4406 37.9787 39.5763 37.9383 39.7449 37.909C39.9209 37.8797 40.0639 37.865 40.1739 37.865C40.2033 37.865 40.2326 37.8687 40.2619 37.876C40.2913 37.876 40.3243 37.8797 40.3609 37.887C40.4049 37.9017 40.4379 37.942 40.4599 38.008C40.4819 38.0667 40.4966 38.14 40.5039 38.228C40.5186 38.3087 40.5259 38.3893 40.5259 38.47C40.5259 38.5433 40.5259 38.5947 40.5259 38.624C40.5259 38.8073 40.5186 38.9907 40.5039 39.174C40.4893 39.35 40.4746 39.5297 40.4599 39.713C40.4453 39.7863 40.4306 39.8633 40.4159 39.944C40.4013 40.0247 40.3939 40.1017 40.3939 40.175C40.3939 40.2557 40.4233 40.296 40.4819 40.296C40.5479 40.296 40.6323 40.263 40.7349 40.197C40.8376 40.1237 40.9366 40.0393 41.0319 39.944C41.1346 39.8413 41.2226 39.7423 41.2959 39.647C41.3693 39.5443 41.4059 39.46 41.4059 39.394C41.4059 39.35 41.3876 39.306 41.3509 39.262C41.3143 39.2107 41.2703 39.1593 41.2189 39.108C41.1749 39.0493 41.1346 38.987 41.0979 38.921C41.0613 38.855 41.0429 38.7817 41.0429 38.701C41.0429 38.635 41.0539 38.58 41.0759 38.536C41.0979 38.4847 41.1236 38.4297 41.1529 38.371C41.2336 38.239 41.3326 38.1217 41.4499 38.019C41.5746 37.9163 41.7213 37.865 41.8899 37.865C42.0733 37.865 42.1833 37.9163 42.2199 38.019C42.2639 38.1143 42.2859 38.2353 42.2859 38.382V38.514C42.2859 38.6973 42.2456 38.888 42.1649 39.086C42.0843 39.2767 41.9743 39.4637 41.8349 39.647C41.6956 39.8303 41.5343 40.0027 41.3509 40.164C41.1749 40.3253 40.9879 40.4683 40.7899 40.593C40.5919 40.7103 40.3903 40.8057 40.1849 40.879C39.9869 40.945 39.7999 40.978 39.6239 40.978C39.5213 40.978 39.4369 40.9597 39.3709 40.923C39.3123 40.8863 39.2829 40.8093 39.2829 40.692C39.2829 40.582 39.2976 40.472 39.3269 40.362C39.3563 40.2447 39.3819 40.131 39.4039 40.021C39.2793 40.131 39.1509 40.2447 39.0189 40.362C38.8943 40.472 38.7623 40.5747 38.6229 40.67C38.4836 40.758 38.3369 40.8313 38.1829 40.89C38.0289 40.9487 37.8639 40.978 37.6879 40.978C37.6293 40.978 37.5633 40.9743 37.4899 40.967C37.4239 40.9597 37.3909 40.9157 37.3909 40.835C37.3909 40.8057 37.3946 40.78 37.4019 40.758C37.4093 40.7287 37.4166 40.6993 37.4239 40.67C37.4826 40.4573 37.5156 40.2373 37.5229 40.01C37.5303 39.7827 37.5339 39.559 37.5339 39.339C37.5339 39.2143 37.5339 39.0823 37.5339 38.943C37.5339 38.8037 37.5193 38.6717 37.4899 38.547C37.4826 38.5103 37.4716 38.47 37.4569 38.426C37.4423 38.382 37.4349 38.3417 37.4349 38.305ZM42.0805 40.439C42.0805 40.351 42.1245 40.1897 42.2125 39.955C42.3005 39.713 42.4032 39.4637 42.5205 39.207C42.6452 38.943 42.7662 38.7047 42.8835 38.492C43.0082 38.2793 43.1072 38.1547 43.1805 38.118C43.2685 38.0813 43.3859 38.052 43.5325 38.03C43.6865 38.0007 43.8149 37.986 43.9175 37.986C43.9762 37.986 44.0312 37.9897 44.0825 37.997C44.1339 38.0043 44.1815 38.019 44.2255 38.041C44.2035 38.1437 44.1705 38.25 44.1265 38.36C44.0825 38.4627 44.0385 38.5653 43.9945 38.668C43.9139 38.8513 43.8295 39.0347 43.7415 39.218C43.6535 39.394 43.5655 39.5737 43.4775 39.757C43.4262 39.8597 43.3749 39.966 43.3235 40.076C43.2722 40.1787 43.2282 40.2813 43.1915 40.384L43.3015 40.45C43.4189 40.45 43.5325 40.428 43.6425 40.384C43.7599 40.34 43.8772 40.2923 43.9945 40.241C44.1119 40.1823 44.2255 40.131 44.3355 40.087C44.4529 40.0357 44.5739 40.01 44.6985 40.01C44.7205 40.0247 44.7462 40.0393 44.7755 40.054C44.8049 40.0687 44.8195 40.0943 44.8195 40.131C44.8195 40.153 44.8159 40.1713 44.8085 40.186C44.7939 40.2227 44.7352 40.2703 44.6325 40.329C44.5299 40.3803 44.4052 40.439 44.2585 40.505C44.1192 40.5637 43.9615 40.6223 43.7855 40.681C43.6169 40.7397 43.4555 40.7947 43.3015 40.846C43.1475 40.8973 43.0082 40.9377 42.8835 40.967C42.7589 40.9963 42.6745 41.011 42.6305 41.011C42.4179 41.011 42.2712 40.967 42.1905 40.879C42.1172 40.791 42.0805 40.6443 42.0805 40.439ZM43.7085 36.809C43.7085 36.7063 43.7305 36.589 43.7745 36.457C43.8185 36.325 43.8772 36.204 43.9505 36.094C44.0239 35.9767 44.1119 35.8813 44.2145 35.808C44.3172 35.7273 44.4309 35.687 44.5555 35.687C44.7022 35.687 44.8085 35.7457 44.8745 35.863C44.9405 35.9803 44.9735 36.1013 44.9735 36.226C44.9735 36.336 44.9515 36.457 44.9075 36.589C44.8635 36.7137 44.8012 36.831 44.7205 36.941C44.6472 37.051 44.5555 37.1427 44.4455 37.216C44.3429 37.2893 44.2329 37.326 44.1155 37.326C43.9689 37.326 43.8625 37.271 43.7965 37.161C43.7379 37.051 43.7085 36.9337 43.7085 36.809ZM46.4967 36.248C46.5774 36.1893 46.6727 36.149 46.7827 36.127C46.9 36.0977 47.0064 36.083 47.1017 36.083C47.1824 36.083 47.263 36.094 47.3437 36.116C47.4317 36.138 47.505 36.1783 47.5637 36.237C47.5637 36.281 47.527 36.3763 47.4537 36.523C47.3877 36.6623 47.3107 36.82 47.2227 36.996C47.142 37.1647 47.0614 37.337 46.9807 37.513C46.9074 37.6817 46.8597 37.8137 46.8377 37.909C46.9184 37.8943 46.999 37.8797 47.0797 37.865C47.1677 37.8503 47.252 37.843 47.3327 37.843C47.3694 37.843 47.3987 37.8467 47.4207 37.854C47.45 37.854 47.483 37.8577 47.5197 37.865C47.5344 37.909 47.549 37.953 47.5637 37.997C47.5857 38.0337 47.5967 38.0777 47.5967 38.129C47.5967 38.1583 47.5527 38.184 47.4647 38.206C47.3767 38.228 47.2777 38.2463 47.1677 38.261C47.0577 38.2757 46.9514 38.294 46.8487 38.316C46.7534 38.3307 46.6947 38.349 46.6727 38.371C46.6434 38.4077 46.614 38.4517 46.5847 38.503C46.5627 38.547 46.5407 38.5873 46.5187 38.624C46.4674 38.712 46.3977 38.8367 46.3097 38.998C46.229 39.152 46.1484 39.317 46.0677 39.493C45.987 39.6617 45.9174 39.8303 45.8587 39.999C45.8 40.1603 45.7707 40.2887 45.7707 40.384C45.7707 40.4427 45.7817 40.483 45.8037 40.505C45.833 40.5197 45.877 40.527 45.9357 40.527C46.0677 40.527 46.2364 40.4867 46.4417 40.406C46.647 40.3253 46.8487 40.2373 47.0467 40.142C47.2447 40.0393 47.4207 39.9477 47.5747 39.867C47.736 39.779 47.8387 39.735 47.8827 39.735C47.9267 39.735 47.9634 39.7533 47.9927 39.79C48.022 39.8267 48.0367 39.8633 48.0367 39.9V39.933C47.8827 40.0503 47.6847 40.1713 47.4427 40.296C47.2007 40.4133 46.944 40.5233 46.6727 40.626C46.4087 40.7213 46.1447 40.802 45.8807 40.868C45.6167 40.934 45.3894 40.967 45.1987 40.967C45.1327 40.967 45.0594 40.9597 44.9787 40.945C44.9054 40.923 44.8357 40.8937 44.7697 40.857C44.711 40.8203 44.6597 40.7763 44.6157 40.725C44.5717 40.6663 44.5497 40.5967 44.5497 40.516C44.5497 40.3473 44.579 40.1787 44.6377 40.01C44.7037 39.834 44.7807 39.6653 44.8687 39.504C44.964 39.3353 45.0594 39.1703 45.1547 39.009C45.2574 38.8477 45.3454 38.6937 45.4187 38.547C45.3454 38.569 45.2464 38.5983 45.1217 38.635C44.997 38.6643 44.898 38.679 44.8247 38.679H44.8137L44.7807 38.36C44.9054 38.3013 45.0374 38.2573 45.1767 38.228C45.316 38.1987 45.448 38.1583 45.5727 38.107C45.734 37.799 45.8807 37.4873 46.0127 37.172C46.1447 36.8493 46.306 36.5413 46.4967 36.248ZM46.7407 40.758C46.7407 40.6773 46.8103 40.4683 46.9497 40.131C47.0817 39.7863 47.2503 39.3757 47.4557 38.899C47.6683 38.415 47.8993 37.898 48.1487 37.348C48.4053 36.7907 48.651 36.2553 48.8857 35.742C49.1203 35.2287 49.3293 34.7703 49.5127 34.367C49.696 33.9637 49.8243 33.6703 49.8977 33.487C49.9417 33.3697 49.9783 33.2707 50.0077 33.19C50.0443 33.102 50.1397 33.058 50.2937 33.058C50.3963 33.058 50.4953 33.047 50.5907 33.025C50.6933 33.003 50.796 32.992 50.8987 32.992C50.9573 32.992 51.0233 33.0067 51.0967 33.036C51.17 33.0653 51.2067 33.1203 51.2067 33.201C51.2067 33.3697 51.1627 33.586 51.0747 33.85C50.994 34.1067 50.884 34.389 50.7447 34.697C50.6127 35.005 50.4623 35.324 50.2937 35.654C50.1323 35.9767 49.9673 36.292 49.7987 36.6C49.6373 36.908 49.4833 37.1903 49.3367 37.447C49.1973 37.7037 49.0837 37.9127 48.9957 38.074C48.849 38.3307 48.7023 38.5947 48.5557 38.866C48.409 39.13 48.2843 39.4013 48.1817 39.68C48.343 39.5627 48.5263 39.4123 48.7317 39.229C48.937 39.0457 49.1497 38.866 49.3697 38.69C49.597 38.514 49.8243 38.3637 50.0517 38.239C50.279 38.107 50.4953 38.041 50.7007 38.041C50.796 38.041 50.8987 38.0667 51.0087 38.118C51.126 38.1693 51.1847 38.2537 51.1847 38.371C51.1847 38.5543 51.1443 38.7413 51.0637 38.932C50.9903 39.1153 50.906 39.2987 50.8107 39.482C50.7227 39.658 50.642 39.823 50.5687 39.977C50.4953 40.131 50.4623 40.2667 50.4697 40.384C50.5137 40.406 50.5577 40.417 50.6017 40.417C50.6823 40.417 50.763 40.3987 50.8437 40.362C50.9317 40.3253 51.016 40.285 51.0967 40.241C51.1847 40.1897 51.269 40.1457 51.3497 40.109C51.4377 40.0723 51.5183 40.054 51.5917 40.054C51.643 40.054 51.698 40.065 51.7567 40.087C51.7713 40.1017 51.7823 40.12 51.7897 40.142C51.8043 40.164 51.8117 40.1823 51.8117 40.197C51.8117 40.2337 51.7787 40.2703 51.7127 40.307C51.6467 40.3437 51.6027 40.3693 51.5807 40.384C51.2873 40.5453 50.9793 40.6883 50.6567 40.813C50.334 40.9303 50.0077 41.0073 49.6777 41.044H49.6007C49.4833 41.044 49.3623 41.022 49.2377 40.978C49.113 40.9267 49.0507 40.8277 49.0507 40.681C49.0507 40.593 49.0873 40.4757 49.1607 40.329C49.2413 40.1823 49.3257 40.0283 49.4137 39.867C49.5017 39.6983 49.5823 39.5407 49.6557 39.394C49.7363 39.24 49.7767 39.119 49.7767 39.031C49.7767 38.987 49.751 38.965 49.6997 38.965C49.641 38.965 49.5823 38.9943 49.5237 39.053C49.4357 39.1337 49.3477 39.218 49.2597 39.306C49.1717 39.3867 49.08 39.4673 48.9847 39.548C48.8967 39.614 48.7977 39.691 48.6877 39.779C48.585 39.8597 48.4787 39.9477 48.3687 40.043C48.266 40.131 48.167 40.2227 48.0717 40.318C47.9837 40.4133 47.9103 40.5087 47.8517 40.604C47.815 40.6627 47.7857 40.7287 47.7637 40.802C47.749 40.868 47.7123 40.9267 47.6537 40.978C47.5437 41 47.4337 41.011 47.3237 41.011C47.2357 41.011 47.1477 41.0073 47.0597 41C46.9717 40.9927 46.8837 40.989 46.7957 40.989C46.759 40.9157 46.7407 40.8387 46.7407 40.758ZM55.3815 39.977C55.3008 40.0503 55.2092 40.1237 55.1065 40.197C55.0038 40.2703 54.8902 40.3363 54.7655 40.395C54.6482 40.4463 54.5272 40.4903 54.4025 40.527C54.2852 40.5563 54.1715 40.571 54.0615 40.571C54.0322 40.571 54.0028 40.571 53.9735 40.571C53.9442 40.571 53.9148 40.5637 53.8855 40.549C53.6728 40.6957 53.4418 40.8093 53.1925 40.89C52.9432 40.9707 52.6902 41.011 52.4335 41.011C52.2575 41.011 52.0888 41 51.9275 40.978C51.7735 40.9487 51.6342 40.8973 51.5095 40.824C51.3922 40.7433 51.3005 40.6407 51.2345 40.516C51.1612 40.384 51.1245 40.2117 51.1245 39.999C51.1245 39.7057 51.2125 39.4343 51.3885 39.185C51.5572 38.9357 51.7698 38.723 52.0265 38.547C52.2832 38.3637 52.5618 38.2243 52.8625 38.129C53.1632 38.0263 53.4455 37.975 53.7095 37.975C53.8562 37.975 53.9735 37.9823 54.0615 37.997C54.1568 38.0117 54.2412 38.0373 54.3145 38.074C54.3878 38.1107 54.4575 38.1583 54.5235 38.217C54.5895 38.2757 54.6738 38.3453 54.7765 38.426C54.7325 38.5507 54.6665 38.635 54.5785 38.679C54.4905 38.7157 54.3842 38.734 54.2595 38.734H54.1935C54.1495 38.6313 54.0982 38.547 54.0395 38.481C53.9882 38.4077 53.9002 38.371 53.7755 38.371C53.6288 38.371 53.4675 38.415 53.2915 38.503C53.1228 38.591 52.9652 38.7047 52.8185 38.844C52.6718 38.976 52.5472 39.1227 52.4445 39.284C52.3492 39.4453 52.3015 39.603 52.3015 39.757C52.3015 39.9403 52.3418 40.109 52.4225 40.263C52.5105 40.4097 52.6608 40.483 52.8735 40.483C53.0862 40.483 53.2988 40.4243 53.5115 40.307C53.4382 40.2263 53.3795 40.1383 53.3355 40.043C53.2915 39.9403 53.2695 39.834 53.2695 39.724C53.2695 39.482 53.3575 39.284 53.5335 39.13C53.7095 38.9687 53.9148 38.888 54.1495 38.888C54.3035 38.888 54.4318 38.932 54.5345 39.02C54.6445 39.1007 54.6995 39.2253 54.6995 39.394C54.6995 39.5407 54.6628 39.68 54.5895 39.812C54.5162 39.944 54.4318 40.0613 54.3365 40.164C54.3878 40.1567 54.4612 40.1347 54.5565 40.098C54.6592 40.054 54.7618 40.0063 54.8645 39.955C54.9672 39.8963 55.0662 39.8413 55.1615 39.79C55.2568 39.7387 55.3302 39.6947 55.3815 39.658V39.746V39.977ZM53.9735 39.955C54.0395 39.889 54.1128 39.8083 54.1935 39.713C54.2742 39.6103 54.3145 39.5077 54.3145 39.405C54.3145 39.3683 54.3035 39.3353 54.2815 39.306C54.2595 39.2693 54.2265 39.251 54.1825 39.251C54.0945 39.251 54.0175 39.306 53.9515 39.416C53.8928 39.5187 53.8635 39.6103 53.8635 39.691C53.8635 39.801 53.9002 39.889 53.9735 39.955ZM55.7239 40.23C55.8045 40.23 55.9109 40.1933 56.0429 40.12C56.1749 40.0467 56.3069 39.9587 56.4389 39.856C56.5782 39.7533 56.7029 39.6507 56.8129 39.548C56.9302 39.438 57.0145 39.35 57.0659 39.284C57.1319 39.196 57.1905 39.0933 57.2419 38.976C57.3005 38.8587 57.3555 38.7413 57.4069 38.624C57.4655 38.5067 57.5242 38.3967 57.5829 38.294C57.6415 38.184 57.7112 38.096 57.7919 38.03C57.8285 38.0007 57.8909 37.986 57.9789 37.986C58.0669 37.986 58.1329 37.986 58.1769 37.986C58.2135 37.986 58.2649 37.986 58.3309 37.986C58.3969 37.9787 58.4629 37.9823 58.5289 37.997C58.5949 38.0043 58.6499 38.0227 58.6939 38.052C58.7452 38.074 58.7709 38.1107 58.7709 38.162C58.7709 38.25 58.7269 38.382 58.6389 38.558C58.5509 38.7267 58.4519 38.9137 58.3419 39.119C58.2319 39.317 58.1329 39.515 58.0449 39.713C57.9569 39.9037 57.9129 40.065 57.9129 40.197C57.9129 40.2777 57.9459 40.318 58.0119 40.318C58.0852 40.318 58.1732 40.2887 58.2759 40.23C58.3859 40.1713 58.4922 40.109 58.5949 40.043C58.7049 39.977 58.8039 39.9183 58.8919 39.867C58.9872 39.8083 59.0532 39.779 59.0899 39.779V40.164C58.9945 40.2373 58.8662 40.3217 58.7049 40.417C58.5435 40.505 58.3712 40.593 58.1879 40.681C58.0045 40.7617 57.8249 40.8313 57.6489 40.89C57.4802 40.9487 57.3372 40.978 57.2199 40.978C57.0952 40.978 56.9705 40.945 56.8459 40.879C56.7212 40.8057 56.6589 40.6957 56.6589 40.549C56.6589 40.4683 56.6772 40.3803 56.7139 40.285C56.7579 40.1897 56.7982 40.1053 56.8349 40.032C56.7029 40.12 56.5672 40.219 56.4279 40.329C56.2885 40.439 56.1455 40.5453 55.9989 40.648C55.8522 40.7433 55.7019 40.824 55.5479 40.89C55.3939 40.956 55.2325 40.989 55.0639 40.989C54.8952 40.989 54.7742 40.9303 54.7009 40.813C54.6275 40.6957 54.5909 40.5637 54.5909 40.417C54.5909 40.3143 54.6019 40.219 54.6239 40.131C54.6312 40.0797 54.6605 39.9953 54.7119 39.878C54.7559 39.7533 54.8109 39.6177 54.8769 39.471C54.9429 39.317 55.0162 39.1593 55.0969 38.998C55.1775 38.8293 55.2545 38.6753 55.3279 38.536C55.4085 38.3967 55.4782 38.2793 55.5369 38.184C55.6029 38.0813 55.6542 38.019 55.6909 37.997C55.8449 37.975 56.0062 37.964 56.1749 37.964C56.2629 37.964 56.3509 37.9677 56.4389 37.975C56.5342 37.9823 56.6295 37.9933 56.7249 38.008C56.6442 38.1547 56.5452 38.3233 56.4279 38.514C56.3179 38.6973 56.2115 38.8917 56.1089 39.097C56.0062 39.295 55.9145 39.493 55.8339 39.691C55.7605 39.889 55.7239 40.0687 55.7239 40.23ZM60.8706 36.248C60.9513 36.1893 61.0466 36.149 61.1566 36.127C61.2739 36.0977 61.3803 36.083 61.4756 36.083C61.5563 36.083 61.6369 36.094 61.7176 36.116C61.8056 36.138 61.8789 36.1783 61.9376 36.237C61.9376 36.281 61.9009 36.3763 61.8276 36.523C61.7616 36.6623 61.6846 36.82 61.5966 36.996C61.5159 37.1647 61.4353 37.337 61.3546 37.513C61.2813 37.6817 61.2336 37.8137 61.2116 37.909C61.2923 37.8943 61.3729 37.8797 61.4536 37.865C61.5416 37.8503 61.6259 37.843 61.7066 37.843C61.7433 37.843 61.7726 37.8467 61.7946 37.854C61.8239 37.854 61.8569 37.8577 61.8936 37.865C61.9083 37.909 61.9229 37.953 61.9376 37.997C61.9596 38.0337 61.9706 38.0777 61.9706 38.129C61.9706 38.1583 61.9266 38.184 61.8386 38.206C61.7506 38.228 61.6516 38.2463 61.5416 38.261C61.4316 38.2757 61.3253 38.294 61.2226 38.316C61.1273 38.3307 61.0686 38.349 61.0466 38.371C61.0173 38.4077 60.9879 38.4517 60.9586 38.503C60.9366 38.547 60.9146 38.5873 60.8926 38.624C60.8413 38.712 60.7716 38.8367 60.6836 38.998C60.6029 39.152 60.5223 39.317 60.4416 39.493C60.3609 39.6617 60.2913 39.8303 60.2326 39.999C60.1739 40.1603 60.1446 40.2887 60.1446 40.384C60.1446 40.4427 60.1556 40.483 60.1776 40.505C60.2069 40.5197 60.2509 40.527 60.3096 40.527C60.4416 40.527 60.6103 40.4867 60.8156 40.406C61.0209 40.3253 61.2226 40.2373 61.4206 40.142C61.6186 40.0393 61.7946 39.9477 61.9486 39.867C62.1099 39.779 62.2126 39.735 62.2566 39.735C62.3006 39.735 62.3373 39.7533 62.3666 39.79C62.3959 39.8267 62.4106 39.8633 62.4106 39.9V39.933C62.2566 40.0503 62.0586 40.1713 61.8166 40.296C61.5746 40.4133 61.3179 40.5233 61.0466 40.626C60.7826 40.7213 60.5186 40.802 60.2546 40.868C59.9906 40.934 59.7633 40.967 59.5726 40.967C59.5066 40.967 59.4333 40.9597 59.3526 40.945C59.2793 40.923 59.2096 40.8937 59.1436 40.857C59.0849 40.8203 59.0336 40.7763 58.9896 40.725C58.9456 40.6663 58.9236 40.5967 58.9236 40.516C58.9236 40.3473 58.9529 40.1787 59.0116 40.01C59.0776 39.834 59.1546 39.6653 59.2426 39.504C59.3379 39.3353 59.4333 39.1703 59.5286 39.009C59.6313 38.8477 59.7193 38.6937 59.7926 38.547C59.7193 38.569 59.6203 38.5983 59.4956 38.635C59.3709 38.6643 59.2719 38.679 59.1986 38.679H59.1876L59.1546 38.36C59.2793 38.3013 59.4113 38.2573 59.5506 38.228C59.6899 38.1987 59.8219 38.1583 59.9466 38.107C60.1079 37.799 60.2546 37.4873 60.3866 37.172C60.5186 36.8493 60.6799 36.5413 60.8706 36.248ZM65.6138 41.066C65.4452 41.066 65.2802 41.0477 65.1188 41.011C64.9575 40.9743 64.8145 40.9157 64.6898 40.835C64.5725 40.747 64.4772 40.637 64.4038 40.505C64.3305 40.3657 64.2938 40.2007 64.2938 40.01C64.2938 39.9587 64.2938 39.911 64.2938 39.867C64.3012 39.8157 64.3085 39.768 64.3158 39.724C64.3232 39.658 64.3488 39.5737 64.3928 39.471C64.4368 39.361 64.4845 39.2473 64.5358 39.13C64.5872 39.0127 64.6348 38.9027 64.6788 38.8C64.7302 38.69 64.7705 38.602 64.7998 38.536C64.9758 38.14 65.1555 37.755 65.3388 37.381C65.5222 36.9997 65.7055 36.6147 65.8888 36.226C65.9915 36.0207 66.0905 35.819 66.1858 35.621C66.2812 35.423 66.3728 35.2177 66.4608 35.005C66.4828 34.9463 66.5305 34.829 66.6038 34.653C66.6845 34.4697 66.7688 34.2827 66.8568 34.092C66.9448 33.894 67.0292 33.718 67.1098 33.564C67.1905 33.4027 67.2455 33.311 67.2748 33.289C67.3042 33.267 67.3482 33.245 67.4068 33.223C67.4728 33.201 67.5388 33.1827 67.6048 33.168C67.6708 33.146 67.7368 33.1277 67.8028 33.113C67.8688 33.0983 67.9202 33.091 67.9568 33.091C68.1108 33.091 68.1878 33.1717 68.1878 33.333C68.1878 33.4137 68.1512 33.553 68.0778 33.751C68.0045 33.949 67.9092 34.18 67.7918 34.444C67.6818 34.7007 67.5572 34.9757 67.4178 35.269C67.2785 35.5623 67.1428 35.8447 67.0108 36.116C66.8788 36.38 66.7578 36.622 66.6478 36.842C66.5452 37.0547 66.4718 37.2087 66.4278 37.304C66.3398 37.4947 66.2408 37.7037 66.1308 37.931C66.0208 38.1583 65.9402 38.3747 65.8888 38.58C65.9988 38.4773 66.1015 38.393 66.1968 38.327C66.2995 38.2537 66.4022 38.1987 66.5048 38.162C66.6148 38.118 66.7285 38.0887 66.8458 38.074C66.9632 38.0593 67.0988 38.052 67.2528 38.052C67.5535 38.052 67.8028 38.1363 68.0008 38.305C68.1988 38.4663 68.2978 38.7047 68.2978 39.02C68.2978 39.328 68.2062 39.6067 68.0228 39.856C67.8468 40.1053 67.6232 40.3217 67.3518 40.505C67.0878 40.681 66.7982 40.8203 66.4828 40.923C66.1675 41.0183 65.8778 41.066 65.6138 41.066ZM67.0548 39.262C67.0548 39.1153 67.0108 38.987 66.9228 38.877C66.8348 38.767 66.7138 38.712 66.5598 38.712C66.4205 38.712 66.2775 38.7633 66.1308 38.866C65.9915 38.9613 65.8632 39.0823 65.7458 39.229C65.6285 39.3683 65.5295 39.5187 65.4488 39.68C65.3755 39.8413 65.3388 39.988 65.3388 40.12C65.3388 40.274 65.3792 40.4023 65.4598 40.505C65.5478 40.6003 65.6725 40.648 65.8338 40.648C65.9732 40.648 66.1125 40.6003 66.2518 40.505C66.3985 40.4097 66.5305 40.2923 66.6478 40.153C66.7652 40.0137 66.8605 39.8633 66.9338 39.702C67.0145 39.5407 67.0548 39.394 67.0548 39.262ZM72.5969 39.977C72.5163 40.0503 72.4246 40.1237 72.3219 40.197C72.2193 40.2703 72.1056 40.3363 71.9809 40.395C71.8636 40.4463 71.7426 40.4903 71.6179 40.527C71.5006 40.5563 71.3869 40.571 71.2769 40.571C71.2476 40.571 71.2183 40.571 71.1889 40.571C71.1596 40.571 71.1303 40.5637 71.1009 40.549C70.8883 40.6957 70.6573 40.8093 70.4079 40.89C70.1586 40.9707 69.9056 41.011 69.6489 41.011C69.4729 41.011 69.3043 41 69.1429 40.978C68.9889 40.9487 68.8496 40.8973 68.7249 40.824C68.6076 40.7433 68.5159 40.6407 68.4499 40.516C68.3766 40.384 68.3399 40.2117 68.3399 39.999C68.3399 39.7057 68.4279 39.4343 68.6039 39.185C68.7726 38.9357 68.9853 38.723 69.2419 38.547C69.4986 38.3637 69.7773 38.2243 70.0779 38.129C70.3786 38.0263 70.6609 37.975 70.9249 37.975C71.0716 37.975 71.1889 37.9823 71.2769 37.997C71.3723 38.0117 71.4566 38.0373 71.5299 38.074C71.6033 38.1107 71.6729 38.1583 71.7389 38.217C71.8049 38.2757 71.8893 38.3453 71.9919 38.426C71.9479 38.5507 71.8819 38.635 71.7939 38.679C71.7059 38.7157 71.5996 38.734 71.4749 38.734H71.4089C71.3649 38.6313 71.3136 38.547 71.2549 38.481C71.2036 38.4077 71.1156 38.371 70.9909 38.371C70.8443 38.371 70.6829 38.415 70.5069 38.503C70.3383 38.591 70.1806 38.7047 70.0339 38.844C69.8873 38.976 69.7626 39.1227 69.6599 39.284C69.5646 39.4453 69.5169 39.603 69.5169 39.757C69.5169 39.9403 69.5573 40.109 69.6379 40.263C69.7259 40.4097 69.8763 40.483 70.0889 40.483C70.3016 40.483 70.5143 40.4243 70.7269 40.307C70.6536 40.2263 70.5949 40.1383 70.5509 40.043C70.5069 39.9403 70.4849 39.834 70.4849 39.724C70.4849 39.482 70.5729 39.284 70.7489 39.13C70.9249 38.9687 71.1303 38.888 71.3649 38.888C71.5189 38.888 71.6473 38.932 71.7499 39.02C71.8599 39.1007 71.9149 39.2253 71.9149 39.394C71.9149 39.5407 71.8783 39.68 71.8049 39.812C71.7316 39.944 71.6473 40.0613 71.5519 40.164C71.6033 40.1567 71.6766 40.1347 71.7719 40.098C71.8746 40.054 71.9773 40.0063 72.0799 39.955C72.1826 39.8963 72.2816 39.8413 72.3769 39.79C72.4723 39.7387 72.5456 39.6947 72.5969 39.658V39.746V39.977ZM71.1889 39.955C71.2549 39.889 71.3283 39.8083 71.4089 39.713C71.4896 39.6103 71.5299 39.5077 71.5299 39.405C71.5299 39.3683 71.5189 39.3353 71.4969 39.306C71.4749 39.2693 71.4419 39.251 71.3979 39.251C71.3099 39.251 71.2329 39.306 71.1669 39.416C71.1083 39.5187 71.0789 39.6103 71.0789 39.691C71.0789 39.801 71.1156 39.889 71.1889 39.955ZM72.9393 40.23C73.02 40.23 73.1263 40.1933 73.2583 40.12C73.3903 40.0467 73.5223 39.9587 73.6543 39.856C73.7936 39.7533 73.9183 39.6507 74.0283 39.548C74.1456 39.438 74.23 39.35 74.2813 39.284C74.3473 39.196 74.406 39.0933 74.4573 38.976C74.516 38.8587 74.571 38.7413 74.6223 38.624C74.681 38.5067 74.7396 38.3967 74.7983 38.294C74.857 38.184 74.9266 38.096 75.0073 38.03C75.044 38.0007 75.1063 37.986 75.1943 37.986C75.2823 37.986 75.3483 37.986 75.3923 37.986C75.429 37.986 75.4803 37.986 75.5463 37.986C75.6123 37.9787 75.6783 37.9823 75.7443 37.997C75.8103 38.0043 75.8653 38.0227 75.9093 38.052C75.9606 38.074 75.9863 38.1107 75.9863 38.162C75.9863 38.25 75.9423 38.382 75.8543 38.558C75.7663 38.7267 75.6673 38.9137 75.5573 39.119C75.4473 39.317 75.3483 39.515 75.2603 39.713C75.1723 39.9037 75.1283 40.065 75.1283 40.197C75.1283 40.2777 75.1613 40.318 75.2273 40.318C75.3006 40.318 75.3886 40.2887 75.4913 40.23C75.6013 40.1713 75.7076 40.109 75.8103 40.043C75.9203 39.977 76.0193 39.9183 76.1073 39.867C76.2026 39.8083 76.2686 39.779 76.3053 39.779V40.164C76.21 40.2373 76.0816 40.3217 75.9203 40.417C75.759 40.505 75.5866 40.593 75.4033 40.681C75.22 40.7617 75.0403 40.8313 74.8643 40.89C74.6956 40.9487 74.5526 40.978 74.4353 40.978C74.3106 40.978 74.186 40.945 74.0613 40.879C73.9366 40.8057 73.8743 40.6957 73.8743 40.549C73.8743 40.4683 73.8926 40.3803 73.9293 40.285C73.9733 40.1897 74.0136 40.1053 74.0503 40.032C73.9183 40.12 73.7826 40.219 73.6433 40.329C73.504 40.439 73.361 40.5453 73.2143 40.648C73.0676 40.7433 72.9173 40.824 72.7633 40.89C72.6093 40.956 72.448 40.989 72.2793 40.989C72.1106 40.989 71.9896 40.9303 71.9163 40.813C71.843 40.6957 71.8063 40.5637 71.8063 40.417C71.8063 40.3143 71.8173 40.219 71.8393 40.131C71.8466 40.0797 71.876 39.9953 71.9273 39.878C71.9713 39.7533 72.0263 39.6177 72.0923 39.471C72.1583 39.317 72.2316 39.1593 72.3123 38.998C72.393 38.8293 72.47 38.6753 72.5433 38.536C72.624 38.3967 72.6936 38.2793 72.7523 38.184C72.8183 38.0813 72.8696 38.019 72.9063 37.997C73.0603 37.975 73.2216 37.964 73.3903 37.964C73.4783 37.964 73.5663 37.9677 73.6543 37.975C73.7496 37.9823 73.845 37.9933 73.9403 38.008C73.8596 38.1547 73.7606 38.3233 73.6433 38.514C73.5333 38.6973 73.427 38.8917 73.3243 39.097C73.2216 39.295 73.13 39.493 73.0493 39.691C72.976 39.889 72.9393 40.0687 72.9393 40.23ZM75.743 40.736C75.743 40.692 75.776 40.5967 75.842 40.45C75.9007 40.296 75.974 40.12 76.062 39.922C76.1574 39.724 76.26 39.515 76.37 39.295C76.4874 39.075 76.5974 38.8733 76.7 38.69C76.8027 38.4993 76.8944 38.3417 76.975 38.217C77.063 38.0923 77.1217 38.0263 77.151 38.019C77.2097 38.0043 77.272 37.997 77.338 37.997C77.404 37.9897 77.4664 37.986 77.525 37.986C77.7084 37.986 77.8954 37.997 78.086 38.019C78.0274 38.283 77.9357 38.536 77.811 38.778C77.6864 39.0127 77.5727 39.2547 77.47 39.504C77.5947 39.394 77.745 39.2547 77.921 39.086C78.1044 38.91 78.295 38.7413 78.493 38.58C78.691 38.4187 78.889 38.283 79.087 38.173C79.2924 38.0557 79.483 37.997 79.659 37.997C79.7837 37.997 79.89 38.041 79.978 38.129C80.0734 38.2097 80.121 38.3123 80.121 38.437C80.121 38.591 80.0844 38.7523 80.011 38.921C79.9377 39.0823 79.857 39.2437 79.769 39.405C79.681 39.5663 79.6004 39.724 79.527 39.878C79.4537 40.032 79.417 40.175 79.417 40.307C79.417 40.3437 79.428 40.3657 79.45 40.373C79.472 40.3803 79.494 40.384 79.516 40.384C79.582 40.384 79.67 40.3657 79.78 40.329C79.8974 40.285 80.0184 40.2337 80.143 40.175C80.2677 40.1163 80.385 40.0613 80.495 40.01C80.6124 39.9513 80.704 39.9037 80.77 39.867C80.8067 39.9403 80.825 40.0063 80.825 40.065C80.825 40.1163 80.8104 40.1567 80.781 40.186C80.605 40.2813 80.4254 40.3767 80.242 40.472C80.066 40.5673 79.8827 40.6517 79.692 40.725C79.5087 40.7983 79.318 40.8607 79.12 40.912C78.9294 40.956 78.7314 40.978 78.526 40.978C78.4234 40.978 78.339 40.9303 78.273 40.835C78.207 40.7323 78.174 40.637 78.174 40.549C78.174 40.4683 78.1997 40.362 78.251 40.23C78.3097 40.098 78.3757 39.9587 78.449 39.812C78.5224 39.658 78.592 39.5077 78.658 39.361C78.7314 39.2143 78.779 39.086 78.801 38.976C78.7717 38.976 78.691 39.0237 78.559 39.119C78.427 39.2143 78.2804 39.3207 78.119 39.438C77.965 39.5553 77.8184 39.669 77.679 39.779C77.5397 39.889 77.448 39.9623 77.404 39.999C77.3234 40.065 77.2537 40.1457 77.195 40.241C77.1364 40.3363 77.0814 40.4317 77.03 40.527C76.9787 40.615 76.9274 40.6993 76.876 40.78C76.8247 40.8607 76.7697 40.923 76.711 40.967C76.6597 40.9817 76.6084 40.989 76.557 40.989C76.513 40.989 76.4654 40.989 76.414 40.989C76.392 40.989 76.3517 40.989 76.293 40.989C76.2417 40.989 76.183 40.989 76.117 40.989C76.0584 40.989 76.0034 40.989 75.952 40.989C75.9007 40.9817 75.8677 40.9743 75.853 40.967C75.7797 40.9083 75.743 40.8313 75.743 40.736ZM83.3992 38.184C83.6265 37.8247 83.8209 37.425 83.9822 36.985C84.1509 36.5377 84.2865 36.105 84.3892 35.687C84.4112 35.5843 84.4222 35.4743 84.4222 35.357C84.4295 35.2397 84.4735 35.1443 84.5542 35.071C84.5982 35.0343 84.6752 34.994 84.7852 34.95C84.8952 34.906 84.9795 34.884 85.0382 34.884C85.1629 34.884 85.2765 34.906 85.3792 34.95C85.4819 34.994 85.5332 35.0893 85.5332 35.236C85.5332 35.676 85.4562 36.105 85.3022 36.523C85.1555 36.9337 84.9795 37.3407 84.7742 37.744C84.5689 38.1473 84.3635 38.5507 84.1582 38.954C83.9529 39.3573 83.7952 39.7643 83.6852 40.175C83.6705 40.2337 83.6632 40.2777 83.6632 40.307C83.6632 40.4317 83.7292 40.494 83.8612 40.494C83.9419 40.494 84.0335 40.4757 84.1362 40.439C84.2389 40.4023 84.3415 40.362 84.4442 40.318C84.5469 40.2667 84.6459 40.2153 84.7412 40.164C84.8439 40.1127 84.9355 40.0687 85.0162 40.032L85.1042 40.329C85.0382 40.4023 84.9209 40.4793 84.7522 40.56C84.5835 40.6333 84.4002 40.703 84.2022 40.769C84.0115 40.835 83.8245 40.89 83.6412 40.934C83.4579 40.9707 83.3149 40.989 83.2122 40.989C83.1462 40.989 83.0655 40.9817 82.9702 40.967C82.8822 40.9523 82.7979 40.9303 82.7172 40.901C82.6365 40.8643 82.5669 40.8167 82.5082 40.758C82.4495 40.6993 82.4202 40.626 82.4202 40.538V40.483C82.2295 40.6443 82.0425 40.7727 81.8592 40.868C81.6759 40.956 81.4559 41 81.1992 41C80.9572 41 80.7519 40.9377 80.5832 40.813C80.4145 40.6883 80.3302 40.494 80.3302 40.23C80.3302 39.922 80.3962 39.636 80.5282 39.372C80.6602 39.1007 80.8362 38.8697 81.0562 38.679C81.2762 38.4883 81.5255 38.338 81.8042 38.228C82.0829 38.118 82.3725 38.063 82.6732 38.063C82.9152 38.063 83.1572 38.1033 83.3992 38.184ZM82.8052 38.371C82.6365 38.371 82.4825 38.4077 82.3432 38.481C82.2112 38.547 82.0939 38.635 81.9912 38.745C81.8959 38.855 81.8115 38.9797 81.7382 39.119C81.6722 39.2583 81.6172 39.4013 81.5732 39.548C81.5512 39.6287 81.5292 39.7203 81.5072 39.823C81.4852 39.9183 81.4742 40.01 81.4742 40.098C81.4742 40.1787 81.4889 40.2483 81.5182 40.307C81.5475 40.3657 81.6062 40.395 81.6942 40.395C81.7455 40.395 81.8189 40.373 81.9142 40.329C82.0169 40.285 82.1195 40.2337 82.2222 40.175C82.3249 40.1163 82.4165 40.054 82.4972 39.988C82.5852 39.922 82.6475 39.867 82.6842 39.823C82.8089 39.6543 82.9005 39.471 82.9592 39.273C83.0252 39.075 83.1059 38.8843 83.2012 38.701C83.1645 38.613 83.1132 38.536 83.0472 38.47C82.9885 38.404 82.9079 38.371 82.8052 38.371ZM84.4472 40.197C84.4472 39.889 84.5389 39.5993 84.7222 39.328C84.9055 39.0493 85.1329 38.8073 85.4042 38.602C85.6829 38.3893 85.9835 38.2243 86.3062 38.107C86.6289 37.9823 86.9295 37.92 87.2082 37.92C87.2962 37.92 87.3952 37.931 87.5052 37.953C87.6225 37.9677 87.7362 37.9933 87.8462 38.03C87.9562 38.0667 88.0589 38.1107 88.1542 38.162C88.2569 38.2133 88.3375 38.272 88.3962 38.338C88.3669 38.3967 88.3339 38.4407 88.2972 38.47C88.2605 38.4993 88.2202 38.5213 88.1762 38.536C88.1322 38.5507 88.0845 38.5653 88.0332 38.58C87.9819 38.5873 87.9305 38.602 87.8792 38.624C87.9379 38.6533 88.0075 38.668 88.0882 38.668C88.1689 38.668 88.2459 38.657 88.3192 38.635C88.3925 38.613 88.4622 38.5837 88.5282 38.547C88.5649 38.6203 88.5832 38.6863 88.5832 38.745C88.5832 38.8697 88.5502 39.0017 88.4842 39.141C88.4182 39.273 88.3449 39.4087 88.2642 39.548C88.1909 39.68 88.1212 39.8193 88.0552 39.966C87.9892 40.1127 87.9562 40.2593 87.9562 40.406H87.9782C88.0662 40.406 88.1652 40.395 88.2752 40.373C88.3852 40.3437 88.4989 40.3107 88.6162 40.274C88.7335 40.23 88.8435 40.1823 88.9462 40.131C89.0562 40.0797 89.1442 40.0283 89.2102 39.977C89.2469 39.9917 89.2835 40.0137 89.3202 40.043C89.3569 40.0723 89.3752 40.1053 89.3752 40.142C89.3752 40.2007 89.2872 40.2777 89.1112 40.373C88.9352 40.4683 88.7335 40.5637 88.5062 40.659C88.2862 40.747 88.0699 40.824 87.8572 40.89C87.6445 40.956 87.5052 40.989 87.4392 40.989C87.1825 40.989 87.0102 40.9267 86.9222 40.802C86.8342 40.6773 86.7682 40.5013 86.7242 40.274C86.6435 40.3033 86.5702 40.34 86.5042 40.384C86.4382 40.428 86.3759 40.4793 86.3172 40.538C86.1192 40.6993 85.9322 40.8203 85.7562 40.901C85.5875 40.9743 85.3712 41.011 85.1072 41.011C84.8505 41.011 84.6745 40.934 84.5792 40.78C84.4912 40.626 84.4472 40.4317 84.4472 40.197ZM87.0982 38.404C86.9662 38.404 86.8122 38.4627 86.6362 38.58C86.4602 38.6973 86.2879 38.8403 86.1192 39.009C85.9579 39.1703 85.8185 39.3427 85.7012 39.526C85.5912 39.702 85.5362 39.856 85.5362 39.988C85.5362 40.076 85.5729 40.153 85.6462 40.219C85.7269 40.285 85.8112 40.318 85.8992 40.318C85.9945 40.318 86.1302 40.252 86.3062 40.12C86.4822 39.988 86.6582 39.834 86.8342 39.658C87.0102 39.482 87.1605 39.306 87.2852 39.13C87.4172 38.9467 87.4832 38.811 87.4832 38.723C87.4832 38.6277 87.4392 38.5507 87.3512 38.492C87.2705 38.4333 87.1862 38.404 87.0982 38.404ZM89.7819 38.14C89.9065 38.1033 90.0275 38.074 90.1449 38.052C90.2622 38.03 90.3832 38.019 90.5079 38.019C90.5299 38.019 90.5629 38.019 90.6069 38.019C90.6582 38.019 90.7059 38.0227 90.7499 38.03C90.7939 38.0373 90.8342 38.052 90.8709 38.074C90.9075 38.0887 90.9259 38.1143 90.9259 38.151C90.9259 38.1657 90.9149 38.195 90.8929 38.239C90.8709 38.283 90.8452 38.3343 90.8159 38.393C90.7865 38.4517 90.7572 38.5103 90.7279 38.569C90.6985 38.6203 90.6802 38.6607 90.6729 38.69C90.7609 38.69 90.8525 38.657 90.9479 38.591C91.0432 38.5177 91.1385 38.437 91.2339 38.349C91.3292 38.261 91.4245 38.184 91.5199 38.118C91.6225 38.0447 91.7289 38.008 91.8389 38.008C91.9415 38.008 92.0222 38.0153 92.0809 38.03C92.1469 38.0447 92.2165 38.096 92.2899 38.184C92.3192 38.2647 92.3339 38.3563 92.3339 38.459C92.3339 38.6423 92.2899 38.8073 92.2019 38.954C92.1212 39.1007 92.0112 39.229 91.8719 39.339C91.7399 39.4417 91.5895 39.5223 91.4209 39.581C91.2522 39.6323 91.0835 39.658 90.9149 39.658C90.8929 39.658 90.8562 39.647 90.8049 39.625C90.7609 39.603 90.7389 39.5773 90.7389 39.548C90.7389 39.482 90.7792 39.4087 90.8599 39.328C90.9405 39.24 90.9809 39.1447 90.9809 39.042C90.8782 39.0933 90.7682 39.1703 90.6509 39.273C90.5335 39.3757 90.4235 39.493 90.3209 39.625C90.2182 39.757 90.1339 39.8927 90.0679 40.032C90.0019 40.1713 89.9689 40.2997 89.9689 40.417C89.9689 40.4977 90.0129 40.549 90.1009 40.571C90.1889 40.5857 90.2622 40.593 90.3209 40.593C90.5482 40.593 90.7792 40.5673 91.0139 40.516C91.2485 40.4573 91.4722 40.3987 91.6849 40.34C91.7655 40.318 91.8499 40.2923 91.9379 40.263C92.0332 40.2337 92.1212 40.2153 92.2019 40.208H92.2569C92.2862 40.208 92.3302 40.2153 92.3889 40.23C92.4549 40.2373 92.4879 40.263 92.4879 40.307C92.4879 40.3657 92.4512 40.4133 92.3779 40.45C92.3045 40.4793 92.2495 40.5013 92.2129 40.516C91.7142 40.6773 91.2192 40.813 90.7279 40.923C90.2439 41.033 89.7379 41.088 89.2099 41.088C89.0852 41.088 88.9825 41.0697 88.9019 41.033C88.8212 40.9963 88.7809 40.9047 88.7809 40.758C88.7809 40.736 88.7845 40.714 88.7919 40.692C88.7919 40.67 88.7919 40.648 88.7919 40.626C88.7992 40.5747 88.8249 40.4867 88.8689 40.362C88.9055 40.23 88.9569 40.0833 89.0229 39.922C89.0889 39.7533 89.1585 39.5773 89.2319 39.394C89.3052 39.2033 89.3785 39.0237 89.4519 38.855C89.5252 38.6863 89.5912 38.5397 89.6499 38.415C89.7085 38.283 89.7525 38.1913 89.7819 38.14ZM91.7017 40.439C91.7017 40.351 91.7457 40.1897 91.8337 39.955C91.9217 39.713 92.0244 39.4637 92.1417 39.207C92.2664 38.943 92.3874 38.7047 92.5047 38.492C92.6294 38.2793 92.7284 38.1547 92.8017 38.118C92.8897 38.0813 93.007 38.052 93.1537 38.03C93.3077 38.0007 93.436 37.986 93.5387 37.986C93.5974 37.986 93.6524 37.9897 93.7037 37.997C93.755 38.0043 93.8027 38.019 93.8467 38.041C93.8247 38.1437 93.7917 38.25 93.7477 38.36C93.7037 38.4627 93.6597 38.5653 93.6157 38.668C93.535 38.8513 93.4507 39.0347 93.3627 39.218C93.2747 39.394 93.1867 39.5737 93.0987 39.757C93.0474 39.8597 92.996 39.966 92.9447 40.076C92.8934 40.1787 92.8494 40.2813 92.8127 40.384L92.9227 40.45C93.04 40.45 93.1537 40.428 93.2637 40.384C93.381 40.34 93.4984 40.2923 93.6157 40.241C93.733 40.1823 93.8467 40.131 93.9567 40.087C94.074 40.0357 94.195 40.01 94.3197 40.01C94.3417 40.0247 94.3674 40.0393 94.3967 40.054C94.426 40.0687 94.4407 40.0943 94.4407 40.131C94.4407 40.153 94.437 40.1713 94.4297 40.186C94.415 40.2227 94.3564 40.2703 94.2537 40.329C94.151 40.3803 94.0264 40.439 93.8797 40.505C93.7404 40.5637 93.5827 40.6223 93.4067 40.681C93.238 40.7397 93.0767 40.7947 92.9227 40.846C92.7687 40.8973 92.6294 40.9377 92.5047 40.967C92.38 40.9963 92.2957 41.011 92.2517 41.011C92.039 41.011 91.8924 40.967 91.8117 40.879C91.7384 40.791 91.7017 40.6443 91.7017 40.439ZM93.3297 36.809C93.3297 36.7063 93.3517 36.589 93.3957 36.457C93.4397 36.325 93.4984 36.204 93.5717 36.094C93.645 35.9767 93.733 35.8813 93.8357 35.808C93.9384 35.7273 94.052 35.687 94.1767 35.687C94.3234 35.687 94.4297 35.7457 94.4957 35.863C94.5617 35.9803 94.5947 36.1013 94.5947 36.226C94.5947 36.336 94.5727 36.457 94.5287 36.589C94.4847 36.7137 94.4224 36.831 94.3417 36.941C94.2684 37.051 94.1767 37.1427 94.0667 37.216C93.964 37.2893 93.854 37.326 93.7367 37.326C93.59 37.326 93.4837 37.271 93.4177 37.161C93.359 37.051 93.3297 36.9337 93.3297 36.809ZM94.0059 40.241C94.0059 39.9477 94.0902 39.6653 94.2589 39.394C94.4349 39.1153 94.6549 38.8697 94.9189 38.657C95.1829 38.437 95.4689 38.2647 95.7769 38.14C96.0922 38.008 96.3892 37.942 96.6679 37.942C96.7705 37.942 96.8769 37.9603 96.9869 37.997C97.0969 38.0263 97.1959 38.0703 97.2839 38.129C97.3792 38.1877 97.4562 38.261 97.5149 38.349C97.5735 38.437 97.6029 38.5397 97.6029 38.657C97.6029 38.921 97.5149 39.1447 97.3389 39.328C97.1702 39.504 96.9612 39.658 96.7119 39.79C96.4699 39.9147 96.2132 40.021 95.9419 40.109C95.6779 40.197 95.4505 40.2813 95.2599 40.362C95.2745 40.4647 95.3149 40.5307 95.3809 40.56C95.4542 40.5893 95.5349 40.604 95.6229 40.604C95.7769 40.604 95.9565 40.582 96.1619 40.538C96.3745 40.494 96.5909 40.4427 96.8109 40.384C97.0309 40.318 97.2435 40.252 97.4489 40.186C97.6542 40.1127 97.8339 40.0467 97.9879 39.988C98.0025 40.0247 98.0135 40.0613 98.0209 40.098C98.0355 40.1273 98.0429 40.1603 98.0429 40.197C98.0429 40.241 98.0392 40.274 98.0319 40.296C97.8412 40.3693 97.6249 40.45 97.3829 40.538C97.1482 40.626 96.9062 40.7103 96.6569 40.791C96.4075 40.8643 96.1582 40.9303 95.9089 40.989C95.6669 41.0403 95.4469 41.066 95.2489 41.066C95.1242 41.066 94.9885 41.0513 94.8419 41.022C94.7025 40.9927 94.5705 40.945 94.4459 40.879C94.3212 40.813 94.2149 40.7287 94.1269 40.626C94.0462 40.516 94.0059 40.3877 94.0059 40.241ZM95.2159 39.977C95.4505 39.9257 95.6815 39.8303 95.9089 39.691C96.1362 39.5443 96.3159 39.3683 96.4479 39.163C96.4919 39.0897 96.5359 39.009 96.5799 38.921C96.6312 38.8257 96.6569 38.734 96.6569 38.646C96.6569 38.4993 96.5799 38.426 96.4259 38.426C96.2792 38.426 96.1325 38.4847 95.9859 38.602C95.8465 38.712 95.7182 38.8513 95.6009 39.02C95.4835 39.1813 95.3882 39.35 95.3149 39.526C95.2489 39.702 95.2159 39.8523 95.2159 39.977ZM98.8362 38.899C98.8949 38.6497 98.9902 38.448 99.1222 38.294C99.2542 38.1327 99.4339 37.9897 99.6612 37.865C99.7419 37.8063 99.8336 37.7587 99.9362 37.722C99.9656 37.7073 99.9986 37.7 100.035 37.7C100.072 37.6927 100.105 37.689 100.134 37.689C100.303 37.689 100.479 37.711 100.662 37.755C100.853 37.799 100.989 37.9053 101.069 38.074C101.069 38.1107 101.047 38.162 101.003 38.228C100.959 38.2867 100.908 38.3453 100.849 38.404C100.791 38.4627 100.728 38.514 100.662 38.558C100.604 38.602 100.556 38.624 100.519 38.624C100.453 38.624 100.391 38.602 100.332 38.558C100.274 38.5067 100.222 38.4553 100.178 38.404C100.134 38.3453 100.094 38.294 100.057 38.25C100.021 38.1987 99.9876 38.173 99.9582 38.173C99.9436 38.173 99.9216 38.1803 99.8922 38.195C99.8702 38.2097 99.8519 38.2243 99.8372 38.239C99.8372 38.3563 99.8556 38.4737 99.8922 38.591C99.9362 38.701 99.9802 38.811 100.024 38.921C100.068 39.031 100.109 39.1447 100.145 39.262C100.189 39.372 100.211 39.4857 100.211 39.603C100.211 39.7937 100.149 39.9733 100.024 40.142C99.9069 40.3033 99.7566 40.4463 99.5732 40.571C99.3972 40.6957 99.2066 40.7947 99.0012 40.868C98.7959 40.934 98.6089 40.967 98.4402 40.967C98.0589 40.967 97.7802 40.868 97.6042 40.67C97.4356 40.472 97.3512 40.1897 97.3512 39.823C97.3512 39.7057 97.3879 39.5957 97.4612 39.493C97.5346 39.383 97.6262 39.284 97.7362 39.196C97.8462 39.108 97.9636 39.0347 98.0882 38.976C98.2129 38.91 98.3266 38.8587 98.4292 38.822C98.4586 38.8807 98.4732 38.932 98.4732 38.976C98.4732 39.13 98.4512 39.2803 98.4072 39.427C98.3632 39.5737 98.3412 39.724 98.3412 39.878C98.3412 40.0247 98.3742 40.164 98.4402 40.296C98.5136 40.4207 98.6236 40.5123 98.7702 40.571C98.9169 40.5343 99.0049 40.461 99.0342 40.351C99.0636 40.2337 99.0782 40.1127 99.0782 39.988C99.0782 39.7973 99.0452 39.614 98.9792 39.438C98.9206 39.262 98.8729 39.0823 98.8362 38.899Z" fill="white"/>
</svg>
