<svg width="435" height="180" viewBox="0 0 435 180" fill="none" xmlns="http://www.w3.org/2000/svg">
<path d="M138.496 33.488C138.208 33.68 137.536 34.352 136.48 35.504C135.472 36.608 134.272 37.976 132.88 39.608C131.536 41.192 130.096 42.92 128.56 44.792C127.072 46.616 125.68 48.344 124.384 49.976C123.136 51.56 122.104 52.904 121.288 54.008C120.472 55.112 120.064 55.712 120.064 55.808C120.064 56.144 120.232 56.288 120.568 56.24C120.952 56.144 121.288 56.144 121.576 56.24L126.328 57.536C128.296 53.456 130.312 49.448 132.376 45.512C134.44 41.576 136.48 37.568 138.496 33.488ZM116.32 55.016C116.368 55.016 116.512 54.896 116.752 54.656C116.992 54.368 117.256 54.08 117.544 53.792C117.832 53.456 118.096 53.144 118.336 52.856C118.576 52.568 118.72 52.4 118.768 52.352C121.84 48.8 124.864 45.248 127.84 41.696C130.864 38.144 133.888 34.592 136.912 31.04C137.536 30.272 138.184 29.288 138.856 28.088C139.576 26.888 140.272 25.688 140.944 24.488C141.664 23.24 142.336 22.088 142.96 21.032C143.584 19.928 144.184 19.136 144.76 18.656C145.048 18.416 145.384 18.176 145.768 17.936C146.2 17.696 146.608 17.576 146.992 17.576H151.528C152.056 17.672 152.392 17.816 152.536 18.008C152.728 18.152 152.824 18.488 152.824 19.016C152.824 19.256 152.464 20.168 151.744 21.752C151.072 23.336 150.184 25.256 149.08 27.512C148.024 29.768 146.848 32.216 145.552 34.856C144.304 37.448 143.08 39.944 141.88 42.344C140.728 44.696 139.696 46.76 138.784 48.536C137.92 50.312 137.344 51.488 137.056 52.064C136.432 53.312 135.808 54.56 135.184 55.808C134.56 57.056 133.984 58.328 133.456 59.624C134.56 59.816 135.64 59.984 136.696 60.128C137.752 60.224 138.832 60.272 139.936 60.272C142 60.272 143.968 60.032 145.84 59.552C147.712 59.024 149.512 58.208 151.24 57.104C151.144 57.344 151.12 57.584 151.168 57.824C151.264 58.016 151.312 58.232 151.312 58.472C151.312 58.712 151.24 58.928 151.096 59.12C150.376 60.224 149.248 61.208 147.712 62.072C146.176 62.936 144.496 63.656 142.672 64.232C140.896 64.808 139.096 65.264 137.272 65.6C135.448 65.888 133.912 66.032 132.664 66.032C132.424 66.032 132.16 66.032 131.872 66.032C131.584 65.984 131.32 65.936 131.08 65.888L128.488 70.784H119.416C120.088 69.68 120.736 68.576 121.36 67.472C121.984 66.368 122.584 65.24 123.16 64.088C122.776 63.992 122.176 63.824 121.36 63.584C120.592 63.296 119.776 63.008 118.912 62.72C118.096 62.432 117.328 62.168 116.608 61.928C115.936 61.688 115.504 61.568 115.312 61.568C115.024 61.568 114.52 61.904 113.8 62.576C113.128 63.248 112.264 64.088 111.208 65.096C110.152 66.104 108.928 67.208 107.536 68.408C106.192 69.56 104.704 70.64 103.072 71.648C101.488 72.656 99.784 73.496 97.96 74.168C96.136 74.84 94.24 75.176 92.272 75.176C91.168 75.176 90.16 74.96 89.248 74.528C88.384 74.144 87.592 73.616 86.872 72.944C86.152 72.272 85.504 71.528 84.928 70.712C84.304 69.896 83.728 69.056 83.2 68.192C83.536 68 83.992 67.736 84.568 67.4C85.096 67.016 85.672 66.656 86.296 66.32C86.92 65.984 87.52 65.696 88.096 65.456C88.672 65.216 89.152 65.096 89.536 65.096C89.872 65.096 90.184 65.336 90.472 65.816C90.808 66.296 91.216 66.824 91.696 67.4C92.224 67.928 92.92 68.432 93.784 68.912C94.648 69.392 95.848 69.632 97.384 69.632C98.248 69.632 99.352 69.296 100.696 68.624C102.04 67.952 103.36 67.16 104.656 66.248C106 65.288 107.248 64.304 108.4 63.296C109.552 62.24 110.392 61.352 110.92 60.632C109.336 60.248 107.776 59.744 106.24 59.12C104.704 58.496 103.096 58.184 101.416 58.184C100.744 58.184 100.024 58.328 99.256 58.616C98.536 58.904 97.816 59.264 97.096 59.696C96.376 60.128 95.656 60.584 94.936 61.064C94.264 61.544 93.64 61.952 93.064 62.288C92.824 62.096 92.608 61.928 92.416 61.784C92.224 61.592 92.08 61.376 91.984 61.136C92.656 60.224 93.568 59.336 94.72 58.472C95.92 57.56 97.192 56.768 98.536 56.096C99.928 55.376 101.32 54.8 102.712 54.368C104.104 53.936 105.376 53.72 106.528 53.72C107.728 53.72 108.928 53.816 110.128 54.008C111.328 54.152 112.528 54.32 113.728 54.512C114.112 54.608 114.544 54.728 115.024 54.872C115.504 54.968 115.936 55.016 116.32 55.016ZM152.327 65.96C152.855 65.96 153.551 65.72 154.415 65.24C155.279 64.76 156.143 64.184 157.007 63.512C157.919 62.84 158.735 62.168 159.455 61.496C160.223 60.776 160.775 60.2 161.111 59.768C161.543 59.192 161.927 58.52 162.263 57.752C162.647 56.984 163.007 56.216 163.343 55.448C163.727 54.68 164.111 53.96 164.495 53.288C164.879 52.568 165.335 51.992 165.863 51.56C166.103 51.368 166.511 51.272 167.087 51.272C167.663 51.272 168.095 51.272 168.383 51.272C168.623 51.272 168.959 51.272 169.391 51.272C169.823 51.224 170.255 51.248 170.687 51.344C171.119 51.392 171.479 51.512 171.767 51.704C172.103 51.848 172.271 52.088 172.271 52.424C172.271 53 171.983 53.864 171.407 55.016C170.831 56.12 170.183 57.344 169.463 58.688C168.743 59.984 168.095 61.28 167.519 62.576C166.943 63.824 166.655 64.88 166.655 65.744C166.655 66.272 166.871 66.536 167.303 66.536C167.783 66.536 168.359 66.344 169.031 65.96C169.751 65.576 170.447 65.168 171.119 64.736C171.839 64.304 172.487 63.92 173.063 63.584C173.687 63.2 174.119 63.008 174.359 63.008V65.528C173.735 66.008 172.895 66.56 171.839 67.184C170.783 67.76 169.655 68.336 168.455 68.912C167.255 69.44 166.079 69.896 164.927 70.28C163.823 70.664 162.887 70.856 162.119 70.856C161.303 70.856 160.487 70.64 159.671 70.208C158.855 69.728 158.447 69.008 158.447 68.048C158.447 67.52 158.567 66.944 158.807 66.32C159.095 65.696 159.359 65.144 159.599 64.664C158.735 65.24 157.847 65.888 156.935 66.608C156.023 67.328 155.087 68.024 154.127 68.696C153.167 69.32 152.183 69.848 151.175 70.28C150.167 70.712 149.111 70.928 148.007 70.928C146.903 70.928 146.111 70.544 145.631 69.776C145.151 69.008 144.911 68.144 144.911 67.184C144.911 66.512 144.983 65.888 145.127 65.312C145.175 64.976 145.367 64.424 145.703 63.656C145.991 62.84 146.351 61.952 146.783 60.992C147.215 59.984 147.695 58.952 148.223 57.896C148.751 56.792 149.255 55.784 149.735 54.872C150.263 53.96 150.719 53.192 151.103 52.568C151.535 51.896 151.871 51.488 152.111 51.344C153.119 51.2 154.175 51.128 155.279 51.128C155.855 51.128 156.431 51.152 157.007 51.2C157.631 51.248 158.255 51.32 158.879 51.416C158.351 52.376 157.703 53.48 156.935 54.728C156.215 55.928 155.519 57.2 154.847 58.544C154.175 59.84 153.575 61.136 153.047 62.432C152.567 63.728 152.327 64.904 152.327 65.96ZM192.278 52.568C193.766 50.216 195.038 47.6 196.094 44.72C197.198 41.792 198.086 38.96 198.758 36.224C198.902 35.552 198.974 34.832 198.974 34.064C199.022 33.296 199.31 32.672 199.838 32.192C200.126 31.952 200.63 31.688 201.35 31.4C202.07 31.112 202.622 30.968 203.006 30.968C203.822 30.968 204.566 31.112 205.238 31.4C205.91 31.688 206.246 32.312 206.246 33.272C206.246 36.152 205.742 38.96 204.734 41.696C203.774 44.384 202.622 47.048 201.278 49.688C199.934 52.328 198.59 54.968 197.246 57.608C195.902 60.248 194.87 62.912 194.15 65.6C194.054 65.984 194.006 66.272 194.006 66.464C194.006 67.28 194.438 67.688 195.302 67.688C195.83 67.688 196.43 67.568 197.102 67.328C197.774 67.088 198.446 66.824 199.118 66.536C199.79 66.2 200.438 65.864 201.062 65.528C201.734 65.192 202.334 64.904 202.862 64.664L203.438 66.608C203.006 67.088 202.238 67.592 201.134 68.12C200.03 68.6 198.83 69.056 197.534 69.488C196.286 69.92 195.062 70.28 193.862 70.568C192.662 70.808 191.726 70.928 191.054 70.928C190.622 70.928 190.094 70.88 189.47 70.784C188.894 70.688 188.342 70.544 187.814 70.352C187.286 70.112 186.83 69.8 186.446 69.416C186.062 69.032 185.87 68.552 185.87 67.976V67.616C184.622 68.672 183.398 69.512 182.198 70.136C180.998 70.712 179.558 71 177.878 71C176.294 71 174.95 70.592 173.846 69.776C172.742 68.96 172.19 67.688 172.19 65.96C172.19 63.944 172.622 62.072 173.486 60.344C174.35 58.568 175.502 57.056 176.942 55.808C178.382 54.56 180.014 53.576 181.838 52.856C183.662 52.136 185.558 51.776 187.526 51.776C189.11 51.776 190.694 52.04 192.278 52.568ZM188.39 53.792C187.286 53.792 186.278 54.032 185.366 54.512C184.502 54.944 183.734 55.52 183.062 56.24C182.438 56.96 181.886 57.776 181.406 58.688C180.974 59.6 180.614 60.536 180.326 61.496C180.182 62.024 180.038 62.624 179.894 63.296C179.75 63.92 179.678 64.52 179.678 65.096C179.678 65.624 179.774 66.08 179.966 66.464C180.158 66.848 180.542 67.04 181.118 67.04C181.454 67.04 181.934 66.896 182.558 66.608C183.23 66.32 183.902 65.984 184.574 65.6C185.246 65.216 185.846 64.808 186.374 64.376C186.95 63.944 187.358 63.584 187.598 63.296C188.414 62.192 189.014 60.992 189.398 59.696C189.83 58.4 190.358 57.152 190.982 55.952C190.742 55.376 190.406 54.872 189.974 54.44C189.59 54.008 189.062 53.792 188.39 53.792ZM222.826 68.12C220.474 69.944 218.146 71.192 215.842 71.864C213.586 72.536 210.994 72.872 208.066 72.872C207.346 72.872 206.458 72.8 205.402 72.656C204.394 72.512 203.41 72.248 202.45 71.864C201.538 71.48 200.746 70.976 200.074 70.352C199.402 69.68 199.066 68.84 199.066 67.832C199.066 66.2 199.402 64.88 200.074 63.872C200.746 62.816 201.61 62 202.666 61.424C203.77 60.848 204.994 60.464 206.338 60.272C207.682 60.08 209.026 59.984 210.37 59.984C212.434 59.984 214.474 60.152 216.49 60.488C218.554 60.776 220.594 61.16 222.61 61.64C223.522 60.104 224.386 58.544 225.202 56.96C226.018 55.328 226.762 53.672 227.434 51.992C228.394 49.688 229.282 47.36 230.098 45.008C230.962 42.608 231.898 40.256 232.906 37.952C233.818 35.792 234.85 33.68 236.002 31.616C237.202 29.552 238.57 27.704 240.106 26.072C241.642 24.392 243.418 23.048 245.434 22.04C247.45 21.032 249.778 20.528 252.418 20.528C254.29 20.528 255.73 20.96 256.738 21.824C257.794 22.688 258.682 23.936 259.402 25.568C259.066 25.904 258.634 26.288 258.106 26.72C257.626 27.104 257.098 27.464 256.522 27.8C255.994 28.136 255.442 28.424 254.866 28.664C254.29 28.904 253.762 29.024 253.282 29.024H253.066C252.73 27.968 252.178 26.936 251.41 25.928C250.69 24.92 249.706 24.416 248.458 24.416C247.642 24.416 246.778 25.064 245.866 26.36C245.002 27.656 244.186 29.168 243.418 30.896C242.65 32.576 241.954 34.232 241.33 35.864C240.754 37.496 240.346 38.648 240.106 39.32C239.194 41.72 238.378 43.928 237.658 45.944C236.986 47.96 236.242 49.904 235.426 51.776C234.61 53.648 233.626 55.52 232.474 57.392C231.37 59.216 229.93 61.136 228.154 63.152C229.498 63.68 230.914 64.232 232.402 64.808C233.89 65.336 235.402 65.84 236.938 66.32C238.474 66.8 240.01 67.184 241.546 67.472C243.13 67.76 244.642 67.904 246.082 67.904C247.666 67.904 249.034 67.688 250.186 67.256C251.338 66.776 252.322 66.272 253.138 65.744C254.002 65.216 254.746 64.736 255.37 64.304C256.042 63.824 256.666 63.584 257.242 63.584C257.578 63.584 257.746 63.8 257.746 64.232C257.746 64.52 257.722 64.736 257.674 64.88C256.522 66.272 255.226 67.472 253.786 68.48C252.394 69.44 250.882 70.232 249.25 70.856C247.666 71.48 246.01 71.936 244.282 72.224C242.554 72.56 240.826 72.728 239.098 72.728C236.218 72.728 233.386 72.344 230.602 71.576C227.818 70.808 225.226 69.656 222.826 68.12ZM207.562 70.424C209.53 70.424 211.498 70.136 213.466 69.56C215.482 68.936 217.186 67.928 218.578 66.536C217.186 66.008 215.698 65.624 214.114 65.384C212.53 65.096 210.97 64.952 209.434 64.952C209.002 64.952 208.402 65.024 207.634 65.168C206.914 65.264 206.194 65.432 205.474 65.672C204.802 65.912 204.202 66.248 203.674 66.68C203.194 67.112 202.954 67.64 202.954 68.264C202.954 68.744 203.122 69.128 203.458 69.416C203.842 69.704 204.274 69.92 204.754 70.064C205.282 70.208 205.81 70.304 206.338 70.352C206.866 70.4 207.274 70.424 207.562 70.424ZM248.904 66.032C248.904 64.112 249.456 62.264 250.56 60.488C251.712 58.664 253.152 57.056 254.88 55.664C256.608 54.224 258.48 53.096 260.496 52.28C262.56 51.416 264.504 50.984 266.328 50.984C267 50.984 267.696 51.104 268.416 51.344C269.136 51.536 269.784 51.824 270.36 52.208C270.984 52.592 271.488 53.072 271.872 53.648C272.256 54.224 272.448 54.896 272.448 55.664C272.448 57.392 271.872 58.856 270.72 60.056C269.616 61.208 268.248 62.216 266.616 63.08C265.032 63.896 263.352 64.592 261.576 65.168C259.848 65.744 258.36 66.296 257.112 66.824C257.208 67.496 257.472 67.928 257.904 68.12C258.384 68.312 258.912 68.408 259.488 68.408C260.496 68.408 261.672 68.264 263.016 67.976C264.408 67.688 265.824 67.352 267.264 66.968C268.704 66.536 270.096 66.104 271.44 65.672C272.784 65.192 273.96 64.76 274.968 64.376C275.064 64.616 275.136 64.856 275.184 65.096C275.28 65.288 275.328 65.504 275.328 65.744C275.328 66.032 275.304 66.248 275.256 66.392C274.008 66.872 272.592 67.4 271.008 67.976C269.472 68.552 267.888 69.104 266.256 69.632C264.624 70.112 262.992 70.544 261.36 70.928C259.776 71.264 258.336 71.432 257.04 71.432C256.224 71.432 255.336 71.336 254.376 71.144C253.464 70.952 252.6 70.64 251.784 70.208C250.968 69.776 250.272 69.224 249.696 68.552C249.168 67.832 248.904 66.992 248.904 66.032ZM256.824 64.304C258.36 63.968 259.872 63.344 261.36 62.432C262.848 61.472 264.024 60.32 264.888 58.976C265.176 58.496 265.464 57.968 265.752 57.392C266.088 56.768 266.256 56.168 266.256 55.592C266.256 54.632 265.752 54.152 264.744 54.152C263.784 54.152 262.824 54.536 261.864 55.304C260.952 56.024 260.112 56.936 259.344 58.04C258.576 59.096 257.952 60.2 257.472 61.352C257.04 62.504 256.824 63.488 256.824 64.304ZM270.297 65.744C270.297 63.728 270.897 61.832 272.097 60.056C273.297 58.232 274.785 56.648 276.561 55.304C278.385 53.912 280.353 52.832 282.465 52.064C284.577 51.248 286.545 50.84 288.369 50.84C288.945 50.84 289.593 50.912 290.313 51.056C291.081 51.152 291.825 51.32 292.545 51.56C293.265 51.8 293.937 52.088 294.561 52.424C295.233 52.76 295.761 53.144 296.145 53.576C295.953 53.96 295.737 54.248 295.497 54.44C295.257 54.632 294.993 54.776 294.705 54.872C294.417 54.968 294.105 55.064 293.769 55.16C293.433 55.208 293.097 55.304 292.761 55.448C293.145 55.64 293.601 55.736 294.129 55.736C294.657 55.736 295.161 55.664 295.641 55.52C296.121 55.376 296.577 55.184 297.009 54.944C297.249 55.424 297.369 55.856 297.369 56.24C297.369 57.056 297.153 57.92 296.721 58.832C296.289 59.696 295.809 60.584 295.281 61.496C294.801 62.36 294.345 63.272 293.913 64.232C293.481 65.192 293.265 66.152 293.265 67.112H293.409C293.985 67.112 294.633 67.04 295.353 66.896C296.073 66.704 296.817 66.488 297.585 66.248C298.353 65.96 299.073 65.648 299.745 65.312C300.465 64.976 301.041 64.64 301.473 64.304C301.713 64.4 301.953 64.544 302.193 64.736C302.433 64.928 302.553 65.144 302.553 65.384C302.553 65.768 301.977 66.272 300.825 66.896C299.673 67.52 298.353 68.144 296.865 68.768C295.425 69.344 294.009 69.848 292.617 70.28C291.225 70.712 290.313 70.928 289.881 70.928C288.201 70.928 287.073 70.52 286.497 69.704C285.921 68.888 285.489 67.736 285.201 66.248C284.673 66.44 284.193 66.68 283.761 66.968C283.329 67.256 282.921 67.592 282.537 67.976C281.241 69.032 280.017 69.824 278.865 70.352C277.761 70.832 276.345 71.072 274.617 71.072C272.937 71.072 271.785 70.568 271.161 69.56C270.585 68.552 270.297 67.28 270.297 65.744ZM287.649 54.008C286.785 54.008 285.777 54.392 284.625 55.16C283.473 55.928 282.345 56.864 281.241 57.968C280.185 59.024 279.273 60.152 278.505 61.352C277.785 62.504 277.425 63.512 277.425 64.376C277.425 64.952 277.665 65.456 278.145 65.888C278.673 66.32 279.225 66.536 279.801 66.536C280.425 66.536 281.313 66.104 282.465 65.24C283.617 64.376 284.769 63.368 285.921 62.216C287.073 61.064 288.057 59.912 288.873 58.76C289.737 57.56 290.169 56.672 290.169 56.096C290.169 55.472 289.881 54.968 289.305 54.584C288.777 54.2 288.225 54.008 287.649 54.008ZM305.215 52.28C306.031 52.04 306.823 51.848 307.591 51.704C308.359 51.56 309.151 51.488 309.967 51.488C310.111 51.488 310.327 51.488 310.615 51.488C310.951 51.488 311.263 51.512 311.551 51.56C311.839 51.608 312.103 51.704 312.343 51.848C312.583 51.944 312.703 52.112 312.703 52.352C312.703 52.448 312.631 52.64 312.487 52.928C312.343 53.216 312.175 53.552 311.983 53.936C311.791 54.32 311.599 54.704 311.407 55.088C311.215 55.424 311.095 55.688 311.047 55.88C311.623 55.88 312.223 55.664 312.847 55.232C313.471 54.752 314.095 54.224 314.719 53.648C315.343 53.072 315.967 52.568 316.591 52.136C317.263 51.656 317.959 51.416 318.679 51.416C319.351 51.416 319.879 51.464 320.263 51.56C320.695 51.656 321.151 51.992 321.631 52.568C321.823 53.096 321.919 53.696 321.919 54.368C321.919 55.568 321.631 56.648 321.055 57.608C320.527 58.568 319.807 59.408 318.895 60.128C318.031 60.8 317.047 61.328 315.943 61.712C314.839 62.048 313.735 62.216 312.631 62.216C312.487 62.216 312.247 62.144 311.911 62C311.623 61.856 311.479 61.688 311.479 61.496C311.479 61.064 311.743 60.584 312.271 60.056C312.799 59.48 313.063 58.856 313.063 58.184C312.391 58.52 311.671 59.024 310.903 59.696C310.135 60.368 309.415 61.136 308.743 62C308.071 62.864 307.519 63.752 307.087 64.664C306.655 65.576 306.439 66.416 306.439 67.184C306.439 67.712 306.727 68.048 307.303 68.192C307.879 68.288 308.359 68.336 308.743 68.336C310.231 68.336 311.743 68.168 313.279 67.832C314.815 67.448 316.279 67.064 317.671 66.68C318.199 66.536 318.751 66.368 319.327 66.176C319.951 65.984 320.527 65.864 321.055 65.816H321.415C321.607 65.816 321.895 65.864 322.279 65.96C322.711 66.008 322.927 66.176 322.927 66.464C322.927 66.848 322.687 67.16 322.207 67.4C321.727 67.592 321.367 67.736 321.127 67.832C317.863 68.888 314.623 69.776 311.407 70.496C308.239 71.216 304.927 71.576 301.471 71.576C300.655 71.576 299.983 71.456 299.455 71.216C298.927 70.976 298.663 70.376 298.663 69.416C298.663 69.272 298.687 69.128 298.735 68.984C298.735 68.84 298.735 68.696 298.735 68.552C298.783 68.216 298.951 67.64 299.239 66.824C299.479 65.96 299.815 65 300.247 63.944C300.679 62.84 301.135 61.688 301.615 60.488C302.095 59.24 302.575 58.064 303.055 56.96C303.535 55.856 303.967 54.896 304.351 54.08C304.735 53.216 305.023 52.616 305.215 52.28ZM316.76 69.272C316.76 68.984 316.976 68.36 317.408 67.4C317.792 66.392 318.272 65.24 318.848 63.944C319.472 62.648 320.144 61.28 320.864 59.84C321.632 58.4 322.352 57.08 323.024 55.88C323.696 54.632 324.296 53.6 324.824 52.784C325.4 51.968 325.784 51.536 325.976 51.488C326.36 51.392 326.768 51.344 327.2 51.344C327.632 51.296 328.04 51.272 328.424 51.272C329.624 51.272 330.848 51.344 332.096 51.488C331.712 53.216 331.112 54.872 330.296 56.456C329.48 57.992 328.736 59.576 328.064 61.208C328.88 60.488 329.864 59.576 331.016 58.472C332.216 57.32 333.464 56.216 334.76 55.16C336.056 54.104 337.352 53.216 338.648 52.496C339.992 51.728 341.24 51.344 342.392 51.344C343.208 51.344 343.904 51.632 344.48 52.208C345.104 52.736 345.416 53.408 345.416 54.224C345.416 55.232 345.176 56.288 344.696 57.392C344.216 58.448 343.688 59.504 343.112 60.56C342.536 61.616 342.008 62.648 341.528 63.656C341.048 64.664 340.808 65.6 340.808 66.464C340.808 66.704 340.88 66.848 341.024 66.896C341.168 66.944 341.312 66.968 341.456 66.968C341.888 66.968 342.464 66.848 343.184 66.608C343.952 66.32 344.744 65.984 345.56 65.6C346.376 65.216 347.144 64.856 347.864 64.52C348.632 64.136 349.232 63.824 349.664 63.584C349.904 64.064 350.024 64.496 350.024 64.88C350.024 65.216 349.928 65.48 349.736 65.672C348.584 66.296 347.408 66.92 346.208 67.544C345.056 68.168 343.856 68.72 342.608 69.2C341.408 69.68 340.16 70.088 338.864 70.424C337.616 70.712 336.32 70.856 334.976 70.856C334.304 70.856 333.752 70.544 333.32 69.92C332.888 69.248 332.672 68.624 332.672 68.048C332.672 67.52 332.84 66.824 333.176 65.96C333.56 65.096 333.992 64.184 334.472 63.224C334.952 62.216 335.408 61.232 335.84 60.272C336.32 59.312 336.632 58.472 336.776 57.752C336.584 57.752 336.056 58.064 335.192 58.688C334.328 59.312 333.368 60.008 332.312 60.776C331.304 61.544 330.344 62.288 329.432 63.008C328.52 63.728 327.92 64.208 327.632 64.448C327.104 64.88 326.648 65.408 326.264 66.032C325.88 66.656 325.52 67.28 325.184 67.904C324.848 68.48 324.512 69.032 324.176 69.56C323.84 70.088 323.48 70.496 323.096 70.784C322.76 70.88 322.424 70.928 322.088 70.928C321.8 70.928 321.488 70.928 321.152 70.928C321.008 70.928 320.744 70.928 320.36 70.928C320.024 70.928 319.64 70.928 319.208 70.928C318.824 70.928 318.464 70.928 318.128 70.928C317.792 70.88 317.576 70.832 317.48 70.784C317 70.4 316.76 69.896 316.76 69.272Z" fill="white"/>
<path d="M30.1708 167.4C28.8641 168.413 27.5708 169.107 26.2908 169.48C25.0374 169.853 23.5974 170.04 21.9708 170.04C21.5708 170.04 21.0774 170 20.4908 169.92C19.9308 169.84 19.3841 169.693 18.8508 169.48C18.3441 169.267 17.9041 168.987 17.5308 168.64C17.1574 168.267 16.9708 167.8 16.9708 167.24C16.9708 166.333 17.1574 165.6 17.5308 165.04C17.9041 164.453 18.3841 164 18.9708 163.68C19.5841 163.36 20.2641 163.147 21.0108 163.04C21.7574 162.933 22.5041 162.88 23.2508 162.88C24.3974 162.88 25.5308 162.973 26.6508 163.16C27.7974 163.32 28.9308 163.533 30.0508 163.8C30.5574 162.947 31.0374 162.08 31.4908 161.2C31.9441 160.293 32.3574 159.373 32.7308 158.44C33.2641 157.16 33.7574 155.867 34.2108 154.56C34.6908 153.227 35.2108 151.92 35.7708 150.64C36.2774 149.44 36.8508 148.267 37.4908 147.12C38.1574 145.973 38.9174 144.947 39.7708 144.04C40.6241 143.107 41.6108 142.36 42.7308 141.8C43.8508 141.24 45.1441 140.96 46.6108 140.96C47.6508 140.96 48.4508 141.2 49.0108 141.68C49.5974 142.16 50.0908 142.853 50.4908 143.76C50.3041 143.947 50.0641 144.16 49.7708 144.4C49.5041 144.613 49.2108 144.813 48.8908 145C48.5974 145.187 48.2908 145.347 47.9708 145.48C47.6508 145.613 47.3574 145.68 47.0908 145.68H46.9708C46.7841 145.093 46.4774 144.52 46.0508 143.96C45.6508 143.4 45.1041 143.12 44.4108 143.12C43.9574 143.12 43.4774 143.48 42.9708 144.2C42.4908 144.92 42.0374 145.76 41.6108 146.72C41.1841 147.653 40.7974 148.573 40.4508 149.48C40.1308 150.387 39.9041 151.027 39.7708 151.4C39.2641 152.733 38.8108 153.96 38.4108 155.08C38.0374 156.2 37.6241 157.28 37.1708 158.32C36.7174 159.36 36.1708 160.4 35.5308 161.44C34.9174 162.453 34.1174 163.52 33.1308 164.64C33.8774 164.933 34.6641 165.24 35.4908 165.56C36.3174 165.853 37.1574 166.133 38.0108 166.4C38.8641 166.667 39.7174 166.88 40.5708 167.04C41.4508 167.2 42.2908 167.28 43.0908 167.28C43.9708 167.28 44.7308 167.16 45.3708 166.92C46.0108 166.653 46.5574 166.373 47.0108 166.08C47.4908 165.787 47.9041 165.52 48.2508 165.28C48.6241 165.013 48.9708 164.88 49.2908 164.88C49.4774 164.88 49.5708 165 49.5708 165.24C49.5708 165.4 49.5574 165.52 49.5308 165.6C48.8908 166.373 48.1708 167.04 47.3708 167.6C46.5974 168.133 45.7574 168.573 44.8508 168.92C43.9708 169.267 43.0508 169.52 42.0908 169.68C41.1308 169.867 40.1708 169.96 39.2108 169.96C37.6108 169.96 36.0374 169.747 34.4908 169.32C32.9441 168.893 31.5041 168.253 30.1708 167.4ZM21.6908 168.68C22.7841 168.68 23.8774 168.52 24.9708 168.2C26.0908 167.853 27.0374 167.293 27.8108 166.52C27.0374 166.227 26.2108 166.013 25.3308 165.88C24.4508 165.72 23.5841 165.64 22.7308 165.64C22.4908 165.64 22.1574 165.68 21.7308 165.76C21.3308 165.813 20.9308 165.907 20.5308 166.04C20.1574 166.173 19.8241 166.36 19.5308 166.6C19.2641 166.84 19.1308 167.133 19.1308 167.48C19.1308 167.747 19.2241 167.96 19.4108 168.12C19.6241 168.28 19.8641 168.4 20.1308 168.48C20.4241 168.56 20.7174 168.613 21.0108 168.64C21.3041 168.667 21.5308 168.68 21.6908 168.68ZM44.6586 166.24C44.6586 165.173 44.9653 164.147 45.5786 163.16C46.2186 162.147 47.0186 161.253 47.9786 160.48C48.9386 159.68 49.9786 159.053 51.0986 158.6C52.2453 158.12 53.3253 157.88 54.3386 157.88C54.7119 157.88 55.0986 157.947 55.4986 158.08C55.8986 158.187 56.2586 158.347 56.5786 158.56C56.9253 158.773 57.2053 159.04 57.4186 159.36C57.6319 159.68 57.7386 160.053 57.7386 160.48C57.7386 161.44 57.4186 162.253 56.7786 162.92C56.1653 163.56 55.4053 164.12 54.4986 164.6C53.6186 165.053 52.6853 165.44 51.6986 165.76C50.7386 166.08 49.9119 166.387 49.2186 166.68C49.2719 167.053 49.4186 167.293 49.6586 167.4C49.9253 167.507 50.2186 167.56 50.5386 167.56C51.0986 167.56 51.7519 167.48 52.4986 167.32C53.2719 167.16 54.0586 166.973 54.8586 166.76C55.6586 166.52 56.4319 166.28 57.1786 166.04C57.9253 165.773 58.5786 165.533 59.1386 165.32C59.1919 165.453 59.2319 165.587 59.2586 165.72C59.3119 165.827 59.3386 165.947 59.3386 166.08C59.3386 166.24 59.3253 166.36 59.2986 166.44C58.6053 166.707 57.8186 167 56.9386 167.32C56.0853 167.64 55.2053 167.947 54.2986 168.24C53.3919 168.507 52.4853 168.747 51.5786 168.96C50.6986 169.147 49.8986 169.24 49.1786 169.24C48.7253 169.24 48.2319 169.187 47.6986 169.08C47.1919 168.973 46.7119 168.8 46.2586 168.56C45.8053 168.32 45.4186 168.013 45.0986 167.64C44.8053 167.24 44.6586 166.773 44.6586 166.24ZM49.0586 165.28C49.9119 165.093 50.7519 164.747 51.5786 164.24C52.4053 163.707 53.0586 163.067 53.5386 162.32C53.6986 162.053 53.8586 161.76 54.0186 161.44C54.2053 161.093 54.2986 160.76 54.2986 160.44C54.2986 159.907 54.0186 159.64 53.4586 159.64C52.9253 159.64 52.3919 159.853 51.8586 160.28C51.3519 160.68 50.8853 161.187 50.4586 161.8C50.0319 162.387 49.6853 163 49.4186 163.64C49.1786 164.28 49.0586 164.827 49.0586 165.28ZM56.5436 166.08C56.5436 164.96 56.8769 163.907 57.5436 162.92C58.2103 161.907 59.0369 161.027 60.0236 160.28C61.0369 159.507 62.1303 158.907 63.3036 158.48C64.4769 158.027 65.5703 157.8 66.5836 157.8C66.9036 157.8 67.2636 157.84 67.6636 157.92C68.0903 157.973 68.5036 158.067 68.9036 158.2C69.3036 158.333 69.6769 158.493 70.0236 158.68C70.3969 158.867 70.6903 159.08 70.9036 159.32C70.7969 159.533 70.6769 159.693 70.5436 159.8C70.4103 159.907 70.2636 159.987 70.1036 160.04C69.9436 160.093 69.7703 160.147 69.5836 160.2C69.3969 160.227 69.2103 160.28 69.0236 160.36C69.2369 160.467 69.4903 160.52 69.7836 160.52C70.0769 160.52 70.3569 160.48 70.6236 160.4C70.8903 160.32 71.1436 160.213 71.3836 160.08C71.5169 160.347 71.5836 160.587 71.5836 160.8C71.5836 161.253 71.4636 161.733 71.2236 162.24C70.9836 162.72 70.7169 163.213 70.4236 163.72C70.1569 164.2 69.9036 164.707 69.6636 165.24C69.4236 165.773 69.3036 166.307 69.3036 166.84H69.3836C69.7036 166.84 70.0636 166.8 70.4636 166.72C70.8636 166.613 71.2769 166.493 71.7036 166.36C72.1303 166.2 72.5303 166.027 72.9036 165.84C73.3036 165.653 73.6236 165.467 73.8636 165.28C73.9969 165.333 74.1303 165.413 74.2636 165.52C74.3969 165.627 74.4636 165.747 74.4636 165.88C74.4636 166.093 74.1436 166.373 73.5036 166.72C72.8636 167.067 72.1303 167.413 71.3036 167.76C70.5036 168.08 69.7169 168.36 68.9436 168.6C68.1703 168.84 67.6636 168.96 67.4236 168.96C66.4903 168.96 65.8636 168.733 65.5436 168.28C65.2236 167.827 64.9836 167.187 64.8236 166.36C64.5303 166.467 64.2636 166.6 64.0236 166.76C63.7836 166.92 63.5569 167.107 63.3436 167.32C62.6236 167.907 61.9436 168.347 61.3036 168.64C60.6903 168.907 59.9036 169.04 58.9436 169.04C58.0103 169.04 57.3703 168.76 57.0236 168.2C56.7036 167.64 56.5436 166.933 56.5436 166.08ZM66.1836 159.56C65.7036 159.56 65.1436 159.773 64.5036 160.2C63.8636 160.627 63.2369 161.147 62.6236 161.76C62.0369 162.347 61.5303 162.973 61.1036 163.64C60.7036 164.28 60.5036 164.84 60.5036 165.32C60.5036 165.64 60.6369 165.92 60.9036 166.16C61.1969 166.4 61.5036 166.52 61.8236 166.52C62.1703 166.52 62.6636 166.28 63.3036 165.8C63.9436 165.32 64.5836 164.76 65.2236 164.12C65.8636 163.48 66.4103 162.84 66.8636 162.2C67.3436 161.533 67.5836 161.04 67.5836 160.72C67.5836 160.373 67.4236 160.093 67.1036 159.88C66.8103 159.667 66.5036 159.56 66.1836 159.56ZM75.9423 158.6C76.3957 158.467 76.8357 158.36 77.2623 158.28C77.689 158.2 78.129 158.16 78.5823 158.16C78.6623 158.16 78.7823 158.16 78.9423 158.16C79.129 158.16 79.3023 158.173 79.4623 158.2C79.6223 158.227 79.769 158.28 79.9023 158.36C80.0357 158.413 80.1023 158.507 80.1023 158.64C80.1023 158.693 80.0623 158.8 79.9823 158.96C79.9023 159.12 79.809 159.307 79.7023 159.52C79.5957 159.733 79.489 159.947 79.3823 160.16C79.2757 160.347 79.209 160.493 79.1823 160.6C79.5023 160.6 79.8357 160.48 80.1823 160.24C80.529 159.973 80.8757 159.68 81.2223 159.36C81.569 159.04 81.9157 158.76 82.2623 158.52C82.6357 158.253 83.0223 158.12 83.4223 158.12C83.7957 158.12 84.089 158.147 84.3023 158.2C84.5423 158.253 84.7957 158.44 85.0623 158.76C85.169 159.053 85.2223 159.387 85.2223 159.76C85.2223 160.427 85.0623 161.027 84.7423 161.56C84.449 162.093 84.049 162.56 83.5423 162.96C83.0623 163.333 82.5157 163.627 81.9023 163.84C81.289 164.027 80.6757 164.12 80.0623 164.12C79.9823 164.12 79.849 164.08 79.6623 164C79.5023 163.92 79.4223 163.827 79.4223 163.72C79.4223 163.48 79.569 163.213 79.8623 162.92C80.1557 162.6 80.3023 162.253 80.3023 161.88C79.929 162.067 79.529 162.347 79.1023 162.72C78.6757 163.093 78.2757 163.52 77.9023 164C77.529 164.48 77.2223 164.973 76.9823 165.48C76.7423 165.987 76.6223 166.453 76.6223 166.88C76.6223 167.173 76.7823 167.36 77.1023 167.44C77.4223 167.493 77.689 167.52 77.9023 167.52C78.729 167.52 79.569 167.427 80.4223 167.24C81.2757 167.027 82.089 166.813 82.8623 166.6C83.1557 166.52 83.4623 166.427 83.7823 166.32C84.129 166.213 84.449 166.147 84.7423 166.12H84.9423C85.049 166.12 85.209 166.147 85.4223 166.2C85.6623 166.227 85.7823 166.32 85.7823 166.48C85.7823 166.693 85.649 166.867 85.3823 167C85.1157 167.107 84.9157 167.187 84.7823 167.24C82.969 167.827 81.169 168.32 79.3823 168.72C77.6223 169.12 75.7823 169.32 73.8623 169.32C73.409 169.32 73.0357 169.253 72.7423 169.12C72.449 168.987 72.3023 168.653 72.3023 168.12C72.3023 168.04 72.3157 167.96 72.3423 167.88C72.3423 167.8 72.3423 167.72 72.3423 167.64C72.369 167.453 72.4623 167.133 72.6223 166.68C72.7557 166.2 72.9423 165.667 73.1823 165.08C73.4223 164.467 73.6757 163.827 73.9423 163.16C74.209 162.467 74.4757 161.813 74.7423 161.2C75.009 160.587 75.249 160.053 75.4623 159.6C75.6757 159.12 75.8357 158.787 75.9423 158.6ZM82.3561 168.04C82.3561 167.88 82.4761 167.533 82.7161 167C82.9294 166.44 83.1961 165.8 83.5161 165.08C83.8628 164.36 84.2361 163.6 84.6361 162.8C85.0628 162 85.4628 161.267 85.8361 160.6C86.2094 159.907 86.5428 159.333 86.8361 158.88C87.1561 158.427 87.3694 158.187 87.4761 158.16C87.6894 158.107 87.9161 158.08 88.1561 158.08C88.3961 158.053 88.6228 158.04 88.8361 158.04C89.5028 158.04 90.1828 158.08 90.8761 158.16C90.6628 159.12 90.3294 160.04 89.8761 160.92C89.4228 161.773 89.0094 162.653 88.6361 163.56C89.0894 163.16 89.6361 162.653 90.2761 162.04C90.9428 161.4 91.6361 160.787 92.3561 160.2C93.0761 159.613 93.7961 159.12 94.5161 158.72C95.2628 158.293 95.9561 158.08 96.5961 158.08C97.0494 158.08 97.4361 158.24 97.7561 158.56C98.1028 158.853 98.2761 159.227 98.2761 159.68C98.2761 160.24 98.1428 160.827 97.8761 161.44C97.6094 162.027 97.3161 162.613 96.9961 163.2C96.6761 163.787 96.3828 164.36 96.1161 164.92C95.8494 165.48 95.7161 166 95.7161 166.48C95.7161 166.613 95.7561 166.693 95.8361 166.72C95.9161 166.747 95.9961 166.76 96.0761 166.76C96.3161 166.76 96.6361 166.693 97.0361 166.56C97.4628 166.4 97.9028 166.213 98.3561 166C98.8094 165.787 99.2361 165.587 99.6361 165.4C100.063 165.187 100.396 165.013 100.636 164.88C100.769 165.147 100.836 165.387 100.836 165.6C100.836 165.787 100.783 165.933 100.676 166.04C100.036 166.387 99.3828 166.733 98.7161 167.08C98.0761 167.427 97.4094 167.733 96.7161 168C96.0494 168.267 95.3561 168.493 94.6361 168.68C93.9428 168.84 93.2228 168.92 92.4761 168.92C92.1028 168.92 91.7961 168.747 91.5561 168.4C91.3161 168.027 91.1961 167.68 91.1961 167.36C91.1961 167.067 91.2894 166.68 91.4761 166.2C91.6894 165.72 91.9294 165.213 92.1961 164.68C92.4628 164.12 92.7161 163.573 92.9561 163.04C93.2228 162.507 93.3961 162.04 93.4761 161.64C93.3694 161.64 93.0761 161.813 92.5961 162.16C92.1161 162.507 91.5828 162.893 90.9961 163.32C90.4361 163.747 89.9028 164.16 89.3961 164.56C88.8894 164.96 88.5561 165.227 88.3961 165.36C88.1028 165.6 87.8494 165.893 87.6361 166.24C87.4228 166.587 87.2228 166.933 87.0361 167.28C86.8494 167.6 86.6628 167.907 86.4761 168.2C86.2894 168.493 86.0894 168.72 85.8761 168.88C85.6894 168.933 85.5028 168.96 85.3161 168.96C85.1561 168.96 84.9828 168.96 84.7961 168.96C84.7161 168.96 84.5694 168.96 84.3561 168.96C84.1694 168.96 83.9561 168.96 83.7161 168.96C83.5028 168.96 83.3028 168.96 83.1161 168.96C82.9294 168.933 82.8094 168.907 82.7561 168.88C82.4894 168.667 82.3561 168.387 82.3561 168.04ZM99.0767 166.96C99.0767 166.64 99.2367 166.053 99.5567 165.2C99.8767 164.32 100.25 163.413 100.677 162.48C101.13 161.52 101.57 160.653 101.997 159.88C102.45 159.107 102.81 158.653 103.077 158.52C103.397 158.387 103.823 158.28 104.357 158.2C104.917 158.093 105.383 158.04 105.757 158.04C105.97 158.04 106.17 158.053 106.357 158.08C106.543 158.107 106.717 158.16 106.877 158.24C106.797 158.613 106.677 159 106.517 159.4C106.357 159.773 106.197 160.147 106.037 160.52C105.743 161.187 105.437 161.853 105.117 162.52C104.797 163.16 104.477 163.813 104.157 164.48C103.97 164.853 103.783 165.24 103.597 165.64C103.41 166.013 103.25 166.387 103.117 166.76L103.517 167C103.943 167 104.357 166.92 104.757 166.76C105.183 166.6 105.61 166.427 106.037 166.24C106.463 166.027 106.877 165.84 107.277 165.68C107.703 165.493 108.143 165.4 108.597 165.4C108.677 165.453 108.77 165.507 108.877 165.56C108.983 165.613 109.037 165.707 109.037 165.84C109.037 165.92 109.023 165.987 108.997 166.04C108.943 166.173 108.73 166.347 108.357 166.56C107.983 166.747 107.53 166.96 106.997 167.2C106.49 167.413 105.917 167.627 105.277 167.84C104.663 168.053 104.077 168.253 103.517 168.44C102.957 168.627 102.45 168.773 101.997 168.88C101.543 168.987 101.237 169.04 101.077 169.04C100.303 169.04 99.77 168.88 99.4767 168.56C99.21 168.24 99.0767 167.707 99.0767 166.96ZM104.997 153.76C104.997 153.387 105.077 152.96 105.237 152.48C105.397 152 105.61 151.56 105.877 151.16C106.143 150.733 106.463 150.387 106.837 150.12C107.21 149.827 107.623 149.68 108.077 149.68C108.61 149.68 108.997 149.893 109.237 150.32C109.477 150.747 109.597 151.187 109.597 151.64C109.597 152.04 109.517 152.48 109.357 152.96C109.197 153.413 108.97 153.84 108.677 154.24C108.41 154.64 108.077 154.973 107.677 155.24C107.303 155.507 106.903 155.64 106.477 155.64C105.943 155.64 105.557 155.44 105.317 155.04C105.103 154.64 104.997 154.213 104.997 153.76ZM106.615 168.04C106.615 167.88 106.735 167.533 106.975 167C107.189 166.44 107.455 165.8 107.775 165.08C108.122 164.36 108.495 163.6 108.895 162.8C109.322 162 109.722 161.267 110.095 160.6C110.469 159.907 110.802 159.333 111.095 158.88C111.415 158.427 111.629 158.187 111.735 158.16C111.949 158.107 112.175 158.08 112.415 158.08C112.655 158.053 112.882 158.04 113.095 158.04C113.762 158.04 114.442 158.08 115.135 158.16C114.922 159.12 114.589 160.04 114.135 160.92C113.682 161.773 113.269 162.653 112.895 163.56C113.349 163.16 113.895 162.653 114.535 162.04C115.202 161.4 115.895 160.787 116.615 160.2C117.335 159.613 118.055 159.12 118.775 158.72C119.522 158.293 120.215 158.08 120.855 158.08C121.309 158.08 121.695 158.24 122.015 158.56C122.362 158.853 122.535 159.227 122.535 159.68C122.535 160.24 122.402 160.827 122.135 161.44C121.869 162.027 121.575 162.613 121.255 163.2C120.935 163.787 120.642 164.36 120.375 164.92C120.109 165.48 119.975 166 119.975 166.48C119.975 166.613 120.015 166.693 120.095 166.72C120.175 166.747 120.255 166.76 120.335 166.76C120.575 166.76 120.895 166.693 121.295 166.56C121.722 166.4 122.162 166.213 122.615 166C123.069 165.787 123.495 165.587 123.895 165.4C124.322 165.187 124.655 165.013 124.895 164.88C125.029 165.147 125.095 165.387 125.095 165.6C125.095 165.787 125.042 165.933 124.935 166.04C124.295 166.387 123.642 166.733 122.975 167.08C122.335 167.427 121.669 167.733 120.975 168C120.309 168.267 119.615 168.493 118.895 168.68C118.202 168.84 117.482 168.92 116.735 168.92C116.362 168.92 116.055 168.747 115.815 168.4C115.575 168.027 115.455 167.68 115.455 167.36C115.455 167.067 115.549 166.68 115.735 166.2C115.949 165.72 116.189 165.213 116.455 164.68C116.722 164.12 116.975 163.573 117.215 163.04C117.482 162.507 117.655 162.04 117.735 161.64C117.629 161.64 117.335 161.813 116.855 162.16C116.375 162.507 115.842 162.893 115.255 163.32C114.695 163.747 114.162 164.16 113.655 164.56C113.149 164.96 112.815 165.227 112.655 165.36C112.362 165.6 112.109 165.893 111.895 166.24C111.682 166.587 111.482 166.933 111.295 167.28C111.109 167.6 110.922 167.907 110.735 168.2C110.549 168.493 110.349 168.72 110.135 168.88C109.949 168.933 109.762 168.96 109.575 168.96C109.415 168.96 109.242 168.96 109.055 168.96C108.975 168.96 108.829 168.96 108.615 168.96C108.429 168.96 108.215 168.96 107.975 168.96C107.762 168.96 107.562 168.96 107.375 168.96C107.189 168.933 107.069 168.907 107.015 168.88C106.749 168.667 106.615 168.387 106.615 168.04ZM123.176 166.4C123.176 166.187 123.189 165.973 123.216 165.76C123.243 165.547 123.296 165.333 123.376 165.12C124.229 162.693 125.616 160.933 127.536 159.84C129.456 158.747 131.656 158.2 134.136 158.2C134.669 158.2 135.256 158.293 135.896 158.48C136.536 158.64 137.069 158.867 137.496 159.16C137.656 159.4 137.816 159.653 137.976 159.92C138.136 160.16 138.309 160.4 138.496 160.64C138.496 160.693 138.496 160.747 138.496 160.8C138.523 160.827 138.536 160.867 138.536 160.92C138.536 161.16 138.389 161.573 138.096 162.16C137.829 162.747 137.536 163.373 137.216 164.04C136.896 164.68 136.589 165.28 136.296 165.84C136.029 166.4 135.896 166.773 135.896 166.96C135.896 167.013 135.909 167.04 135.936 167.04C135.989 167.04 136.029 167.053 136.056 167.08C136.109 167.107 136.163 167.12 136.216 167.12C136.483 167.12 136.816 167.04 137.216 166.88C137.643 166.693 138.069 166.493 138.496 166.28C138.923 166.04 139.323 165.84 139.696 165.68C140.069 165.493 140.336 165.4 140.496 165.4C140.576 165.4 140.683 165.547 140.816 165.84C140.976 166.107 141.083 166.267 141.136 166.32C140.923 166.48 140.669 166.613 140.376 166.72C140.083 166.827 139.816 166.947 139.576 167.08C138.883 167.373 138.189 167.653 137.496 167.92C136.803 168.187 136.109 168.467 135.416 168.76C135.336 168.787 135.229 168.933 135.096 169.2C134.963 169.467 134.816 169.76 134.656 170.08C134.496 170.4 134.336 170.707 134.176 171C134.043 171.32 133.949 171.533 133.896 171.64C133.496 172.333 133.016 172.987 132.456 173.6C131.896 174.24 131.269 174.8 130.576 175.28C129.909 175.76 129.189 176.133 128.416 176.4C127.643 176.693 126.843 176.84 126.016 176.84C125.616 176.84 125.269 176.827 124.976 176.8C124.709 176.8 124.496 176.733 124.336 176.6C124.176 176.493 124.056 176.32 123.976 176.08C123.896 175.84 123.856 175.493 123.856 175.04C123.856 174.267 124.016 173.613 124.336 173.08C124.683 172.547 125.109 172.08 125.616 171.68C126.149 171.28 126.723 170.933 127.336 170.64C127.949 170.347 128.549 170.067 129.136 169.8C129.429 169.667 129.736 169.52 130.056 169.36C130.403 169.2 130.696 169.013 130.936 168.8C131.016 168.747 131.096 168.613 131.176 168.4C131.283 168.16 131.376 167.907 131.456 167.64C131.536 167.373 131.616 167.12 131.696 166.88C131.776 166.613 131.856 166.413 131.936 166.28C131.563 166.627 131.136 166.973 130.656 167.32C130.176 167.667 129.656 167.973 129.096 168.24C128.563 168.507 128.003 168.733 127.416 168.92C126.856 169.08 126.323 169.16 125.816 169.16C124.989 169.16 124.336 168.907 123.856 168.4C123.403 167.867 123.176 167.2 123.176 166.4ZM133.256 159.68C132.696 159.68 132.083 159.893 131.416 160.32C130.749 160.747 130.123 161.28 129.536 161.92C128.976 162.533 128.496 163.2 128.096 163.92C127.723 164.613 127.536 165.24 127.536 165.8C127.536 166.093 127.603 166.28 127.736 166.36C127.896 166.44 128.109 166.48 128.376 166.48C129.043 166.48 129.696 166.293 130.336 165.92C130.976 165.52 131.576 165.027 132.136 164.44C132.696 163.853 133.203 163.24 133.656 162.6C134.109 161.933 134.469 161.333 134.736 160.8C134.603 160.587 134.389 160.347 134.096 160.08C133.803 159.813 133.523 159.68 133.256 159.68ZM130.256 170.2C129.909 170.28 129.536 170.453 129.136 170.72C128.736 171.013 128.363 171.347 128.016 171.72C127.696 172.12 127.416 172.533 127.176 172.96C126.963 173.387 126.856 173.773 126.856 174.12C126.856 174.253 126.883 174.36 126.936 174.44C127.016 174.547 127.123 174.6 127.256 174.6C127.523 174.6 127.816 174.413 128.136 174.04C128.483 173.693 128.789 173.267 129.056 172.76C129.349 172.28 129.603 171.787 129.816 171.28C130.029 170.8 130.176 170.44 130.256 170.2ZM148.181 150.44C148.181 149.213 148.355 147.96 148.701 146.68C149.075 145.4 149.621 144.253 150.341 143.24C151.061 142.227 151.955 141.4 153.021 140.76C154.088 140.093 155.328 139.76 156.741 139.76C157.888 139.76 158.888 140.027 159.741 140.56C160.621 141.093 161.368 141.787 161.981 142.64C162.621 143.493 163.155 144.48 163.581 145.6C164.008 146.693 164.341 147.827 164.581 149C164.848 150.147 165.035 151.28 165.141 152.4C165.248 153.493 165.301 154.467 165.301 155.32C165.301 156.493 165.221 157.693 165.061 158.92C164.901 160.147 164.728 161.347 164.541 162.52C164.968 162.04 165.381 161.547 165.781 161.04C166.181 160.533 166.608 160.053 167.061 159.6C167.755 158.827 168.461 158.08 169.181 157.36C169.928 156.64 170.661 155.92 171.381 155.2C171.328 154.24 171.261 153.32 171.181 152.44C171.128 151.56 171.035 150.707 170.901 149.88C170.768 149.027 170.595 148.187 170.381 147.36C170.168 146.507 169.888 145.613 169.541 144.68C169.541 144.653 169.528 144.64 169.501 144.64C169.501 144.613 169.501 144.587 169.501 144.56C169.501 144.427 169.581 144.307 169.741 144.2C169.928 144.093 170.061 144.013 170.141 143.96C170.595 143.587 171.061 143.253 171.541 142.96C172.021 142.667 172.568 142.52 173.181 142.52C173.448 142.52 173.648 142.533 173.781 142.56C174.501 144.507 174.955 146.533 175.141 148.64C175.355 150.747 175.461 152.84 175.461 154.92C175.461 155.907 175.448 156.893 175.421 157.88C175.421 158.84 175.408 159.813 175.381 160.8C175.515 160.693 175.688 160.52 175.901 160.28C176.115 160.04 176.315 159.787 176.501 159.52C176.715 159.227 176.915 158.96 177.101 158.72C177.288 158.453 177.435 158.24 177.541 158.08C177.728 157.813 178.008 157.413 178.381 156.88C178.755 156.347 179.181 155.76 179.661 155.12C180.141 154.48 180.635 153.827 181.141 153.16C181.675 152.493 182.195 151.88 182.701 151.32C183.235 150.76 183.728 150.307 184.181 149.96C184.661 149.613 185.061 149.44 185.381 149.44C185.621 149.44 185.808 149.56 185.941 149.8C186.075 150.013 186.141 150.227 186.141 150.44C186.141 150.813 186.128 151.2 186.101 151.6C186.075 151.973 185.955 152.333 185.741 152.68C185.608 152.893 185.395 153.133 185.101 153.4C184.835 153.64 184.541 153.88 184.221 154.12C183.901 154.36 183.581 154.6 183.261 154.84C182.941 155.053 182.675 155.24 182.461 155.4C182.221 155.587 181.981 155.773 181.741 155.96C181.501 156.147 181.261 156.347 181.021 156.56C179.661 157.787 178.475 159.147 177.461 160.64C176.448 162.133 175.515 163.68 174.661 165.28C174.448 165.68 174.235 166.16 174.021 166.72C173.835 167.28 173.595 167.813 173.301 168.32C173.035 168.8 172.701 169.213 172.301 169.56C171.928 169.933 171.461 170.12 170.901 170.12C170.715 170.12 170.515 170 170.301 169.76C170.115 169.52 170.021 169.307 170.021 169.12C170.021 168.88 170.048 168.6 170.101 168.28C170.155 167.933 170.221 167.587 170.301 167.24C170.381 166.867 170.461 166.507 170.541 166.16C170.621 165.787 170.688 165.48 170.741 165.24C170.955 164.04 171.128 162.867 171.261 161.72C171.395 160.547 171.461 159.36 171.461 158.16C171.461 157.947 171.448 157.733 171.421 157.52C171.421 157.307 171.421 157.093 171.421 156.88C170.648 157.44 169.835 158.213 168.981 159.2C168.155 160.16 167.328 161.2 166.501 162.32C165.701 163.44 164.928 164.56 164.181 165.68C163.435 166.773 162.768 167.72 162.181 168.52C161.915 168.893 161.608 169.24 161.261 169.56C160.941 169.907 160.541 170.08 160.061 170.08C159.581 170.08 159.288 169.933 159.181 169.64C159.075 169.373 159.021 169.04 159.021 168.64C159.021 168.08 159.088 167.493 159.221 166.88C159.355 166.267 159.488 165.68 159.621 165.12C159.888 163.76 160.155 162.387 160.421 161C160.688 159.613 160.821 158.227 160.821 156.84C160.821 155.693 160.755 154.4 160.621 152.96C160.515 151.52 160.275 150.107 159.901 148.72C159.528 147.307 158.995 146.013 158.301 144.84C157.608 143.667 156.688 142.787 155.541 142.2C155.328 142.093 155.061 142.04 154.741 142.04C154.181 142.04 153.701 142.173 153.301 142.44C152.928 142.707 152.621 143.053 152.381 143.48C152.168 143.88 152.008 144.333 151.901 144.84C151.821 145.32 151.781 145.8 151.781 146.28C151.781 147.507 151.981 148.693 152.381 149.84C152.781 150.96 153.221 152.08 153.701 153.2C153.755 153.307 153.848 153.48 153.981 153.72C154.115 153.96 154.248 154.213 154.381 154.48C154.541 154.747 154.675 154.987 154.781 155.2C154.915 155.413 154.981 155.547 154.981 155.6C154.981 155.813 154.848 156.093 154.581 156.44C154.341 156.76 154.048 157.093 153.701 157.44C153.381 157.787 153.048 158.12 152.701 158.44C152.381 158.733 152.128 158.933 151.941 159.04H151.421C151.101 158.693 150.741 158.147 150.341 157.4C149.968 156.627 149.621 155.813 149.301 154.96C148.981 154.08 148.715 153.227 148.501 152.4C148.288 151.573 148.181 150.92 148.181 150.44ZM176.141 167.04C177.261 167.093 178.328 166.987 179.341 166.72C180.355 166.453 181.368 166.107 182.381 165.68C182.461 165.653 182.635 165.587 182.901 165.48C183.168 165.347 183.435 165.213 183.701 165.08C183.995 164.947 184.248 164.84 184.461 164.76C184.701 164.653 184.848 164.6 184.901 164.6C185.035 164.6 185.168 164.627 185.301 164.68C185.461 164.707 185.541 164.8 185.541 164.96C185.541 165.173 185.408 165.4 185.141 165.64C184.901 165.88 184.688 166.053 184.501 166.16C183.941 166.48 183.315 166.813 182.621 167.16C181.928 167.48 181.221 167.787 180.501 168.08C179.781 168.347 179.048 168.573 178.301 168.76C177.581 168.947 176.901 169.04 176.261 169.04C176.048 169.04 175.861 168.987 175.701 168.88C175.541 168.773 175.395 168.653 175.261 168.52C175.261 168.147 175.341 167.867 175.501 167.68C175.688 167.493 175.901 167.28 176.141 167.04ZM184.022 166.96C184.022 166.64 184.182 166.053 184.502 165.2C184.822 164.32 185.195 163.413 185.622 162.48C186.075 161.52 186.515 160.653 186.942 159.88C187.395 159.107 187.755 158.653 188.022 158.52C188.342 158.387 188.769 158.28 189.302 158.2C189.862 158.093 190.329 158.04 190.702 158.04C190.915 158.04 191.115 158.053 191.302 158.08C191.489 158.107 191.662 158.16 191.822 158.24C191.742 158.613 191.622 159 191.462 159.4C191.302 159.773 191.142 160.147 190.982 160.52C190.689 161.187 190.382 161.853 190.062 162.52C189.742 163.16 189.422 163.813 189.102 164.48C188.915 164.853 188.729 165.24 188.542 165.64C188.355 166.013 188.195 166.387 188.062 166.76L188.462 167C188.889 167 189.302 166.92 189.702 166.76C190.129 166.6 190.555 166.427 190.982 166.24C191.409 166.027 191.822 165.84 192.222 165.68C192.649 165.493 193.089 165.4 193.542 165.4C193.622 165.453 193.715 165.507 193.822 165.56C193.929 165.613 193.982 165.707 193.982 165.84C193.982 165.92 193.969 165.987 193.942 166.04C193.889 166.173 193.675 166.347 193.302 166.56C192.929 166.747 192.475 166.96 191.942 167.2C191.435 167.413 190.862 167.627 190.222 167.84C189.609 168.053 189.022 168.253 188.462 168.44C187.902 168.627 187.395 168.773 186.942 168.88C186.489 168.987 186.182 169.04 186.022 169.04C185.249 169.04 184.715 168.88 184.422 168.56C184.155 168.24 184.022 167.707 184.022 166.96ZM189.942 153.76C189.942 153.387 190.022 152.96 190.182 152.48C190.342 152 190.555 151.56 190.822 151.16C191.089 150.733 191.409 150.387 191.782 150.12C192.155 149.827 192.569 149.68 193.022 149.68C193.555 149.68 193.942 149.893 194.182 150.32C194.422 150.747 194.542 151.187 194.542 151.64C194.542 152.04 194.462 152.48 194.302 152.96C194.142 153.413 193.915 153.84 193.622 154.24C193.355 154.64 193.022 154.973 192.622 155.24C192.249 155.507 191.849 155.64 191.422 155.64C190.889 155.64 190.502 155.44 190.262 155.04C190.049 154.64 189.942 154.213 189.942 153.76ZM200.081 151.72C200.374 151.507 200.721 151.36 201.121 151.28C201.547 151.173 201.934 151.12 202.281 151.12C202.574 151.12 202.867 151.16 203.161 151.24C203.481 151.32 203.747 151.467 203.961 151.68C203.961 151.84 203.827 152.187 203.561 152.72C203.321 153.227 203.041 153.8 202.721 154.44C202.427 155.053 202.134 155.68 201.841 156.32C201.574 156.933 201.401 157.413 201.321 157.76C201.614 157.707 201.907 157.653 202.201 157.6C202.521 157.547 202.827 157.52 203.121 157.52C203.254 157.52 203.361 157.533 203.441 157.56C203.547 157.56 203.667 157.573 203.801 157.6C203.854 157.76 203.907 157.92 203.961 158.08C204.041 158.213 204.081 158.373 204.081 158.56C204.081 158.667 203.921 158.76 203.601 158.84C203.281 158.92 202.921 158.987 202.521 159.04C202.121 159.093 201.734 159.16 201.361 159.24C201.014 159.293 200.801 159.36 200.721 159.44C200.614 159.573 200.507 159.733 200.401 159.92C200.321 160.08 200.241 160.227 200.161 160.36C199.974 160.68 199.721 161.133 199.401 161.72C199.107 162.28 198.814 162.88 198.521 163.52C198.227 164.133 197.974 164.747 197.761 165.36C197.547 165.947 197.441 166.413 197.441 166.76C197.441 166.973 197.481 167.12 197.561 167.2C197.667 167.253 197.827 167.28 198.041 167.28C198.521 167.28 199.134 167.133 199.881 166.84C200.627 166.547 201.361 166.227 202.081 165.88C202.801 165.507 203.441 165.173 204.001 164.88C204.587 164.56 204.961 164.4 205.121 164.4C205.281 164.4 205.414 164.467 205.521 164.6C205.627 164.733 205.681 164.867 205.681 165V165.12C205.121 165.547 204.401 165.987 203.521 166.44C202.641 166.867 201.707 167.267 200.721 167.64C199.761 167.987 198.801 168.28 197.841 168.52C196.881 168.76 196.054 168.88 195.361 168.88C195.121 168.88 194.854 168.853 194.561 168.8C194.294 168.72 194.041 168.613 193.801 168.48C193.587 168.347 193.401 168.187 193.241 168C193.081 167.787 193.001 167.533 193.001 167.24C193.001 166.627 193.107 166.013 193.321 165.4C193.561 164.76 193.841 164.147 194.161 163.56C194.507 162.947 194.854 162.347 195.201 161.76C195.574 161.173 195.894 160.613 196.161 160.08C195.894 160.16 195.534 160.267 195.081 160.4C194.627 160.507 194.267 160.56 194.001 160.56H193.961L193.841 159.4C194.294 159.187 194.774 159.027 195.281 158.92C195.787 158.813 196.267 158.667 196.721 158.48C197.307 157.36 197.841 156.227 198.321 155.08C198.801 153.907 199.387 152.787 200.081 151.72ZM200.968 168.12C200.968 167.827 201.221 167.067 201.728 165.84C202.208 164.587 202.821 163.093 203.568 161.36C204.341 159.6 205.181 157.72 206.088 155.72C207.021 153.693 207.915 151.747 208.768 149.88C209.621 148.013 210.381 146.347 211.048 144.88C211.715 143.413 212.181 142.347 212.448 141.68C212.608 141.253 212.741 140.893 212.848 140.6C212.981 140.28 213.328 140.12 213.888 140.12C214.261 140.12 214.621 140.08 214.968 140C215.341 139.92 215.715 139.88 216.088 139.88C216.301 139.88 216.541 139.933 216.808 140.04C217.075 140.147 217.208 140.347 217.208 140.64C217.208 141.253 217.048 142.04 216.728 143C216.435 143.933 216.035 144.96 215.528 146.08C215.048 147.2 214.501 148.36 213.888 149.56C213.301 150.733 212.701 151.88 212.088 153C211.501 154.12 210.941 155.147 210.408 156.08C209.901 157.013 209.488 157.773 209.168 158.36C208.635 159.293 208.101 160.253 207.568 161.24C207.035 162.2 206.581 163.187 206.208 164.2C206.795 163.773 207.461 163.227 208.208 162.56C208.955 161.893 209.728 161.24 210.528 160.6C211.355 159.96 212.181 159.413 213.008 158.96C213.835 158.48 214.621 158.24 215.368 158.24C215.715 158.24 216.088 158.333 216.488 158.52C216.915 158.707 217.128 159.013 217.128 159.44C217.128 160.107 216.981 160.787 216.688 161.48C216.421 162.147 216.115 162.813 215.768 163.48C215.448 164.12 215.155 164.72 214.888 165.28C214.621 165.84 214.501 166.333 214.528 166.76C214.688 166.84 214.848 166.88 215.008 166.88C215.301 166.88 215.595 166.813 215.888 166.68C216.208 166.547 216.515 166.4 216.808 166.24C217.128 166.053 217.435 165.893 217.728 165.76C218.048 165.627 218.341 165.56 218.608 165.56C218.795 165.56 218.995 165.6 219.208 165.68C219.261 165.733 219.301 165.8 219.328 165.88C219.381 165.96 219.408 166.027 219.408 166.08C219.408 166.213 219.288 166.347 219.048 166.48C218.808 166.613 218.648 166.707 218.568 166.76C217.501 167.347 216.381 167.867 215.208 168.32C214.035 168.747 212.848 169.027 211.648 169.16H211.368C210.941 169.16 210.501 169.08 210.048 168.92C209.595 168.733 209.368 168.373 209.368 167.84C209.368 167.52 209.501 167.093 209.768 166.56C210.061 166.027 210.368 165.467 210.688 164.88C211.008 164.267 211.301 163.693 211.568 163.16C211.861 162.6 212.008 162.16 212.008 161.84C212.008 161.68 211.915 161.6 211.728 161.6C211.515 161.6 211.301 161.707 211.088 161.92C210.768 162.213 210.448 162.52 210.128 162.84C209.808 163.133 209.475 163.427 209.128 163.72C208.808 163.96 208.448 164.24 208.048 164.56C207.675 164.853 207.288 165.173 206.888 165.52C206.515 165.84 206.155 166.173 205.808 166.52C205.488 166.867 205.221 167.213 205.008 167.56C204.875 167.773 204.768 168.013 204.688 168.28C204.635 168.52 204.501 168.733 204.288 168.92C203.888 169 203.488 169.04 203.088 169.04C202.768 169.04 202.448 169.027 202.128 169C201.808 168.973 201.488 168.96 201.168 168.96C201.035 168.693 200.968 168.413 200.968 168.12ZM232.389 165.28C232.096 165.547 231.763 165.813 231.389 166.08C231.016 166.347 230.603 166.587 230.149 166.8C229.723 166.987 229.283 167.147 228.829 167.28C228.403 167.387 227.989 167.44 227.589 167.44C227.483 167.44 227.376 167.44 227.269 167.44C227.163 167.44 227.056 167.413 226.949 167.36C226.176 167.893 225.336 168.307 224.429 168.6C223.523 168.893 222.603 169.04 221.669 169.04C221.029 169.04 220.416 169 219.829 168.92C219.269 168.813 218.763 168.627 218.309 168.36C217.883 168.067 217.549 167.693 217.309 167.24C217.043 166.76 216.909 166.133 216.909 165.36C216.909 164.293 217.229 163.307 217.869 162.4C218.483 161.493 219.256 160.72 220.189 160.08C221.123 159.413 222.136 158.907 223.229 158.56C224.323 158.187 225.349 158 226.309 158C226.843 158 227.269 158.027 227.589 158.08C227.936 158.133 228.243 158.227 228.509 158.36C228.776 158.493 229.029 158.667 229.269 158.88C229.509 159.093 229.816 159.347 230.189 159.64C230.029 160.093 229.789 160.4 229.469 160.56C229.149 160.693 228.763 160.76 228.309 160.76H228.069C227.909 160.387 227.723 160.08 227.509 159.84C227.323 159.573 227.003 159.44 226.549 159.44C226.016 159.44 225.429 159.6 224.789 159.92C224.176 160.24 223.603 160.653 223.069 161.16C222.536 161.64 222.083 162.173 221.709 162.76C221.363 163.347 221.189 163.92 221.189 164.48C221.189 165.147 221.336 165.76 221.629 166.32C221.949 166.853 222.496 167.12 223.269 167.12C224.043 167.12 224.816 166.907 225.589 166.48C225.323 166.187 225.109 165.867 224.949 165.52C224.789 165.147 224.709 164.76 224.709 164.36C224.709 163.48 225.029 162.76 225.669 162.2C226.309 161.613 227.056 161.32 227.909 161.32C228.469 161.32 228.936 161.48 229.309 161.8C229.709 162.093 229.909 162.547 229.909 163.16C229.909 163.693 229.776 164.2 229.509 164.68C229.243 165.16 228.936 165.587 228.589 165.96C228.776 165.933 229.043 165.853 229.389 165.72C229.763 165.56 230.136 165.387 230.509 165.2C230.883 164.987 231.243 164.787 231.589 164.6C231.936 164.413 232.203 164.253 232.389 164.12V164.44V165.28ZM227.269 165.2C227.509 164.96 227.776 164.667 228.069 164.32C228.363 163.947 228.509 163.573 228.509 163.2C228.509 163.067 228.469 162.947 228.389 162.84C228.309 162.707 228.189 162.64 228.029 162.64C227.709 162.64 227.429 162.84 227.189 163.24C226.976 163.613 226.869 163.947 226.869 164.24C226.869 164.64 227.003 164.96 227.269 165.2ZM233.634 166.2C233.928 166.2 234.314 166.067 234.794 165.8C235.274 165.533 235.754 165.213 236.234 164.84C236.741 164.467 237.194 164.093 237.594 163.72C238.021 163.32 238.328 163 238.514 162.76C238.754 162.44 238.968 162.067 239.154 161.64C239.368 161.213 239.568 160.787 239.754 160.36C239.968 159.933 240.181 159.533 240.394 159.16C240.608 158.76 240.861 158.44 241.154 158.2C241.288 158.093 241.514 158.04 241.834 158.04C242.154 158.04 242.394 158.04 242.554 158.04C242.688 158.04 242.874 158.04 243.114 158.04C243.354 158.013 243.594 158.027 243.834 158.08C244.074 158.107 244.274 158.173 244.434 158.28C244.621 158.36 244.714 158.493 244.714 158.68C244.714 159 244.554 159.48 244.234 160.12C243.914 160.733 243.554 161.413 243.154 162.16C242.754 162.88 242.394 163.6 242.074 164.32C241.754 165.013 241.594 165.6 241.594 166.08C241.594 166.373 241.714 166.52 241.954 166.52C242.221 166.52 242.541 166.413 242.914 166.2C243.314 165.987 243.701 165.76 244.074 165.52C244.474 165.28 244.834 165.067 245.154 164.88C245.501 164.667 245.741 164.56 245.874 164.56V165.96C245.528 166.227 245.061 166.533 244.474 166.88C243.888 167.2 243.261 167.52 242.594 167.84C241.928 168.133 241.274 168.387 240.634 168.6C240.021 168.813 239.501 168.92 239.074 168.92C238.621 168.92 238.168 168.8 237.714 168.56C237.261 168.293 237.034 167.893 237.034 167.36C237.034 167.067 237.101 166.747 237.234 166.4C237.394 166.053 237.541 165.747 237.674 165.48C237.194 165.8 236.701 166.16 236.194 166.56C235.688 166.96 235.168 167.347 234.634 167.72C234.101 168.067 233.554 168.36 232.994 168.6C232.434 168.84 231.848 168.96 231.234 168.96C230.621 168.96 230.181 168.747 229.914 168.32C229.648 167.893 229.514 167.413 229.514 166.88C229.514 166.507 229.554 166.16 229.634 165.84C229.661 165.653 229.768 165.347 229.954 164.92C230.114 164.467 230.314 163.973 230.554 163.44C230.794 162.88 231.061 162.307 231.354 161.72C231.648 161.107 231.928 160.547 232.194 160.04C232.488 159.533 232.741 159.107 232.954 158.76C233.194 158.387 233.381 158.16 233.514 158.08C234.074 158 234.661 157.96 235.274 157.96C235.594 157.96 235.914 157.973 236.234 158C236.581 158.027 236.928 158.067 237.274 158.12C236.981 158.653 236.621 159.267 236.194 159.96C235.794 160.627 235.408 161.333 235.034 162.08C234.661 162.8 234.328 163.52 234.034 164.24C233.768 164.96 233.634 165.613 233.634 166.2ZM252.35 151.72C252.643 151.507 252.99 151.36 253.39 151.28C253.816 151.173 254.203 151.12 254.55 151.12C254.843 151.12 255.136 151.16 255.43 151.24C255.75 151.32 256.016 151.467 256.23 151.68C256.23 151.84 256.096 152.187 255.83 152.72C255.59 153.227 255.31 153.8 254.99 154.44C254.696 155.053 254.403 155.68 254.11 156.32C253.843 156.933 253.67 157.413 253.59 157.76C253.883 157.707 254.176 157.653 254.47 157.6C254.79 157.547 255.096 157.52 255.39 157.52C255.523 157.52 255.63 157.533 255.71 157.56C255.816 157.56 255.936 157.573 256.07 157.6C256.123 157.76 256.176 157.92 256.23 158.08C256.31 158.213 256.35 158.373 256.35 158.56C256.35 158.667 256.19 158.76 255.87 158.84C255.55 158.92 255.19 158.987 254.79 159.04C254.39 159.093 254.003 159.16 253.63 159.24C253.283 159.293 253.07 159.36 252.99 159.44C252.883 159.573 252.776 159.733 252.67 159.92C252.59 160.08 252.51 160.227 252.43 160.36C252.243 160.68 251.99 161.133 251.67 161.72C251.376 162.28 251.083 162.88 250.79 163.52C250.496 164.133 250.243 164.747 250.03 165.36C249.816 165.947 249.71 166.413 249.71 166.76C249.71 166.973 249.75 167.12 249.83 167.2C249.936 167.253 250.096 167.28 250.31 167.28C250.79 167.28 251.403 167.133 252.15 166.84C252.896 166.547 253.63 166.227 254.35 165.88C255.07 165.507 255.71 165.173 256.27 164.88C256.856 164.56 257.23 164.4 257.39 164.4C257.55 164.4 257.683 164.467 257.79 164.6C257.896 164.733 257.95 164.867 257.95 165V165.12C257.39 165.547 256.67 165.987 255.79 166.44C254.91 166.867 253.976 167.267 252.99 167.64C252.03 167.987 251.07 168.28 250.11 168.52C249.15 168.76 248.323 168.88 247.63 168.88C247.39 168.88 247.123 168.853 246.83 168.8C246.563 168.72 246.31 168.613 246.07 168.48C245.856 168.347 245.67 168.187 245.51 168C245.35 167.787 245.27 167.533 245.27 167.24C245.27 166.627 245.376 166.013 245.59 165.4C245.83 164.76 246.11 164.147 246.43 163.56C246.776 162.947 247.123 162.347 247.47 161.76C247.843 161.173 248.163 160.613 248.43 160.08C248.163 160.16 247.803 160.267 247.35 160.4C246.896 160.507 246.536 160.56 246.27 160.56H246.23L246.11 159.4C246.563 159.187 247.043 159.027 247.55 158.92C248.056 158.813 248.536 158.667 248.99 158.48C249.576 157.36 250.11 156.227 250.59 155.08C251.07 153.907 251.656 152.787 252.35 151.72ZM281.718 155.68C281.638 155.68 281.571 155.627 281.518 155.52C280.744 154.027 280.358 152.44 280.358 150.76C280.358 149.187 280.731 147.627 281.478 146.08C282.011 145.013 282.678 144.08 283.478 143.28C284.304 142.48 285.211 141.827 286.198 141.32C287.211 140.813 288.278 140.44 289.398 140.2C290.518 139.933 291.664 139.8 292.838 139.8C293.824 139.8 294.878 139.853 295.998 139.96C297.144 140.04 298.198 140.267 299.158 140.64C300.144 141.013 300.958 141.573 301.598 142.32C302.238 143.067 302.558 144.093 302.558 145.4C302.558 146.093 302.438 146.733 302.198 147.32C301.958 147.907 301.638 148.453 301.238 148.96C300.838 149.44 300.371 149.88 299.838 150.28C299.331 150.653 298.784 150.987 298.198 151.28C299.558 151.973 300.651 152.867 301.478 153.96C302.304 155.027 302.718 156.347 302.718 157.92C302.718 159.413 302.358 160.933 301.638 162.48C300.944 164.027 300.024 165.427 298.878 166.68C297.731 167.933 296.424 168.947 294.958 169.72C293.491 170.52 291.984 170.92 290.438 170.92C288.758 170.92 287.384 170.427 286.318 169.44C285.251 168.48 284.438 167.253 283.878 165.76C284.038 165.6 284.278 165.387 284.598 165.12C284.944 164.827 285.304 164.547 285.678 164.28C286.051 164.013 286.424 163.787 286.798 163.6C287.171 163.413 287.478 163.32 287.718 163.32C288.064 163.32 288.251 163.48 288.278 163.8C288.304 164.093 288.344 164.347 288.398 164.56C288.611 165.84 289.091 166.787 289.838 167.4C290.611 167.987 291.638 168.28 292.918 168.28C293.984 168.28 294.851 168 295.518 167.44C296.211 166.853 296.744 166.133 297.118 165.28C297.518 164.4 297.784 163.467 297.918 162.48C298.078 161.493 298.158 160.587 298.158 159.76C298.158 158.64 297.958 157.707 297.558 156.96C297.184 156.213 296.664 155.627 295.998 155.2C295.358 154.773 294.598 154.48 293.718 154.32C292.838 154.133 291.904 154.04 290.918 154.04C290.811 154.04 290.744 154.067 290.718 154.12C290.691 154.173 290.651 154.227 290.598 154.28C289.451 156.2 288.184 158.173 286.798 160.2C285.438 162.227 283.918 164.08 282.238 165.76C280.558 167.44 278.678 168.813 276.598 169.88C274.544 170.947 272.264 171.48 269.758 171.48C269.384 171.48 269.024 171.427 268.678 171.32C268.358 171.24 268.038 171.133 267.718 171C266.518 170.413 265.664 169.56 265.158 168.44C264.651 167.32 264.398 166.12 264.398 164.84C264.398 164.76 264.411 164.6 264.438 164.36C264.464 164.12 264.491 163.867 264.518 163.6C264.544 163.307 264.571 163.04 264.598 162.8C264.651 162.533 264.678 162.36 264.678 162.28C264.704 161.987 264.758 161.533 264.838 160.92C264.944 160.28 265.091 159.64 265.278 159C265.464 158.333 265.691 157.747 265.958 157.24C266.251 156.707 266.598 156.4 266.998 156.32C267.184 156.267 267.371 156.24 267.558 156.24C267.744 156.24 267.931 156.24 268.118 156.24C268.838 156.187 269.558 156.12 270.278 156.04C271.024 155.96 271.744 155.813 272.438 155.6L272.878 155.64C272.878 155.96 272.651 156.4 272.198 156.96C271.744 157.52 271.238 158.2 270.678 159C270.144 159.8 269.651 160.72 269.198 161.76C268.744 162.8 268.518 163.973 268.518 165.28C268.518 165.733 268.584 166.187 268.718 166.64C268.878 167.093 269.091 167.52 269.358 167.92C269.624 168.293 269.958 168.6 270.358 168.84C270.758 169.08 271.198 169.2 271.678 169.2C272.798 169.2 273.878 168.947 274.918 168.44C275.984 167.907 276.984 167.227 277.918 166.4C278.851 165.547 279.731 164.587 280.558 163.52C281.384 162.427 282.144 161.32 282.838 160.2C283.558 159.053 284.198 157.947 284.758 156.88C285.344 155.787 285.864 154.813 286.318 153.96C287.171 152.28 287.984 150.613 288.758 148.96C289.558 147.28 290.344 145.6 291.118 143.92C291.864 143.787 292.584 143.68 293.278 143.6C293.998 143.52 294.744 143.48 295.518 143.48C295.358 144.227 295.131 145.013 294.838 145.84C294.544 146.64 294.211 147.44 293.838 148.24C293.491 149.04 293.104 149.827 292.678 150.6C292.278 151.347 291.878 152.053 291.478 152.72H291.718C292.624 152.72 293.464 152.493 294.238 152.04C295.011 151.587 295.678 151.013 296.238 150.32C296.824 149.6 297.278 148.813 297.598 147.96C297.918 147.08 298.078 146.213 298.078 145.36C298.078 144 297.678 142.973 296.878 142.28C296.104 141.587 295.051 141.24 293.718 141.24C292.704 141.24 291.638 141.427 290.518 141.8C289.424 142.173 288.411 142.693 287.478 143.36C286.571 144.027 285.811 144.827 285.198 145.76C284.611 146.693 284.318 147.72 284.318 148.84C284.318 149.293 284.358 149.747 284.438 150.2C284.518 150.627 284.598 151.067 284.678 151.52C284.704 151.653 284.731 151.8 284.758 151.96C284.811 152.12 284.838 152.28 284.838 152.44C284.838 152.52 284.691 152.747 284.398 153.12C284.104 153.467 283.771 153.827 283.398 154.2C283.024 154.573 282.664 154.92 282.318 155.24C281.998 155.533 281.798 155.68 281.718 155.68ZM315.733 165.28C315.44 165.547 315.106 165.813 314.733 166.08C314.36 166.347 313.946 166.587 313.493 166.8C313.066 166.987 312.626 167.147 312.173 167.28C311.746 167.387 311.333 167.44 310.933 167.44C310.826 167.44 310.72 167.44 310.613 167.44C310.506 167.44 310.4 167.413 310.293 167.36C309.52 167.893 308.68 168.307 307.773 168.6C306.866 168.893 305.946 169.04 305.013 169.04C304.373 169.04 303.76 169 303.173 168.92C302.613 168.813 302.106 168.627 301.653 168.36C301.226 168.067 300.893 167.693 300.653 167.24C300.386 166.76 300.253 166.133 300.253 165.36C300.253 164.293 300.573 163.307 301.213 162.4C301.826 161.493 302.6 160.72 303.533 160.08C304.466 159.413 305.48 158.907 306.573 158.56C307.666 158.187 308.693 158 309.653 158C310.186 158 310.613 158.027 310.933 158.08C311.28 158.133 311.586 158.227 311.853 158.36C312.12 158.493 312.373 158.667 312.613 158.88C312.853 159.093 313.16 159.347 313.533 159.64C313.373 160.093 313.133 160.4 312.813 160.56C312.493 160.693 312.106 160.76 311.653 160.76H311.413C311.253 160.387 311.066 160.08 310.853 159.84C310.666 159.573 310.346 159.44 309.893 159.44C309.36 159.44 308.773 159.6 308.133 159.92C307.52 160.24 306.946 160.653 306.413 161.16C305.88 161.64 305.426 162.173 305.053 162.76C304.706 163.347 304.533 163.92 304.533 164.48C304.533 165.147 304.68 165.76 304.973 166.32C305.293 166.853 305.84 167.12 306.613 167.12C307.386 167.12 308.16 166.907 308.933 166.48C308.666 166.187 308.453 165.867 308.293 165.52C308.133 165.147 308.053 164.76 308.053 164.36C308.053 163.48 308.373 162.76 309.013 162.2C309.653 161.613 310.4 161.32 311.253 161.32C311.813 161.32 312.28 161.48 312.653 161.8C313.053 162.093 313.253 162.547 313.253 163.16C313.253 163.693 313.12 164.2 312.853 164.68C312.586 165.16 312.28 165.587 311.933 165.96C312.12 165.933 312.386 165.853 312.733 165.72C313.106 165.56 313.48 165.387 313.853 165.2C314.226 164.987 314.586 164.787 314.933 164.6C315.28 164.413 315.546 164.253 315.733 164.12V164.44V165.28ZM310.613 165.2C310.853 164.96 311.12 164.667 311.413 164.32C311.706 163.947 311.853 163.573 311.853 163.2C311.853 163.067 311.813 162.947 311.733 162.84C311.653 162.707 311.533 162.64 311.373 162.64C311.053 162.64 310.773 162.84 310.533 163.24C310.32 163.613 310.213 163.947 310.213 164.24C310.213 164.64 310.346 164.96 310.613 165.2ZM316.978 166.2C317.271 166.2 317.658 166.067 318.138 165.8C318.618 165.533 319.098 165.213 319.578 164.84C320.085 164.467 320.538 164.093 320.938 163.72C321.365 163.32 321.671 163 321.858 162.76C322.098 162.44 322.311 162.067 322.498 161.64C322.711 161.213 322.911 160.787 323.098 160.36C323.311 159.933 323.525 159.533 323.738 159.16C323.951 158.76 324.205 158.44 324.498 158.2C324.631 158.093 324.858 158.04 325.178 158.04C325.498 158.04 325.738 158.04 325.898 158.04C326.031 158.04 326.218 158.04 326.458 158.04C326.698 158.013 326.938 158.027 327.178 158.08C327.418 158.107 327.618 158.173 327.778 158.28C327.965 158.36 328.058 158.493 328.058 158.68C328.058 159 327.898 159.48 327.578 160.12C327.258 160.733 326.898 161.413 326.498 162.16C326.098 162.88 325.738 163.6 325.418 164.32C325.098 165.013 324.938 165.6 324.938 166.08C324.938 166.373 325.058 166.52 325.298 166.52C325.565 166.52 325.885 166.413 326.258 166.2C326.658 165.987 327.045 165.76 327.418 165.52C327.818 165.28 328.178 165.067 328.498 164.88C328.845 164.667 329.085 164.56 329.218 164.56V165.96C328.871 166.227 328.405 166.533 327.818 166.88C327.231 167.2 326.605 167.52 325.938 167.84C325.271 168.133 324.618 168.387 323.978 168.6C323.365 168.813 322.845 168.92 322.418 168.92C321.965 168.92 321.511 168.8 321.058 168.56C320.605 168.293 320.378 167.893 320.378 167.36C320.378 167.067 320.445 166.747 320.578 166.4C320.738 166.053 320.885 165.747 321.018 165.48C320.538 165.8 320.045 166.16 319.538 166.56C319.031 166.96 318.511 167.347 317.978 167.72C317.445 168.067 316.898 168.36 316.338 168.6C315.778 168.84 315.191 168.96 314.578 168.96C313.965 168.96 313.525 168.747 313.258 168.32C312.991 167.893 312.858 167.413 312.858 166.88C312.858 166.507 312.898 166.16 312.978 165.84C313.005 165.653 313.111 165.347 313.298 164.92C313.458 164.467 313.658 163.973 313.898 163.44C314.138 162.88 314.405 162.307 314.698 161.72C314.991 161.107 315.271 160.547 315.538 160.04C315.831 159.533 316.085 159.107 316.298 158.76C316.538 158.387 316.725 158.16 316.858 158.08C317.418 158 318.005 157.96 318.618 157.96C318.938 157.96 319.258 157.973 319.578 158C319.925 158.027 320.271 158.067 320.618 158.12C320.325 158.653 319.965 159.267 319.538 159.96C319.138 160.627 318.751 161.333 318.378 162.08C318.005 162.8 317.671 163.52 317.378 164.24C317.111 164.96 316.978 165.613 316.978 166.2ZM327.173 168.04C327.173 167.88 327.293 167.533 327.533 167C327.747 166.44 328.013 165.8 328.333 165.08C328.68 164.36 329.053 163.6 329.453 162.8C329.88 162 330.28 161.267 330.653 160.6C331.027 159.907 331.36 159.333 331.653 158.88C331.973 158.427 332.187 158.187 332.293 158.16C332.507 158.107 332.733 158.08 332.973 158.08C333.213 158.053 333.44 158.04 333.653 158.04C334.32 158.04 335 158.08 335.693 158.16C335.48 159.12 335.147 160.04 334.693 160.92C334.24 161.773 333.827 162.653 333.453 163.56C333.907 163.16 334.453 162.653 335.093 162.04C335.76 161.4 336.453 160.787 337.173 160.2C337.893 159.613 338.613 159.12 339.333 158.72C340.08 158.293 340.773 158.08 341.413 158.08C341.867 158.08 342.253 158.24 342.573 158.56C342.92 158.853 343.093 159.227 343.093 159.68C343.093 160.24 342.96 160.827 342.693 161.44C342.427 162.027 342.133 162.613 341.813 163.2C341.493 163.787 341.2 164.36 340.933 164.92C340.667 165.48 340.533 166 340.533 166.48C340.533 166.613 340.573 166.693 340.653 166.72C340.733 166.747 340.813 166.76 340.893 166.76C341.133 166.76 341.453 166.693 341.853 166.56C342.28 166.4 342.72 166.213 343.173 166C343.627 165.787 344.053 165.587 344.453 165.4C344.88 165.187 345.213 165.013 345.453 164.88C345.587 165.147 345.653 165.387 345.653 165.6C345.653 165.787 345.6 165.933 345.493 166.04C344.853 166.387 344.2 166.733 343.533 167.08C342.893 167.427 342.227 167.733 341.533 168C340.867 168.267 340.173 168.493 339.453 168.68C338.76 168.84 338.04 168.92 337.293 168.92C336.92 168.92 336.613 168.747 336.373 168.4C336.133 168.027 336.013 167.68 336.013 167.36C336.013 167.067 336.107 166.68 336.293 166.2C336.507 165.72 336.747 165.213 337.013 164.68C337.28 164.12 337.533 163.573 337.773 163.04C338.04 162.507 338.213 162.04 338.293 161.64C338.187 161.64 337.893 161.813 337.413 162.16C336.933 162.507 336.4 162.893 335.813 163.32C335.253 163.747 334.72 164.16 334.213 164.56C333.707 164.96 333.373 165.227 333.213 165.36C332.92 165.6 332.667 165.893 332.453 166.24C332.24 166.587 332.04 166.933 331.853 167.28C331.667 167.6 331.48 167.907 331.293 168.2C331.107 168.493 330.907 168.72 330.693 168.88C330.507 168.933 330.32 168.96 330.133 168.96C329.973 168.96 329.8 168.96 329.613 168.96C329.533 168.96 329.387 168.96 329.173 168.96C328.987 168.96 328.773 168.96 328.533 168.96C328.32 168.96 328.12 168.96 327.933 168.96C327.747 168.933 327.627 168.907 327.573 168.88C327.307 168.667 327.173 168.387 327.173 168.04ZM355.014 158.76C355.841 157.453 356.547 156 357.134 154.4C357.747 152.773 358.241 151.2 358.614 149.68C358.694 149.307 358.734 148.907 358.734 148.48C358.761 148.053 358.921 147.707 359.214 147.44C359.374 147.307 359.654 147.16 360.054 147C360.454 146.84 360.761 146.76 360.974 146.76C361.427 146.76 361.841 146.84 362.214 147C362.587 147.16 362.774 147.507 362.774 148.04C362.774 149.64 362.494 151.2 361.934 152.72C361.401 154.213 360.761 155.693 360.014 157.16C359.267 158.627 358.521 160.093 357.774 161.56C357.027 163.027 356.454 164.507 356.054 166C356.001 166.213 355.974 166.373 355.974 166.48C355.974 166.933 356.214 167.16 356.694 167.16C356.987 167.16 357.321 167.093 357.694 166.96C358.067 166.827 358.441 166.68 358.814 166.52C359.187 166.333 359.547 166.147 359.894 165.96C360.267 165.773 360.601 165.613 360.894 165.48L361.214 166.56C360.974 166.827 360.547 167.107 359.934 167.4C359.321 167.667 358.654 167.92 357.934 168.16C357.241 168.4 356.561 168.6 355.894 168.76C355.227 168.893 354.707 168.96 354.334 168.96C354.094 168.96 353.801 168.933 353.454 168.88C353.134 168.827 352.827 168.747 352.534 168.64C352.241 168.507 351.987 168.333 351.774 168.12C351.561 167.907 351.454 167.64 351.454 167.32V167.12C350.761 167.707 350.081 168.173 349.414 168.52C348.747 168.84 347.947 169 347.014 169C346.134 169 345.387 168.773 344.774 168.32C344.161 167.867 343.854 167.16 343.854 166.2C343.854 165.08 344.094 164.04 344.574 163.08C345.054 162.093 345.694 161.253 346.494 160.56C347.294 159.867 348.201 159.32 349.214 158.92C350.227 158.52 351.281 158.32 352.374 158.32C353.254 158.32 354.134 158.467 355.014 158.76ZM352.854 159.44C352.241 159.44 351.681 159.573 351.174 159.84C350.694 160.08 350.267 160.4 349.894 160.8C349.547 161.2 349.241 161.653 348.974 162.16C348.734 162.667 348.534 163.187 348.374 163.72C348.294 164.013 348.214 164.347 348.134 164.72C348.054 165.067 348.014 165.4 348.014 165.72C348.014 166.013 348.067 166.267 348.174 166.48C348.281 166.693 348.494 166.8 348.814 166.8C349.001 166.8 349.267 166.72 349.614 166.56C349.987 166.4 350.361 166.213 350.734 166C351.107 165.787 351.441 165.56 351.734 165.32C352.054 165.08 352.281 164.88 352.414 164.72C352.867 164.107 353.201 163.44 353.414 162.72C353.654 162 353.947 161.307 354.294 160.64C354.161 160.32 353.974 160.04 353.734 159.8C353.521 159.56 353.227 159.44 352.854 159.44ZM358.825 166.08C358.825 164.96 359.158 163.907 359.825 162.92C360.491 161.907 361.318 161.027 362.305 160.28C363.318 159.507 364.411 158.907 365.585 158.48C366.758 158.027 367.851 157.8 368.865 157.8C369.185 157.8 369.545 157.84 369.945 157.92C370.371 157.973 370.785 158.067 371.185 158.2C371.585 158.333 371.958 158.493 372.305 158.68C372.678 158.867 372.971 159.08 373.185 159.32C373.078 159.533 372.958 159.693 372.825 159.8C372.691 159.907 372.545 159.987 372.385 160.04C372.225 160.093 372.051 160.147 371.865 160.2C371.678 160.227 371.491 160.28 371.305 160.36C371.518 160.467 371.771 160.52 372.065 160.52C372.358 160.52 372.638 160.48 372.905 160.4C373.171 160.32 373.425 160.213 373.665 160.08C373.798 160.347 373.865 160.587 373.865 160.8C373.865 161.253 373.745 161.733 373.505 162.24C373.265 162.72 372.998 163.213 372.705 163.72C372.438 164.2 372.185 164.707 371.945 165.24C371.705 165.773 371.585 166.307 371.585 166.84H371.665C371.985 166.84 372.345 166.8 372.745 166.72C373.145 166.613 373.558 166.493 373.985 166.36C374.411 166.2 374.811 166.027 375.185 165.84C375.585 165.653 375.905 165.467 376.145 165.28C376.278 165.333 376.411 165.413 376.545 165.52C376.678 165.627 376.745 165.747 376.745 165.88C376.745 166.093 376.425 166.373 375.785 166.72C375.145 167.067 374.411 167.413 373.585 167.76C372.785 168.08 371.998 168.36 371.225 168.6C370.451 168.84 369.945 168.96 369.705 168.96C368.771 168.96 368.145 168.733 367.825 168.28C367.505 167.827 367.265 167.187 367.105 166.36C366.811 166.467 366.545 166.6 366.305 166.76C366.065 166.92 365.838 167.107 365.625 167.32C364.905 167.907 364.225 168.347 363.585 168.64C362.971 168.907 362.185 169.04 361.225 169.04C360.291 169.04 359.651 168.76 359.305 168.2C358.985 167.64 358.825 166.933 358.825 166.08ZM368.465 159.56C367.985 159.56 367.425 159.773 366.785 160.2C366.145 160.627 365.518 161.147 364.905 161.76C364.318 162.347 363.811 162.973 363.385 163.64C362.985 164.28 362.785 164.84 362.785 165.32C362.785 165.64 362.918 165.92 363.185 166.16C363.478 166.4 363.785 166.52 364.105 166.52C364.451 166.52 364.945 166.28 365.585 165.8C366.225 165.32 366.865 164.76 367.505 164.12C368.145 163.48 368.691 162.84 369.145 162.2C369.625 161.533 369.865 161.04 369.865 160.72C369.865 160.373 369.705 160.093 369.385 159.88C369.091 159.667 368.785 159.56 368.465 159.56ZM378.224 158.6C378.677 158.467 379.117 158.36 379.544 158.28C379.97 158.2 380.41 158.16 380.864 158.16C380.944 158.16 381.064 158.16 381.224 158.16C381.41 158.16 381.584 158.173 381.744 158.2C381.904 158.227 382.05 158.28 382.184 158.36C382.317 158.413 382.384 158.507 382.384 158.64C382.384 158.693 382.344 158.8 382.264 158.96C382.184 159.12 382.09 159.307 381.984 159.52C381.877 159.733 381.77 159.947 381.664 160.16C381.557 160.347 381.49 160.493 381.464 160.6C381.784 160.6 382.117 160.48 382.464 160.24C382.81 159.973 383.157 159.68 383.504 159.36C383.85 159.04 384.197 158.76 384.544 158.52C384.917 158.253 385.304 158.12 385.704 158.12C386.077 158.12 386.37 158.147 386.584 158.2C386.824 158.253 387.077 158.44 387.344 158.76C387.45 159.053 387.504 159.387 387.504 159.76C387.504 160.427 387.344 161.027 387.024 161.56C386.73 162.093 386.33 162.56 385.824 162.96C385.344 163.333 384.797 163.627 384.184 163.84C383.57 164.027 382.957 164.12 382.344 164.12C382.264 164.12 382.13 164.08 381.944 164C381.784 163.92 381.704 163.827 381.704 163.72C381.704 163.48 381.85 163.213 382.144 162.92C382.437 162.6 382.584 162.253 382.584 161.88C382.21 162.067 381.81 162.347 381.384 162.72C380.957 163.093 380.557 163.52 380.184 164C379.81 164.48 379.504 164.973 379.264 165.48C379.024 165.987 378.904 166.453 378.904 166.88C378.904 167.173 379.064 167.36 379.384 167.44C379.704 167.493 379.97 167.52 380.184 167.52C381.01 167.52 381.85 167.427 382.704 167.24C383.557 167.027 384.37 166.813 385.144 166.6C385.437 166.52 385.744 166.427 386.064 166.32C386.41 166.213 386.73 166.147 387.024 166.12H387.224C387.33 166.12 387.49 166.147 387.704 166.2C387.944 166.227 388.064 166.32 388.064 166.48C388.064 166.693 387.93 166.867 387.664 167C387.397 167.107 387.197 167.187 387.064 167.24C385.25 167.827 383.45 168.32 381.664 168.72C379.904 169.12 378.064 169.32 376.144 169.32C375.69 169.32 375.317 169.253 375.024 169.12C374.73 168.987 374.584 168.653 374.584 168.12C374.584 168.04 374.597 167.96 374.624 167.88C374.624 167.8 374.624 167.72 374.624 167.64C374.65 167.453 374.744 167.133 374.904 166.68C375.037 166.2 375.224 165.667 375.464 165.08C375.704 164.467 375.957 163.827 376.224 163.16C376.49 162.467 376.757 161.813 377.024 161.2C377.29 160.587 377.53 160.053 377.744 159.6C377.957 159.12 378.117 158.787 378.224 158.6ZM385.205 166.96C385.205 166.64 385.365 166.053 385.685 165.2C386.005 164.32 386.378 163.413 386.805 162.48C387.258 161.52 387.698 160.653 388.125 159.88C388.578 159.107 388.938 158.653 389.205 158.52C389.525 158.387 389.951 158.28 390.485 158.2C391.045 158.093 391.511 158.04 391.885 158.04C392.098 158.04 392.298 158.053 392.485 158.08C392.671 158.107 392.845 158.16 393.005 158.24C392.925 158.613 392.805 159 392.645 159.4C392.485 159.773 392.325 160.147 392.165 160.52C391.871 161.187 391.565 161.853 391.245 162.52C390.925 163.16 390.605 163.813 390.285 164.48C390.098 164.853 389.911 165.24 389.725 165.64C389.538 166.013 389.378 166.387 389.245 166.76L389.645 167C390.071 167 390.485 166.92 390.885 166.76C391.311 166.6 391.738 166.427 392.165 166.24C392.591 166.027 393.005 165.84 393.405 165.68C393.831 165.493 394.271 165.4 394.725 165.4C394.805 165.453 394.898 165.507 395.005 165.56C395.111 165.613 395.165 165.707 395.165 165.84C395.165 165.92 395.151 165.987 395.125 166.04C395.071 166.173 394.858 166.347 394.485 166.56C394.111 166.747 393.658 166.96 393.125 167.2C392.618 167.413 392.045 167.627 391.405 167.84C390.791 168.053 390.205 168.253 389.645 168.44C389.085 168.627 388.578 168.773 388.125 168.88C387.671 168.987 387.365 169.04 387.205 169.04C386.431 169.04 385.898 168.88 385.605 168.56C385.338 168.24 385.205 167.707 385.205 166.96ZM391.125 153.76C391.125 153.387 391.205 152.96 391.365 152.48C391.525 152 391.738 151.56 392.005 151.16C392.271 150.733 392.591 150.387 392.965 150.12C393.338 149.827 393.751 149.68 394.205 149.68C394.738 149.68 395.125 149.893 395.365 150.32C395.605 150.747 395.725 151.187 395.725 151.64C395.725 152.04 395.645 152.48 395.485 152.96C395.325 153.413 395.098 153.84 394.805 154.24C394.538 154.64 394.205 154.973 393.805 155.24C393.431 155.507 393.031 155.64 392.605 155.64C392.071 155.64 391.685 155.44 391.445 155.04C391.231 154.64 391.125 154.213 391.125 153.76ZM393.584 166.24C393.584 165.173 393.89 164.147 394.504 163.16C395.144 162.147 395.944 161.253 396.904 160.48C397.864 159.68 398.904 159.053 400.024 158.6C401.17 158.12 402.25 157.88 403.264 157.88C403.637 157.88 404.024 157.947 404.424 158.08C404.824 158.187 405.184 158.347 405.504 158.56C405.85 158.773 406.13 159.04 406.344 159.36C406.557 159.68 406.664 160.053 406.664 160.48C406.664 161.44 406.344 162.253 405.704 162.92C405.09 163.56 404.33 164.12 403.424 164.6C402.544 165.053 401.61 165.44 400.624 165.76C399.664 166.08 398.837 166.387 398.144 166.68C398.197 167.053 398.344 167.293 398.584 167.4C398.85 167.507 399.144 167.56 399.464 167.56C400.024 167.56 400.677 167.48 401.424 167.32C402.197 167.16 402.984 166.973 403.784 166.76C404.584 166.52 405.357 166.28 406.104 166.04C406.85 165.773 407.504 165.533 408.064 165.32C408.117 165.453 408.157 165.587 408.184 165.72C408.237 165.827 408.264 165.947 408.264 166.08C408.264 166.24 408.25 166.36 408.224 166.44C407.53 166.707 406.744 167 405.864 167.32C405.01 167.64 404.13 167.947 403.224 168.24C402.317 168.507 401.41 168.747 400.504 168.96C399.624 169.147 398.824 169.24 398.104 169.24C397.65 169.24 397.157 169.187 396.624 169.08C396.117 168.973 395.637 168.8 395.184 168.56C394.73 168.32 394.344 168.013 394.024 167.64C393.73 167.24 393.584 166.773 393.584 166.24ZM397.984 165.28C398.837 165.093 399.677 164.747 400.504 164.24C401.33 163.707 401.984 163.067 402.464 162.32C402.624 162.053 402.784 161.76 402.944 161.44C403.13 161.093 403.224 160.76 403.224 160.44C403.224 159.907 402.944 159.64 402.384 159.64C401.85 159.64 401.317 159.853 400.784 160.28C400.277 160.68 399.81 161.187 399.384 161.8C398.957 162.387 398.61 163 398.344 163.64C398.104 164.28 397.984 164.827 397.984 165.28ZM411.149 161.36C411.362 160.453 411.709 159.72 412.189 159.16C412.669 158.573 413.322 158.053 414.149 157.6C414.442 157.387 414.775 157.213 415.149 157.08C415.255 157.027 415.375 157 415.509 157C415.642 156.973 415.762 156.96 415.869 156.96C416.482 156.96 417.122 157.04 417.789 157.2C418.482 157.36 418.975 157.747 419.269 158.36C419.269 158.493 419.189 158.68 419.029 158.92C418.869 159.133 418.682 159.347 418.469 159.56C418.255 159.773 418.029 159.96 417.789 160.12C417.575 160.28 417.402 160.36 417.269 160.36C417.029 160.36 416.802 160.28 416.589 160.12C416.375 159.933 416.189 159.747 416.029 159.56C415.869 159.347 415.722 159.16 415.589 159C415.455 158.813 415.335 158.72 415.229 158.72C415.175 158.72 415.095 158.747 414.989 158.8C414.909 158.853 414.842 158.907 414.789 158.96C414.789 159.387 414.855 159.813 414.989 160.24C415.149 160.64 415.309 161.04 415.469 161.44C415.629 161.84 415.775 162.253 415.909 162.68C416.069 163.08 416.149 163.493 416.149 163.92C416.149 164.613 415.922 165.267 415.469 165.88C415.042 166.467 414.495 166.987 413.829 167.44C413.189 167.893 412.495 168.253 411.749 168.52C411.002 168.76 410.322 168.88 409.709 168.88C408.322 168.88 407.309 168.52 406.669 167.8C406.055 167.08 405.749 166.053 405.749 164.72C405.749 164.293 405.882 163.893 406.149 163.52C406.415 163.12 406.749 162.76 407.149 162.44C407.549 162.12 407.975 161.853 408.429 161.64C408.882 161.4 409.295 161.213 409.669 161.08C409.775 161.293 409.829 161.48 409.829 161.64C409.829 162.2 409.749 162.747 409.589 163.28C409.429 163.813 409.349 164.36 409.349 164.92C409.349 165.453 409.469 165.96 409.709 166.44C409.975 166.893 410.375 167.227 410.909 167.44C411.442 167.307 411.762 167.04 411.869 166.64C411.975 166.213 412.029 165.773 412.029 165.32C412.029 164.627 411.909 163.96 411.669 163.32C411.455 162.68 411.282 162.027 411.149 161.36Z" fill="white"/>
</svg>
